<svg xmlns="http://www.w3.org/2000/svg" fill="none" viewBox="0 0 100 100" id="Crypto-Secure--Streamline-Ux"><desc>Crypto Secure Streamline Illustration: https://streamlinehq.com</desc><path fill="#daedf7" stroke="#daedf7" stroke-miterlimit="10" d="M50 98.4077C76.1712 98.4077 97.3871 77.1918 97.3871 51.0206S76.1712 3.6335 50 3.6335S2.6129 24.8494 2.6129 51.0206S23.8288 98.4077 50 98.4077Z" stroke-width="1"></path><path fill="#45413c" d="M49.6114 90.8317C55.1833 90.8317 59.7001 90.1544 59.7001 89.3188C59.7001 88.4833 55.1833 87.806 49.6114 87.806C44.0397 87.806 39.5227 88.4833 39.5227 89.3188C39.5227 90.1544 44.0396 90.8317 49.6114 90.8317Z" opacity=".15" stroke-width="1"></path><path fill="#6dd627" d="M70.9961 42.0354L49.6226 66.2542C49.1896 66.7448 49.2364 67.4934 49.7269 67.9263L62.1294 78.8717C62.62 79.3047 63.3686 79.2579 63.8016 78.7674L85.1751 54.5486C85.6081 54.0581 85.5614 53.3094 85.0708 52.8765L72.6682 41.9311C72.1776 41.4981 71.429 41.5449 70.9961 42.0354Z" stroke-width="1"></path><path fill="#46b000" d="M68.7807 44.5452L49.6221 66.2544C49.4144 66.4899 49.3086 66.7982 49.3282 67.1117C49.3477 67.4252 49.4909 67.718 49.7263 67.9259L62.1299 78.8723C62.3654 79.0801 62.6738 79.1858 62.9873 79.1663C63.3007 79.1467 63.5936 79.0035 63.8015 78.7681L68.7771 73.1255L68.7807 44.5452Z" stroke-width="1"></path><path fill="#c8ffa1" d="M79.143 51.8534L74.4162 47.681C74.1425 47.9914 73.8103 48.2448 73.4387 48.4267C73.0671 48.6087 72.6632 48.7157 72.2502 48.7416C71.8373 48.7675 71.4232 48.7117 71.0318 48.5774C70.6403 48.4432 70.2792 48.2332 69.9689 47.9594L55.3725 64.5022C55.6829 64.7759 55.9363 65.1081 56.1183 65.4797C56.3002 65.8513 56.4072 66.2552 56.4332 66.6682C56.459 67.0811 56.4032 67.4952 56.269 67.8866C56.1347 68.2781 55.9247 68.6392 55.6509 68.9495L60.3778 73.1219C60.6514 72.8115 60.9836 72.5581 61.3552 72.3762C61.7269 72.1942 62.1307 72.0872 62.5437 72.0613C62.9567 72.0355 63.3707 72.0913 63.7622 72.2255C64.1537 72.3597 64.5148 72.5698 64.825 72.8435L79.4238 56.3019C78.7969 55.7491 78.4151 54.97 78.3623 54.1358C78.3097 53.3016 78.5905 52.4806 79.143 51.8534Z" stroke-width="1"></path><path fill="#9ceb60" d="M68.7807 49.3087L55.3725 64.5022C55.6829 64.7759 55.9363 65.1081 56.1183 65.4797C56.3002 65.8513 56.4072 66.2552 56.4332 66.6682C56.459 67.0811 56.4032 67.4952 56.269 67.8866C56.1347 68.2781 55.9247 68.6392 55.6509 68.9495L60.3778 73.1219C60.6514 72.8115 60.9836 72.5581 61.3552 72.3762C61.7269 72.1942 62.1307 72.0872 62.5437 72.0613C62.9567 72.0355 63.3707 72.0913 63.7622 72.2255C64.1537 72.3597 64.5148 72.5698 64.825 72.8435L68.7807 68.3643V49.3087Z" stroke-width="1"></path><path stroke="#45413c" stroke-linecap="round" stroke-linejoin="round" d="M79.143 51.8534L74.4162 47.681C74.1425 47.9914 73.8103 48.2448 73.4387 48.4267C73.0671 48.6087 72.6632 48.7157 72.2502 48.7416C71.8373 48.7675 71.4232 48.7117 71.0318 48.5774C70.6403 48.4432 70.2792 48.2332 69.9689 47.9594L55.3725 64.5022C55.6829 64.7759 55.9363 65.1081 56.1183 65.4797C56.3002 65.8513 56.4072 66.2552 56.4332 66.6682C56.459 67.0811 56.4032 67.4952 56.269 67.8866C56.1347 68.2781 55.9247 68.6392 55.6509 68.9495L60.3778 73.1219C60.6514 72.8115 60.9836 72.5581 61.3552 72.3762C61.7269 72.1942 62.1307 72.0872 62.5437 72.0613C62.9567 72.0355 63.3707 72.0913 63.7622 72.2255C64.1537 72.3597 64.5148 72.5698 64.825 72.8435L79.4238 56.3019C78.7969 55.7491 78.4151 54.97 78.3623 54.1358C78.3097 53.3016 78.5905 52.4806 79.143 51.8534H79.143Z" stroke-width="1"></path><path stroke="#45413c" stroke-linecap="round" stroke-linejoin="round" d="M70.9961 42.0354L49.6226 66.2542C49.1896 66.7448 49.2364 67.4934 49.7269 67.9263L62.1294 78.8717C62.62 79.3047 63.3686 79.2579 63.8016 78.7674L85.1751 54.5486C85.6081 54.0581 85.5614 53.3094 85.0708 52.8765L72.6682 41.9311C72.1776 41.4981 71.429 41.5449 70.9961 42.0354Z" stroke-width="1"></path><path fill="#6dd627" d="M69.4844 58.0386C69.9518 58.4512 70.2864 58.9932 70.4459 59.596C70.6052 60.1988 70.5823 60.8352 70.38 61.4249C70.1776 62.0147 69.8051 62.5311 69.3092 62.9092C68.8132 63.2871 68.2164 63.5096 67.5942 63.5483C66.9719 63.587 66.3521 63.4404 65.8132 63.1269C65.2743 62.8134 64.8403 62.3472 64.5664 61.7872C64.2924 61.227 64.1906 60.5983 64.274 59.9804C64.3574 59.3626 64.6221 58.7833 65.0347 58.3158C65.3087 58.0054 65.6412 57.752 66.013 57.5702C66.3849 57.3882 66.789 57.2814 67.2022 57.2557C67.6153 57.2299 68.0296 57.2857 68.4211 57.4201C68.8128 57.5544 69.174 57.7646 69.4844 58.0386Z" stroke-width="1"></path><path stroke="#45413c" stroke-linecap="round" stroke-linejoin="round" d="M69.4844 58.0386C69.9518 58.4512 70.2864 58.9932 70.4459 59.596C70.6052 60.1988 70.5823 60.8352 70.38 61.4249C70.1776 62.0147 69.8051 62.5311 69.3092 62.9092C68.8132 63.2871 68.2164 63.5096 67.5942 63.5483C66.9719 63.587 66.3521 63.4404 65.8132 63.1269C65.2743 62.8134 64.8403 62.3472 64.5664 61.7872C64.2924 61.227 64.1906 60.5983 64.274 59.9804C64.3574 59.3626 64.6221 58.7833 65.0347 58.3158C65.3087 58.0054 65.6412 57.752 66.013 57.5702C66.3849 57.3882 66.789 57.2814 67.2022 57.2557C67.6153 57.2299 68.0296 57.2857 68.4211 57.4201C68.8128 57.5544 69.174 57.7646 69.4844 58.0386Z" stroke-width="1"></path><path fill="#6dd627" d="M77.8132 51.2733L48.8816 65.6376C48.2955 65.9286 48.0563 66.6396 48.3473 67.2255L55.7033 82.0416C55.9942 82.6276 56.7052 82.8668 57.2912 82.5759L86.2229 68.2116C86.809 67.9206 87.0482 67.2097 86.7572 66.6236L79.4012 51.8076C79.1102 51.2215 78.3993 50.9823 77.8133 51.2733Z" stroke-width="1"></path><path fill="#46b000" d="M68.7807 55.7593L48.8817 65.6395C48.7422 65.7087 48.6178 65.8046 48.5155 65.9219C48.4131 66.0392 48.3349 66.1756 48.2853 66.3231C48.2357 66.4707 48.2156 66.6265 48.2263 66.7818C48.237 66.9371 48.2781 67.0887 48.3474 67.2282L55.7042 82.0437C55.844 82.3251 56.0897 82.5394 56.3873 82.6395C56.685 82.7397 57.0103 82.7176 57.2917 82.578L68.783 76.8738L68.7807 55.7593Z" stroke-width="1"></path><path fill="#c8ffa1" d="M81.6581 63.4419L78.854 57.7958C78.1054 58.1673 77.24 58.2261 76.4479 57.9596C75.6558 57.6929 75.0022 57.1226 74.6306 56.3741L54.869 66.1856C55.2405 66.9342 55.2994 67.7996 55.0329 68.5917C54.7662 69.3838 54.1959 70.0374 53.4474 70.409L56.2515 76.0564C57.0001 75.6849 57.8657 75.626 58.6576 75.8925C59.4497 76.1592 60.1033 76.7295 60.4749 77.478L80.2365 67.6665C79.865 66.9178 79.806 66.0521 80.0727 65.2598C80.3392 64.4676 80.9095 63.8138 81.6581 63.4419Z" stroke-width="1"></path><path fill="#9ceb60" d="M68.7807 59.279L54.869 66.1856C55.2405 66.9342 55.2994 67.7996 55.0329 68.5917C54.7662 69.3838 54.1959 70.0374 53.4474 70.409L56.2515 76.0564C57.0001 75.6848 57.8657 75.626 58.6576 75.8925C59.4497 76.1592 60.1033 76.7295 60.4749 77.478L68.7807 73.3541V59.279Z" stroke-width="1"></path><path stroke="#45413c" stroke-linecap="round" stroke-linejoin="round" d="M81.6581 63.4419L78.854 57.7958C78.1054 58.1673 77.24 58.2261 76.4479 57.9596C75.6558 57.6929 75.0022 57.1226 74.6306 56.3741L54.869 66.1856C55.2405 66.9342 55.2994 67.7996 55.0329 68.5917C54.7662 69.3838 54.1959 70.0374 53.4474 70.409L56.2515 76.0564C57.0001 75.6849 57.8657 75.626 58.6576 75.8925C59.4497 76.1592 60.1033 76.7295 60.4749 77.478L80.2365 67.6665C79.865 66.9178 79.806 66.0521 80.0727 65.2598C80.3392 64.4676 80.9095 63.8138 81.6581 63.4419H81.6581Z" stroke-width="1"></path><path stroke="#45413c" stroke-linecap="round" stroke-linejoin="round" d="M77.8132 51.2733L48.8816 65.6376C48.2955 65.9286 48.0563 66.6396 48.3473 67.2255L55.7033 82.0416C55.9942 82.6276 56.7052 82.8668 57.2912 82.5759L86.2229 68.2116C86.809 67.9206 87.0482 67.2097 86.7572 66.6236L79.4012 51.8076C79.1102 51.2215 78.3993 50.9823 77.8133 51.2733Z" stroke-width="1"></path><path fill="#6dd627" d="M70.3764 65.521C70.6534 66.0793 70.7587 66.7071 70.6789 67.3252C70.5992 67.9433 70.3378 68.5238 69.9282 68.9934C69.5184 69.463 68.9786 69.8006 68.3772 69.9634C67.7756 70.1263 67.1392 70.1071 66.5486 69.9084C65.958 69.7097 65.4394 69.3402 65.0588 68.8468C64.678 68.3533 64.4521 67.7582 64.4097 67.1364C64.3673 66.5146 64.5102 65.8943 64.8202 65.3537C65.1303 64.8131 65.5938 64.3766 66.1519 64.0994C66.5226 63.9153 66.926 63.806 67.3389 63.7778C67.7519 63.7496 68.1663 63.803 68.5587 63.9351C68.9509 64.0671 69.3134 64.2751 69.6254 64.5472C69.9373 64.8193 70.1925 65.1502 70.3764 65.521Z" stroke-width="1"></path><path fill="#46b000" d="M68.7807 64.0378C68.3027 63.8326 67.7811 63.7494 67.2629 63.7954C66.7447 63.8415 66.2461 64.0156 65.8118 64.3018C65.3773 64.5881 65.0209 64.9778 64.7741 65.4357C64.5275 65.8937 64.3983 66.4059 64.3983 66.9261C64.3983 67.4463 64.5275 67.9584 64.7741 68.4164C65.0209 68.8744 65.3773 69.264 65.8118 69.5504C66.2461 69.8366 66.7447 70.0106 67.2629 70.0567C67.7811 70.1028 68.3027 70.0195 68.7807 69.8143V64.0378Z" stroke-width="1"></path><path stroke="#45413c" stroke-linecap="round" stroke-linejoin="round" d="M70.3764 65.521C70.6534 66.0793 70.7587 66.7071 70.6789 67.3252C70.5992 67.9433 70.3378 68.5238 69.9282 68.9934C69.5184 69.463 68.9786 69.8006 68.3772 69.9634C67.7756 70.1263 67.1392 70.1071 66.5486 69.9084C65.958 69.7097 65.4394 69.3402 65.0588 68.8468C64.678 68.3533 64.4521 67.7582 64.4097 67.1364C64.3673 66.5146 64.5102 65.8943 64.8202 65.3537C65.1303 64.8131 65.5938 64.3766 66.1519 64.0994C66.5226 63.9153 66.926 63.806 67.3389 63.7778C67.7519 63.7496 68.1663 63.803 68.5587 63.9351C68.9509 64.0671 69.3134 64.2751 69.6254 64.5472C69.9373 64.8193 70.1925 65.1502 70.3764 65.521Z" stroke-width="1"></path><path fill="#ffffff" d="M65.7349 80.7501C65.735 81.3514 65.6168 81.9468 65.3867 82.5024C65.1566 83.058 64.8194 83.5628 64.3942 83.9881C63.9689 84.4133 63.4641 84.7506 62.9085 84.9806C62.353 85.2106 61.7574 85.3289 61.1561 85.3288H37.4116C36.8103 85.3292 36.2149 85.2109 35.6593 84.9809C35.1037 84.7509 34.5989 84.4137 34.1737 83.9884S33.4115 83.0582 33.1815 82.5025C32.9517 81.9469 32.8336 81.3514 32.834 80.7501V29.8267C32.8344 28.6126 33.3169 27.4483 34.1756 26.5898C35.0342 25.7314 36.1986 25.2491 37.4128 25.2491H61.1561C62.3703 25.2491 63.5347 25.7314 64.3934 26.5898C65.252 27.4483 65.7345 28.6126 65.7349 29.8267V80.7501Z" stroke-width="1"></path><path fill="#daedf7" d="M46.6746 25.2491H37.4116C36.1974 25.2491 35.033 25.7314 34.1744 26.5898C33.3157 27.4483 32.8332 28.6126 32.8328 29.8267V40.8679C36.2349 39.5842 39.273 37.4911 41.6847 34.7698C44.0964 32.0485 45.8091 28.7808 46.6746 25.2492Z" stroke-width="1"></path><path fill="#daedf7" d="M32.8329 80.7501C32.8327 81.3514 32.9511 81.9468 33.181 82.5024C33.4111 83.058 33.7484 83.5628 34.1736 83.9881C34.5989 84.4133 35.1036 84.7506 35.6593 84.9806C36.2149 85.2106 36.8103 85.3289 37.4116 85.3288H61.1561C61.7574 85.3288 62.353 85.2104 62.9086 84.9802C63.4642 84.75 63.969 84.4126 64.3942 83.9873C64.8193 83.562 65.1566 83.0571 65.3867 82.5015C65.6167 81.9457 65.735 81.3502 65.7349 80.7489V76.6937C65.7353 77.2954 65.6172 77.8912 65.3874 78.4472C65.1574 79.0032 64.8203 79.5085 64.3951 79.9342C63.9699 80.3598 63.465 80.6975 62.9092 80.9279C62.3534 81.1584 61.7578 81.2771 61.1561 81.2772H37.4116C36.8103 81.2774 36.2149 81.1591 35.6593 80.9291C35.1037 80.699 34.5989 80.3617 34.1736 79.9365C33.7484 79.5112 33.4111 79.0064 33.181 78.4508C32.9511 77.8952 32.8328 77.2998 32.8329 76.6985V80.7501Z" stroke-width="1"></path><path stroke="#45413c" stroke-linecap="round" stroke-linejoin="round" d="M65.7349 80.7501C65.735 81.3514 65.6168 81.9468 65.3867 82.5024C65.1566 83.058 64.8194 83.5628 64.3942 83.9881C63.9689 84.4133 63.4641 84.7506 62.9085 84.9806C62.353 85.2106 61.7574 85.3289 61.1561 85.3288H37.4116C36.8103 85.3292 36.2149 85.2109 35.6593 84.9809C35.1037 84.7509 34.5989 84.4137 34.1737 83.9884S33.4115 83.0582 33.1815 82.5025C32.9517 81.9469 32.8336 81.3514 32.834 80.7501V29.8267C32.8344 28.6126 33.3169 27.4483 34.1756 26.5898C35.0342 25.7314 36.1986 25.2491 37.4128 25.2491H61.1561C62.3703 25.2491 63.5347 25.7314 64.3934 26.5898C65.252 27.4483 65.7345 28.6126 65.7349 29.8267V80.7501Z" stroke-width="1"></path><path fill="#00b8f0" d="M62.8751 33.8321H35.695V76.0315H62.8751V33.8321Z" stroke-width="1"></path><path fill="#4acfff" d="M35.695 56.6253L58.4894 33.8321H35.695V56.6253Z" stroke-width="1"></path><path fill="#00b8f0" d="M35.695 39.5517C38.3113 38.1141 40.6149 36.1697 42.4714 33.8321H35.695V39.5517Z" stroke-width="1"></path><path stroke="#45413c" stroke-linecap="round" stroke-linejoin="round" d="M62.8751 33.8321H35.695V76.0315H62.8751V33.8321Z" stroke-width="1"></path><path stroke="#45413c" stroke-linecap="round" stroke-linejoin="round" d="M47.8534 29.54H55.7208" stroke-width="1"></path><path fill="#45413c" d="M44.451 29.54C44.451 29.7157 44.3988 29.8875 44.3012 30.0337C44.2036 30.1798 44.0649 30.2936 43.9025 30.3609C43.7402 30.4282 43.5615 30.4457 43.3892 30.4115C43.2168 30.3772 43.0585 30.2925 42.9342 30.1683C42.81 30.044 42.7254 29.8857 42.691 29.7134C42.6568 29.541 42.6743 29.3623 42.7416 29.2C42.8089 29.0376 42.9228 28.8989 43.0688 28.8013C43.215 28.7037 43.3868 28.6515 43.5625 28.6515C43.7981 28.6515 44.0241 28.7451 44.1907 28.9118C44.3574 29.0784 44.451 29.3044 44.451 29.54Z" stroke-width="1"></path><path fill="#ffffff" stroke="#45413c" stroke-linecap="round" stroke-linejoin="round" d="M49.2845 83.1834C50.667 83.1834 51.7877 82.0627 51.7877 80.6802S50.667 78.1769 49.2845 78.1769S46.7812 79.2976 46.7812 80.6802S47.9019 83.1834 49.2845 83.1834Z" stroke-width="1"></path><path fill="#ffe500" d="M56.601 52.2775H42.52C41.2114 52.2775 40.1506 53.3383 40.1506 54.6469V65.7864C40.1506 67.095 41.2114 68.1557 42.52 68.1557H56.601C57.9096 68.1557 58.9704 67.095 58.9704 65.7864V54.6469C58.9704 53.3383 57.9096 52.2775 56.601 52.2775Z" stroke-width="1"></path><path fill="#fff48c" d="M56.9517 52.2775H42.1681C41.9036 52.2775 41.6418 52.3297 41.3974 52.4308C41.1531 52.532 40.9311 52.6804 40.744 52.8674C40.5571 53.0544 40.4086 53.2765 40.3075 53.5207C40.2063 53.7651 40.1542 54.0271 40.1542 54.2915V57.3491C40.1542 57.0847 40.2063 56.8228 40.3075 56.5784C40.4086 56.3341 40.5571 56.1121 40.744 55.925C40.9311 55.7381 41.1531 55.5897 41.3974 55.4885C41.6418 55.3873 41.9036 55.3352 42.1681 55.3352H56.9517C57.4859 55.3352 57.9981 55.5474 58.3758 55.925S58.9656 56.815 58.9656 57.3491V54.295C58.9661 54.0303 58.9143 53.768 58.8134 53.5232C58.7124 53.2785 58.564 53.0561 58.377 52.8687S57.9678 52.5326 57.7233 52.4312C57.4786 52.3298 57.2165 52.2775 56.9517 52.2775Z" stroke-width="1"></path><path stroke="#45413c" stroke-linecap="round" stroke-linejoin="round" d="M56.601 52.2775H42.52C41.2114 52.2775 40.1506 53.3383 40.1506 54.6469V65.7864C40.1506 67.095 41.2114 68.1557 42.52 68.1557H56.601C57.9096 68.1557 58.9704 67.095 58.9704 65.7864V54.6469C58.9704 53.3383 57.9096 52.2775 56.601 52.2775Z" stroke-width="1"></path><path fill="#87898c" stroke="#45413c" stroke-linecap="round" stroke-linejoin="round" d="M49.5605 62.1885C50.6499 62.1885 51.533 61.3055 51.533 60.2161C51.533 59.1266 50.6499 58.2436 49.5605 58.2436C48.4712 58.2436 47.588 59.1266 47.588 60.2161C47.588 61.3055 48.4712 62.1885 49.5605 62.1885Z" stroke-width="1"></path><path fill="#daedf7" stroke="#45413c" stroke-linecap="round" stroke-linejoin="round" d="M53.2567 52.2752V48.9818C53.2654 48.4907 53.1764 48.0029 52.9945 47.5466S52.5417 46.675 52.1976 46.3247C51.8534 45.9742 51.4429 45.6959 50.99 45.506C50.5373 45.316 50.0511 45.2182 49.5599 45.2182C49.0687 45.2182 48.5825 45.316 48.1296 45.506C47.6769 45.6959 47.2664 45.9742 46.9222 46.3247C46.5781 46.675 46.3071 47.0904 46.1253 47.5466C45.9434 48.0029 45.8543 48.4907 45.8631 48.9818V52.2752H42.5034V48.9818C42.5034 47.1101 43.2469 45.3151 44.5704 43.9917C45.8938 42.6682 47.6888 41.9247 49.5605 41.9247C51.4322 41.9247 53.2272 42.6682 54.5506 43.9917C55.8741 45.3151 56.6176 47.1101 56.6176 48.9818V52.2752H53.2567Z" stroke-width="1"></path><path fill="#ffe500" d="M25.0033 39.9166C35.5863 39.9166 44.1655 31.3374 44.1655 20.7545C44.1655 10.1715 35.5863 1.5923 25.0033 1.5923C14.4204 1.5923 5.8412 10.1715 5.8412 20.7545C5.8412 31.3374 14.4204 39.9166 25.0033 39.9166Z" stroke-width="1"></path><path fill="#fff48c" d="M25.0033 1.5959C21.2138 1.5953 17.5092 2.7186 14.3581 4.8237C11.2071 6.9287 8.751 9.921 7.3007 13.422C5.8503 16.9231 5.4708 20.7756 6.2101 24.4922C6.9494 28.209 8.7744 31.6229 11.4542 34.3024L38.5525 7.2077C36.7752 5.4257 34.6632 4.0126 32.338 3.0495C30.0127 2.0864 27.5202 1.5924 25.0033 1.5959Z" stroke-width="1"></path><path stroke="#45413c" stroke-linejoin="round" d="M25.0033 39.9166C35.5863 39.9166 44.1655 31.3374 44.1655 20.7545C44.1655 10.1715 35.5863 1.5923 25.0033 1.5923C14.4204 1.5923 5.8412 10.1715 5.8412 20.7545C5.8412 31.3374 14.4204 39.9166 25.0033 39.9166Z" stroke-width="1"></path><path stroke="#ebcb00" stroke-linejoin="round" d="M25.0033 36.6185C33.7641 36.6185 40.8661 29.5165 40.8661 20.7557S33.7641 4.8928 25.0033 4.8928S9.1405 11.9949 9.1405 20.7557S16.2425 36.6185 25.0033 36.6185Z" stroke-width="1"></path><path fill="#ffffff" stroke="#b58b00" stroke-linejoin="round" d="M27.1061 35.1246C26.5904 35.124 26.096 34.9188 25.7313 34.5542C25.3667 34.1895 25.1615 33.6951 25.1609 33.1794V32.0184H23.8506V33.1794C23.857 33.4388 23.8114 33.6968 23.7166 33.9384C23.6218 34.1799 23.4796 34.4001 23.2983 34.5858C23.1171 34.7716 22.9006 34.9192 22.6615 35.0199C22.4224 35.1207 22.1654 35.1726 21.906 35.1726C21.6465 35.1726 21.3896 35.1207 21.1505 35.0199C20.9113 34.9192 20.6949 34.7716 20.5136 34.5858C20.3324 34.4001 20.1902 34.1799 20.0953 33.9384C20.0006 33.6968 19.9549 33.4388 19.9613 33.1794V32.0184H18.7992C18.2837 32.0174 17.7896 31.8121 17.4252 31.4475C17.0608 31.0828 16.8557 30.5887 16.8551 30.0731V11.4358C16.8557 10.9204 17.0608 10.4264 17.4252 10.0618C17.7897 9.6974 18.2837 9.4924 18.7992 9.4918H19.9613V8.3296C19.9739 7.8222 20.1843 7.3397 20.5475 6.9852C20.9109 6.6308 21.3983 6.4323 21.906 6.4323C22.4136 6.4323 22.9011 6.6308 23.2645 6.9852C23.6277 7.3397 23.8381 7.8222 23.8506 8.3296V9.4918H25.1609V8.3296C25.1609 7.8137 25.3658 7.3189 25.7306 6.9541C26.0955 6.5893 26.5902 6.3843 27.1061 6.3843S28.1168 6.5893 28.4817 6.9541C28.8464 7.3189 29.0514 7.8137 29.0514 8.3296V9.6493C30.2089 9.8999 31.2776 10.4576 32.1453 11.2638C33.0129 12.0701 33.6474 13.0951 33.9821 14.2312C34.3169 15.3672 34.3395 16.5725 34.0476 17.7203C33.7558 18.8682 33.1602 19.9163 32.3234 20.7545C33.1602 21.5929 33.7556 22.641 34.0475 23.7889C34.3393 24.9369 34.3167 26.1421 33.982 27.2783C33.6472 28.4144 33.0128 29.4395 32.1451 30.2458C31.2776 31.0522 30.2089 31.61 29.0514 31.8608V33.1794C29.0508 33.6951 28.8456 34.1895 28.4809 34.5542C28.1163 34.9188 27.6218 35.124 27.1061 35.1246ZM27.6463 28.1291C28.0077 28.1367 28.3667 28.072 28.7027 27.9389C29.0387 27.8059 29.3447 27.6071 29.603 27.3543C29.8611 27.1015 30.0662 26.7996 30.2062 26.4666C30.3462 26.1335 30.4184 25.7757 30.4184 25.4144C30.4184 25.0531 30.3462 24.6953 30.2062 24.3622C30.0662 24.0292 29.8611 23.7273 29.603 23.4745C29.3447 23.2217 29.0387 23.0229 28.7027 22.8898C28.3667 22.7568 28.0077 22.6921 27.6463 22.6997H20.7444V28.1291H27.6463ZM27.6463 18.8104C28.0077 18.818 28.3667 18.7533 28.7027 18.6203C29.0387 18.4872 29.3447 18.2884 29.603 18.0356C29.8611 17.7828 30.0662 17.481 30.2062 17.148C30.3462 16.8148 30.4184 16.4571 30.4184 16.0957C30.4184 15.7344 30.3462 15.3766 30.2062 15.0435C30.0662 14.7105 29.8611 14.4086 29.603 14.1558C29.3447 13.903 29.0387 13.7042 28.7027 13.5712C28.3667 13.4381 28.0077 13.3735 27.6463 13.381H20.7444V18.8104H27.6463Z" stroke-width="1"></path></svg>