<svg xmlns="http://www.w3.org/2000/svg" fill="none" viewBox="-2 -2 400 400" id="Crypto-Mining-3--Streamline-Ux.svg" height="400" width="400"><desc>Crypto Mining 3 Streamline Illustration: https://streamlinehq.com</desc><path fill="#daedf7" stroke="#daedf7" stroke-miterlimit="10" d="M211.361832 377.163468C308.86574399999995 377.163468 387.90813599999996 298.121076 387.90813599999996 200.617164S308.86574399999995 24.071255999999998 211.361832 24.071255999999998S34.815924 103.113648 34.815924 200.617164S113.85831599999999 377.163468 211.361832 377.163468Z" stroke-width="4"></path><path fill="#fff48c" stroke="#b58b00" stroke-linecap="round" stroke-linejoin="round" d="M365.39395199999996 224.923248C365.83272 223.02522 366.795396 221.28915600000002 368.172684 219.911472C369.549972 218.53457999999998 371.286036 217.571904 373.184064 217.133136L388.81735199999997 213.52716C389.10524399999997 213.463404 389.36304 213.302628 389.547972 213.07255199999997C389.732508 212.84207999999998 389.833092 212.555772 389.833092 212.260356S389.732508 211.678632 389.547972 211.448556C389.36304 211.21808399999998 389.10524399999997 211.057704 388.81735199999997 210.99394800000002L373.184064 207.387972C371.286036 206.9496 369.549576 205.986924 368.171892 204.610032C366.795 203.232348 365.832324 201.49549199999998 365.39395199999996 199.59786L361.78362 183.968928C361.71788399999997 183.68301599999998 361.556712 183.427596 361.32703200000003 183.244644C361.097352 183.06208800000002 360.812628 182.962692 360.519192 182.962692C360.22535999999997 182.962692 359.941032 183.06208800000002 359.710956 183.244644C359.481276 183.427596 359.32010399999996 183.68301599999998 359.254368 183.968928L355.648392 199.59786C355.21002 201.496284 354.24615600000004 203.232744 352.868076 204.61042799999998C351.48999599999996 205.98732 349.752744 206.949996 347.853924 207.387972L332.229744 210.99394800000002C331.944624 211.06126799999998 331.690788 211.223232 331.50942 211.453308C331.327656 211.683384 331.228656 211.96731599999998 331.228656 212.260356S331.327656 212.83772399999998 331.50942 213.0678C331.690788 213.297876 331.944624 213.459444 332.229744 213.52716L347.853924 217.133136C349.751952 217.571112 351.488808 218.533788 352.866096 219.91107599999998C354.243384 221.28876 355.20606 223.02522 355.644036 224.923248L359.254368 240.560892C359.32010399999996 240.846804 359.481276 241.101828 359.710956 241.28478C359.941032 241.467732 360.22535999999997 241.567128 360.519192 241.567128C360.812628 241.567128 361.097352 241.467732 361.32703200000003 241.28478C361.556712 241.101828 361.71788399999997 240.846804 361.78362 240.560892L365.39395199999996 224.923248Z" stroke-width="4"></path><path fill="#fff48c" stroke="#b58b00" stroke-linecap="round" stroke-linejoin="round" d="M60.675516 169.095168C61.031124 167.55433200000002 61.812827999999996 166.144176 62.930736 165.025476C64.04903999999999 163.907568 65.459196 163.12586399999998 67.000032 162.770256L79.69381200000001 159.83946C79.927056 159.786 80.13456000000001 159.65532 80.28385200000001 159.468804C80.43274799999999 159.282288 80.513928 159.049836 80.513928 158.811048C80.513928 158.57226 80.43274799999999 158.340204 80.28385200000001 158.15368800000002C80.134956 157.96677599999998 79.927056 157.8357 79.69381200000001 157.782636L67.000032 154.856592C65.459196 154.500984 64.04903999999999 153.71928 62.930736 152.601372C61.812827999999996 151.482672 61.031124 150.072516 60.675516 148.53168000000002L57.74472 135.847008C57.69126 135.613764 57.56058 135.40626 57.374064000000004 135.256968C57.187152 135.108072 56.955096 135.026892 56.716308 135.026892C56.47752 135.026892 56.245464 135.108072 56.058552 135.256968C55.872036 135.40586399999998 55.741356 135.613764 55.687896 135.847008L52.761852000000005 148.53168000000002C52.407036 150.072912 51.625727999999995 151.48386000000002 50.507424 152.602164C49.388723999999996 153.720468 47.978172 154.501776 46.43694 154.856592L33.747516 157.783032C33.514668 157.8357 33.306768 157.96677599999998 33.157872000000005 158.15368800000002C33.008976 158.340204 32.927795999999994 158.57226 32.927795999999994 158.811048C32.927795999999994 159.049836 33.008976 159.282288 33.157872000000005 159.468804C33.306768 159.655716 33.514668 159.786396 33.747516 159.83946L46.43694 162.770256C47.977776 163.12586399999998 49.387932 163.907568 50.506235999999994 165.025476C51.624144 166.144176 52.405848 167.55433200000002 52.761852000000005 169.095168L55.687896 181.78855199999998C55.741356 182.021796 55.872036 182.22969600000002 56.058552 182.378196C56.245464 182.52748799999998 56.47752 182.608668 56.716308 182.608668C56.955096 182.608668 57.187152 182.52748799999998 57.374064000000004 182.378196C57.56058 182.22969600000002 57.69126 182.021796 57.74472 181.78855199999998L60.675516 169.095168Z" stroke-width="4"></path><path fill="#45413c" d="M226.544868 346.263192C267.013692 346.263192 299.820312 343.188648 299.820312 339.39576S267.013692 332.52793199999996 226.544868 332.52793199999996S153.269424 335.60247599999997 153.269424 339.39576S186.076044 346.263192 226.544868 346.263192Z" opacity=".15" stroke-width="4"></path><path fill="#adc4d9" d="M278.881812 166.023V179.109612H259.254468V166.023H167.66244C164.1915 166.023 160.86312 167.401872 158.408712 169.85588399999997C155.9547 172.310292 154.575828 175.638672 154.575828 179.109612V323.038584C154.57265999999998 324.759204 154.90926 326.463192 155.565828 328.05352800000003C156.222 329.64386399999995 157.18586399999998 331.088868 158.40118800000002 332.306568C159.616116 333.52387200000004 161.059932 334.489716 162.649476 335.14905600000003C164.238228 335.808 165.94182 336.147372 167.66244 336.147372H285.427296C287.14554 336.147372 288.847152 335.80879200000004 290.434716 335.15103600000003C292.02227999999997 334.49328 293.464512 333.52902 294.67944 332.31409199999996C295.894368 331.098768 296.857836 329.65614 297.515196 328.068576C298.17216 326.480616 298.509948 324.779004 298.50955200000004 323.06076V179.109612C298.509948 177.391368 298.17216 175.68936 297.515196 174.101796S295.894368 171.071208 294.67944 169.85628C293.464512 168.64095600000002 292.02227999999997 167.676696 290.434716 167.019336C288.847152 166.36158 287.14554 166.023 285.427296 166.023H278.881812Z" stroke-width="4"></path><path fill="#87898c" d="M226.544868 316.49785199999997C255.44969999999998 316.49785199999997 278.881812 293.06574 278.881812 264.160512S255.44969999999998 211.823568 226.544868 211.823568S174.207924 235.25568 174.207924 264.160512S197.640036 316.49785199999997 226.544868 316.49785199999997Z" stroke-width="4"></path><path fill="#45413c" d="M277.946064 274.060512C275.686092 262.081116 269.31286800000004 251.26714800000002 259.926876 243.48654C250.54128 235.706724 238.733748 231.44893199999999 226.542492 231.44893199999999S202.543308 235.706724 193.158108 243.48654C183.772512 251.26714800000002 177.399288 262.08072 175.13891999999998 274.060512C173.68599600000002 266.488992 173.923596 258.689772 175.83469200000002 251.221212C177.745788 243.75225600000002 181.283256 236.797704 186.194448 230.854932C191.105244 224.911368 197.268588 220.12689600000002 204.243336 216.84247200000001C211.21848 213.557652 218.83276800000002 211.854852 226.542492 211.854852C234.25181999999998 211.854852 241.866504 213.557652 248.841648 216.84247200000001C255.816396 220.12689600000002 261.97974 224.911368 266.89093199999996 230.854932C271.801332 236.797704 275.339196 243.75225600000002 277.250292 251.221212C279.161784 258.689772 279.39898800000003 266.488992 277.946064 274.060512Z" stroke-width="4"></path><path stroke="#45413c" stroke-linecap="round" stroke-linejoin="round" d="M226.544868 316.49785199999997C255.44969999999998 316.49785199999997 278.881812 293.06574 278.881812 264.160512S255.44969999999998 211.823568 226.544868 211.823568S174.207924 235.25568 174.207924 264.160512S197.640036 316.49785199999997 226.544868 316.49785199999997Z" stroke-width="4"></path><path fill="#daedf7" d="M285.427296 166.023H278.881812V179.109612H259.254468V166.023H167.66244C164.1915 166.023 160.86312 167.401872 158.408712 169.85588399999997C155.9547 172.310292 154.575828 175.638672 154.575828 179.109612V198.73695600000002C154.57464 197.01792 154.91203199999998 195.31512 155.56939200000002 193.726368C156.226752 192.13761599999998 157.190616 190.69419599999998 158.405544 189.477684C159.621264 188.26156799999998 161.06389199999998 187.296912 162.652644 186.63876C164.240604 185.980212 165.943404 185.641632 167.66244 185.641632H259.254468V198.728244H278.882208V185.641632H285.427296C287.14554 185.641632 288.847152 185.980212 290.434716 186.637968C292.02227999999997 187.295724 293.464908 188.259588 294.67944 189.474912C295.894368 190.690236 296.857836 192.13286399999998 297.515196 193.720428C298.17216 195.30799199999998 298.509948 197.01 298.50955200000004 198.728244V179.109612C298.509948 177.391368 298.17216 175.68936 297.515196 174.101796S295.894368 171.071208 294.67944 169.85628C293.464908 168.64095600000002 292.02227999999997 167.676696 290.434716 167.019336C288.847152 166.36158 287.14554 166.023 285.427296 166.023Z" stroke-width="4"></path><path stroke="#45413c" stroke-linecap="round" stroke-linejoin="round" d="M278.881812 166.023V179.109612H259.254468V166.023H167.66244C164.1915 166.023 160.86312 167.401872 158.408712 169.85588399999997C155.9547 172.310292 154.575828 175.638672 154.575828 179.109612V323.038584C154.57265999999998 324.759204 154.90926 326.463192 155.565828 328.05352800000003C156.222 329.64386399999995 157.18586399999998 331.088868 158.40118800000002 332.306568C159.616116 333.52387200000004 161.059932 334.489716 162.649476 335.14905600000003C164.238228 335.808 165.94182 336.147372 167.66244 336.147372H285.427296C287.14554 336.147372 288.847152 335.80879200000004 290.434716 335.15103600000003C292.02227999999997 334.49328 293.464512 333.52902 294.67944 332.31409199999996C295.894368 331.098768 296.857836 329.65614 297.515196 328.068576C298.17216 326.480616 298.509948 324.779004 298.50955200000004 323.06076V179.109612C298.509948 177.391368 298.17216 175.68936 297.515196 174.101796S295.894368 171.071208 294.67944 169.85628C293.464512 168.64095600000002 292.02227999999997 167.676696 290.434716 167.019336C288.847152 166.36158 287.14554 166.023 285.427296 166.023H278.881812Z" stroke-width="4"></path><path fill="#adc4d9" stroke="#45413c" stroke-linecap="round" stroke-linejoin="round" d="M174.203568 218.36034C177.81588 218.36034 180.74429999999998 215.431524 180.74429999999998 211.819212S177.81588 205.27808399999998 174.203568 205.27808399999998S167.66244 208.206504 167.66244 211.819212S170.59086 218.36034 174.203568 218.36034Z" stroke-width="4"></path><path fill="#adc4d9" stroke="#45413c" stroke-linecap="round" stroke-linejoin="round" d="M278.881812 218.36034C282.49452 218.36034 285.42294 215.431524 285.42294 211.819212S282.49452 205.27808399999998 278.881812 205.27808399999998S272.34108 208.206504 272.34108 211.819212S275.2695 218.36034 278.881812 218.36034Z" stroke-width="4"></path><path fill="#adc4d9" stroke="#45413c" stroke-linecap="round" stroke-linejoin="round" d="M174.203568 323.038584C177.81588 323.038584 180.74429999999998 320.110164 180.74429999999998 316.49785199999997S177.81588 309.956724 174.203568 309.956724S167.66244 312.88514399999997 167.66244 316.49785199999997S170.59086 323.038584 174.203568 323.038584Z" stroke-width="4"></path><path fill="#adc4d9" stroke="#45413c" stroke-linecap="round" stroke-linejoin="round" d="M278.881812 323.038584C282.49452 323.038584 285.42294 320.110164 285.42294 316.49785199999997S282.49452 309.956724 278.881812 309.956724S272.34108 312.88514399999997 272.34108 316.49785199999997S275.2695 323.038584 278.881812 323.038584Z" stroke-width="4"></path><path stroke="#45413c" stroke-linecap="round" stroke-linejoin="round" d="M178.833204 216.444492L274.256532 311.872176" stroke-width="4"></path><path stroke="#45413c" stroke-linecap="round" stroke-linejoin="round" d="M274.256532 216.444492L178.833204 311.872176" stroke-width="4"></path><path stroke="#45413c" stroke-linecap="round" stroke-linejoin="round" d="M226.544868 290.328984C240.997284 290.328984 252.71334 278.612928 252.71334 264.160512S240.997284 237.99203999999997 226.544868 237.99203999999997S200.376396 249.708096 200.376396 264.160512S212.092452 290.328984 226.544868 290.328984Z" stroke-width="4"></path><path fill="#daedf7" stroke="#45413c" stroke-linecap="round" stroke-linejoin="round" d="M145.91609999999997 316.49785199999997H154.58453999999998V211.819212H145.91609999999997C144.74591999999998 211.819212 143.622864 212.28372 142.795224 213.11175599999999C141.96797999999998 213.93939600000002 141.50268 215.06205599999998 141.50268 216.232632V312.084036C141.50268 313.25461199999995 141.96797999999998 314.377272 142.795224 315.204912S144.74591999999998 316.49745599999994 145.91609999999997 316.49745599999994Z" stroke-width="4"></path><path fill="#45413c" stroke="#45413c" stroke-linecap="round" stroke-linejoin="round" d="M233.08599600000002 179.109612H213.45825599999998V192.196224H233.08599600000002V179.109612Z" stroke-width="4"></path><path fill="#fff48c" stroke="#b58b00" stroke-linecap="round" stroke-linejoin="round" d="M218.14570799999998 57.301596C218.472804 55.886292 219.190356 54.59058 220.21758 53.563356C221.244012 52.535340000000005 222.538932 51.8166 223.95423599999998 51.488712L235.61485199999998 48.80106C235.827108 48.749976000000004 236.016396 48.629592 236.151432 48.458124C236.28726 48.286656 236.360916 48.074796 236.360916 47.8566S236.28726 47.426148 236.151432 47.25468C236.016396 47.083211999999996 235.827108 46.962827999999995 235.61485199999998 46.911744L223.95423599999998 44.219736000000005C222.538536 43.89264 221.24322 43.174692 220.2156 42.147864C219.188376 41.121036 218.46923999999999 39.826116 218.14135199999998 38.411208L215.453304 26.750196C215.402616 26.53794 215.282232 26.348651999999998 215.110368 26.213616000000002C214.93929599999998 26.078184 214.727436 26.004528 214.508844 26.004528S214.078392 26.078184 213.90732 26.213616000000002C213.735456 26.348651999999998 213.615072 26.53794 213.564384 26.750196L210.876336 38.406852C210.549636 39.824135999999996 209.831292 41.120244 208.802484 42.14826C207.773676 43.176276 206.47638 43.893828 205.059096 44.219736000000005L193.402836 46.911744C193.19057999999998 46.962827999999995 193.00129199999998 47.083211999999996 192.866256 47.25468C192.730428 47.426148 192.656772 47.638008 192.656772 47.8566S192.730428 48.286656 192.866256 48.458124C193.00129199999998 48.629592 193.19057999999998 48.749976000000004 193.402836 48.80106L205.059096 51.488712C206.47558800000002 51.815016 207.771696 52.532964 208.799712 53.560979999999994C209.827728 54.588996 210.54567600000001 55.8855 210.87198 57.301596L213.560028 68.962608C213.61071600000002 69.174864 213.731496 69.364152 213.902964 69.499188C214.074036 69.63462 214.285896 69.708276 214.504488 69.708276S214.93493999999998 69.63462 215.106012 69.499188C215.27787600000002 69.364152 215.39826000000002 69.174864 215.448948 68.962608L218.14570799999998 57.301596Z" stroke-width="4"></path><path fill="#ffe500" d="M313.917516 146.69146800000001C349.223688 146.69146800000001 377.844984 118.070172 377.844984 82.764S349.223688 18.836532000000002 313.917516 18.836532000000002S249.990048 47.457828 249.990048 82.764S278.611344 146.691072 313.917516 146.691072Z" stroke-width="4"></path><path fill="#fff48c" d="M313.917516 18.836532000000002C301.273632 18.836928 288.914076 22.586652 278.40186 29.611296C267.88924799999995 36.63594 259.695612 46.620684 254.85768000000002 58.301891999999995C250.019352 69.9831 248.753736 82.83686399999999 251.22081599999999 95.23720800000001C253.68789600000002 107.637948 259.776396 119.028096 268.717284 127.968588L359.122104 37.563767999999996C353.19239999999996 31.618223999999998 346.14637200000004 26.903052000000002 338.388732 23.689511999999997C330.630696 20.475576 322.3143 18.826236 313.917516 18.836532000000002Z" stroke-width="4"></path><path stroke="#45413c" stroke-linejoin="round" d="M313.917516 146.69146800000001C349.223688 146.69146800000001 377.844984 118.070172 377.844984 82.764S349.223688 18.836532000000002 313.917516 18.836532000000002S249.990048 47.457828 249.990048 82.764S278.611344 146.691072 313.917516 146.691072Z" stroke-width="4"></path><path stroke="#ebcb00" stroke-linejoin="round" d="M313.921872 135.688212C343.151028 135.688212 366.846084 111.99275999999999 366.846084 82.764C366.846084 53.534448000000005 343.151028 29.839788000000002 313.921872 29.839788000000002S260.99766 53.534448000000005 260.99766 82.764C260.99766 111.99275999999999 284.693112 135.688212 313.921872 135.688212Z" stroke-width="4"></path><path fill="#ffffff" stroke="#b58b00" stroke-linejoin="round" d="M320.93503200000004 130.70930399999997C319.21520399999997 130.707324 317.56626 130.02264000000002 316.34974800000003 128.806524C315.134028 127.590408 314.449344 125.941464 314.44696799999997 124.22124V120.34638H310.073148V124.22124C310.073148 125.942256 309.38965199999996 127.592388 308.17314 128.80890000000002C306.956232 130.025808 305.30609999999996 130.70930399999997 303.585084 130.70930399999997C301.86406800000003 130.70930399999997 300.213936 130.025808 298.997424 128.80890000000002C297.780912 127.592388 297.09702 125.942256 297.09702 124.22124V120.34638H293.221764C291.501936 120.344004 289.852992 119.65932 288.63648 118.4436C287.42076000000003 117.227088 286.736076 115.578144 286.7337 113.85831599999999V51.67404C286.736076 49.954212 287.42076000000003 48.305268 288.63648 47.088756C289.852992 45.873036 291.501936 45.188351999999995 293.221764 45.185976000000004H297.09702V41.315472C297.09702 39.594456 297.780912 37.944323999999995 298.997424 36.727812C300.213936 35.510904 301.864464 34.827408 303.585084 34.827408C305.30609999999996 34.827408 306.956232 35.510904 308.17314 36.727812C309.38965199999996 37.944323999999995 310.073148 39.594456 310.073148 41.315472V45.195084H314.44696799999997V41.315472C314.44696799999997 39.594456 315.13086000000004 37.944323999999995 316.34776800000003 36.727812C317.563884 35.510904 319.21441200000004 34.827408 320.93503200000004 34.827408C322.656048 34.827408 324.30618 35.510904 325.523088 36.727812C326.7396 37.944323999999995 327.423096 39.594456 327.423096 41.315472V45.728892C331.289244 46.56366 334.858788 48.424464 337.75711199999995 51.116472C340.65504 53.807688 342.77364 57.231108 343.890756 61.024787999999994C345.00787199999996 64.818864 345.081528 68.84420399999999 344.1042 72.67669199999999C343.127664 76.50878399999999 341.135784 80.007444 338.338044 82.8036C341.135784 85.599756 343.127664 89.098416 344.1042 92.930904C345.081528 96.76299599999999 345.00787199999996 100.788336 343.890756 104.582412C342.77364 108.376488 340.65504 111.799512 337.75711199999995 114.491124C334.858788 117.18273599999999 331.289244 119.04354 327.423096 119.878308V124.292124C327.402504 125.99967600000001 326.7099 127.630404 325.49576399999995 128.831472C324.281628 130.03293599999998 322.643376 130.707324 320.93503200000004 130.70930399999997ZM322.73604 107.37025200000001C323.942652 107.396388 325.142136 107.18215199999999 326.264796 106.739028C327.38706 106.29550800000001 328.409136 105.632604 329.27202 104.788728C330.134904 103.944852 330.82038 102.937032 331.288452 101.824668C331.756128 100.7127 331.997292 99.517572 331.997292 98.31096S331.756128 95.909616 331.288452 94.797252C330.82038 93.68528400000001 330.134904 92.677464 329.27202 91.833588C328.409136 90.989712 327.38706 90.326808 326.264796 89.88328800000001C325.142136 89.440164 323.942652 89.225532 322.73604 89.25206399999999H299.70982799999996V107.37025200000001H322.73604ZM322.73604 76.275936C323.9577 76.32979200000001 325.178172 76.13614799999999 326.322612 75.705696C327.467448 75.275244 328.513284 74.617092 329.397156 73.772028C330.280632 72.926568 330.983928 71.91082800000001 331.46427600000004 70.785792C331.94502 69.661152 332.19252 68.450976 332.19252 67.227732S331.94502 64.794708 331.46427600000004 63.67006799999999C330.983928 62.545032 330.280632 61.529292 329.397156 60.683831999999995C328.513284 59.838372 327.467448 59.180616 326.322612 58.750164C325.178172 58.319711999999996 323.9577 58.126068 322.73604 58.179924H299.70982799999996V76.275936H322.73604Z" stroke-width="4"></path><path fill="#ffe500" d="M52.898472 295.85952000000003C78.70777199999999 295.85952000000003 99.630432 274.93686 99.630432 249.12756000000002C99.630432 223.318656 78.70777199999999 202.395996 52.898472 202.395996C27.089172 202.395996 6.166907999999999 223.318656 6.166907999999999 249.12756000000002C6.166907999999999 274.93686 27.089172 295.85952000000003 52.898472 295.85952000000003Z" stroke-width="4"></path><path fill="#fff48c" d="M19.85346 282.172572C11.273328 273.371076 6.505884 261.543348 6.585084 249.251904C6.663888 236.960064 11.582208 225.19450799999998 20.274804 216.503892C28.9674 207.81288 40.733748000000006 202.896936 53.025192 202.82050800000002C65.316636 202.74408 77.14357199999999 207.513504 85.943484 216.096012L19.85346 282.172572Z" stroke-width="4"></path><path stroke="#45413c" stroke-linecap="round" stroke-linejoin="round" d="M52.898472 295.85952000000003C78.70777199999999 295.85952000000003 99.630432 274.93686 99.630432 249.12756000000002C99.630432 223.318656 78.70777199999999 202.395996 52.898472 202.395996C27.089172 202.395996 6.166907999999999 223.318656 6.166907999999999 249.12756000000002C6.166907999999999 274.93686 27.089172 295.85952000000003 52.898472 295.85952000000003Z" stroke-width="4"></path><path stroke="#ebcb00" stroke-linecap="round" stroke-linejoin="round" d="M52.898472 287.800128C74.256732 287.800128 91.57104 270.48582 91.57104 249.12756000000002S74.256732 210.455388 52.898472 210.455388S14.226299999999998 227.769696 14.226299999999998 249.12756000000002S31.540608000000002 287.800128 52.898472 287.800128Z" stroke-width="4"></path><path fill="#ffffff" stroke="#b58b00" stroke-linecap="round" stroke-linejoin="round" d="M53.609291999999996 229.138272C53.121816 230.70564 53.022024 232.367256 53.318232 233.981748C53.614044 235.59584399999997 54.297143999999996 237.114504 55.308527999999995 238.407048L53.286948 241.65979199999998C52.5492 242.845812 51.521184000000005 243.82393199999999 50.300315999999995 244.50267599999998C49.079448 245.18141999999997 47.705724000000004 245.538216 46.309032 245.539404H44.071236C43.061832 243.22597199999998 41.238252 241.36318799999998 38.946203999999994 240.305868C36.654156 239.248152 34.053624 239.068764 31.638023999999998 239.80176C29.993436 240.289632 28.50012 241.18776 27.299447999999998 242.412588C26.098776 243.63702 25.229952 245.148156 24.774552 246.801852C24.0471 249.31090799999998 24.302124 252.003312 25.488936000000002 254.331C26.675352 256.658688 28.70406 258.44741999999997 31.162032 259.332084C33.620400000000004 260.21714399999996 36.323892 260.132796 38.722068 259.09567200000004C41.119848000000005 258.05854800000003 43.032528 256.14626400000003 44.071236 253.74888H45.483768C47.018664 253.74967199999998 48.523464 254.18012399999998 49.826699999999995 254.99152800000002C51.129936 255.80253599999998 52.180524 256.962024 52.858872 258.338916L54.350604 261.366732C53.677404 262.610568 53.278632 263.983896 53.180423999999995 265.394448C53.082216 266.805 53.286948 268.220304 53.781155999999996 269.54531999999995C54.589788 271.814004 56.171412 273.725892 58.248036 274.945968C60.325056 276.165648 62.764812 276.6159 65.14002 276.21792C67.51562399999999 275.81954399999995 69.674616 274.597488 71.240004 272.76678C72.804996 270.93607199999997 73.676196 268.61274000000003 73.699956 266.20426799999996C73.665108 264.87964800000003 73.36098 263.576412 72.805392 262.37376C72.2502 261.170316 71.455428 260.093988 70.46938800000001 259.208532C69.346332 257.831244 67.84786799999999 256.80877200000003 66.156156 256.265064C64.464048 255.721752 62.650764 255.679776 60.935688 256.145472L59.867676 253.96945200000002C59.2515 252.716508 58.964004 251.327736 59.032908 249.93341999999998C59.101416 248.538708 59.523948 247.18438799999998 60.260508 245.998368L62.524836 242.361504C62.82936 242.388036 63.12042 242.44981199999998 63.40752 242.44981199999998C65.309508 242.450208 67.175064 241.92234000000002 68.79509999999999 240.926004C70.415532 239.929272 71.727084 238.50248399999998 72.58482 236.804436C73.44216 235.106388 73.811628 233.203608 73.652436 231.308352C73.492452 229.4127 72.810144 227.59902 71.681148 226.068084C70.551756 224.537148 69.019632 223.34994 67.25545199999999 222.63793199999998C65.492064 221.92592399999998 63.565128 221.717628 61.689276 222.036012C59.81382 222.35399999999998 58.063896 223.18639199999998 56.633148 224.440524C55.202796 225.69425999999999 54.147852 227.32063200000002 53.587116 229.138272H53.608895999999994Z" stroke-width="4"></path><path fill="#ffe500" d="M130.243212 154.393272C163.046268 154.393272 189.63806399999999 127.801476 189.63806399999999 94.99842C189.63806399999999 62.19576 163.046268 35.603964 130.243212 35.603964C97.440552 35.603964 70.84875600000001 62.19576 70.84875600000001 94.99842C70.84875600000001 127.801476 97.440552 154.393272 130.243212 154.393272Z" stroke-width="4"></path><path fill="#fff48c" d="M88.243056 136.994616C77.155056 125.845236 70.940628 110.754468 70.962408 95.030496C70.983792 79.306128 77.2398 64.232388 88.35829199999999 53.113499999999995C99.47718 41.995008 114.550524 35.739000000000004 130.275288 35.717616C145.99926 35.69583599999999 161.090028 41.910264 172.239408 52.998264L88.243056 136.994616Z" stroke-width="4"></path><path stroke="#45413c" stroke-linecap="round" stroke-linejoin="round" d="M130.243212 154.393272C163.046268 154.393272 189.63806399999999 127.801476 189.63806399999999 94.99842C189.63806399999999 62.19576 163.046268 35.603964 130.243212 35.603964C97.440552 35.603964 70.84875600000001 62.19576 70.84875600000001 94.99842C70.84875600000001 127.801476 97.440552 154.393272 130.243212 154.393272Z" stroke-width="4"></path><path stroke="#ebcb00" stroke-linecap="round" stroke-linejoin="round" d="M130.243212 144.153504C157.39099199999998 144.153504 179.398296 122.1462 179.398296 94.99842S157.39099199999998 45.843732 130.243212 45.843732S81.088524 67.851036 81.088524 94.99842S103.09582800000001 144.153504 130.243212 144.153504Z" stroke-width="4"></path><path fill="#ffffff" stroke="#b58b00" stroke-linecap="round" stroke-linejoin="round" d="M123.08432400000001 112.91346L128.433888 88.709148L144.327348 83.43918V74.09555999999999L130.662576 78.62382000000001L135.941256 54.75927599999999H119.288664L112.69922399999999 84.58243200000001L97.42788 89.64489599999999V98.988516L110.47014 94.663008L104.021676 123.837516H156.345552L159.201504 112.91346H123.08432400000001Z" stroke-width="4"></path></svg>