<svg xmlns="http://www.w3.org/2000/svg" fill="none" viewBox="0 0 100 100" id="Online-Contract-3--Streamline-Ux"><desc>Online Contract 3 Streamline Illustration: https://streamlinehq.com</desc><path fill="#daedf7" stroke="#daedf7" stroke-miterlimit="10" d="M50 93.2705c22.0914 0 40 -17.9086 40 -40s-17.9086 -40 -40 -40 -40 17.9086 -40 40 17.9086 40 40 40Z" stroke-width="1"></path><path fill="#45413c" d="M24.443 84.89c7.3675 0 13.34 -0.8144 13.34 -1.819 0 -1.0047 -5.9725 -1.819 -13.34 -1.819 -7.3674 0 -13.34 0.8143 -13.34 1.819 0 1.0046 5.9726 1.819 13.34 1.819Z" opacity=".15" stroke-width="1"></path><path fill="#00b8f0" d="m47 67.6687 -0.005 -23.285c0 -0.3823 -0.0753 -0.7609 -0.2216 -1.114 -0.1463 -0.3532 -0.3607 -0.6741 -0.631 -0.9444s-0.5912 -0.4848 -0.9444 -0.6311c-0.3532 -0.1462 -0.7317 -0.2215 -1.114 -0.2215H4.80001c-0.77187 0.0002 -1.51203 0.307 -2.05774 0.8529 -0.5457 0.5459 -0.85226 1.2862 -0.85226 2.0581l0.005 23.285H47Z" stroke-width="1"></path><path fill="#4acfff" d="M7.70701 67.6687 33.907 41.4688H4.80001c-0.77187 0.0002 -1.51203 0.307 -2.05774 0.8529 -0.5457 0.5459 -0.85226 1.2862 -0.85226 2.058l0.005 23.285 5.812 0.004Z" stroke-width="1"></path><path fill="#ffffff" stroke="#45413c" stroke-linecap="round" stroke-linejoin="round" d="M46.994 67.6689v5.821c0 0.3823 -0.0753 0.7608 -0.2216 1.1139 -0.1463 0.3531 -0.3607 0.6739 -0.6311 0.9442 -0.2703 0.2702 -0.5912 0.4845 -0.9444 0.6307 -0.3531 0.1462 -0.7317 0.2214 -1.1139 0.2212H4.80001c-0.38223 0 -0.76071 -0.0753 -1.11384 -0.2216 -0.35312 -0.1463 -0.67396 -0.3607 -0.94419 -0.631 -0.27023 -0.2704 -0.48456 -0.5913 -0.63074 -0.9444 -0.14618 -0.3532 -0.22136 -0.7317 -0.22123 -1.114v-5.82H46.994Z" stroke-width="1"></path><path fill="#daedf7" stroke="#45413c" stroke-linecap="round" stroke-linejoin="round" d="M31.719 82.2214H17.166l0.727 -5.821h13.099l0.727 5.821Z" stroke-width="1"></path><path stroke="#45413c" stroke-linecap="round" stroke-linejoin="round" d="M12.801 82.2217h23.283" stroke-width="1"></path><path stroke="#45413c" stroke-linecap="round" stroke-linejoin="round" d="m47 67.6687 -0.005 -23.285c0 -0.3823 -0.0753 -0.7609 -0.2216 -1.114 -0.1463 -0.3532 -0.3607 -0.6741 -0.631 -0.9444s-0.5912 -0.4848 -0.9444 -0.6311c-0.3532 -0.1462 -0.7317 -0.2215 -1.114 -0.2215H4.80001c-0.77187 0.0002 -1.51203 0.307 -2.05774 0.8529 -0.5457 0.5459 -0.85226 1.2862 -0.85226 2.0581l0.005 23.285H47Z" stroke-width="1"></path><path fill="#45413c" d="M75.557 84.89c7.3675 0 13.34 -0.8144 13.34 -1.819 0 -1.0047 -5.9725 -1.819 -13.34 -1.819 -7.3674 0 -13.34 0.8143 -13.34 1.819 0 1.0046 5.9726 1.819 13.34 1.819Z" opacity=".15" stroke-width="1"></path><path fill="#00b8f0" d="m98.114 67.6687 -0.005 -23.285c0 -0.7717 -0.3064 -1.5119 -0.8519 -2.0577 -0.5455 -0.5459 -1.2854 -0.8528 -2.0571 -0.8533H55.911c-0.3823 0 -0.7608 0.0753 -1.114 0.2215 -0.3532 0.1463 -0.6741 0.3608 -0.9444 0.6311s-0.4847 0.5912 -0.631 0.9444c-0.1463 0.3531 -0.2216 0.7317 -0.2216 1.114l0.005 23.285h45.109Z" stroke-width="1"></path><path fill="#4acfff" d="m58.822 67.6687 26.195 -26.1999H55.911c-0.3826 -0.0001 -0.7615 0.0754 -1.1149 0.2219 -0.3535 0.1466 -0.6745 0.3613 -0.9449 0.6321 -0.2704 0.2707 -0.4847 0.5921 -0.6308 0.9457 -0.146 0.3537 -0.2209 0.7326 -0.2204 1.1152l0.005 23.285h5.817Z" stroke-width="1"></path><path fill="#ffffff" stroke="#45413c" stroke-linecap="round" stroke-linejoin="round" d="M98.109 67.6689v5.821c0 0.7717 -0.3065 1.5117 -0.852 2.0574 -0.5455 0.5457 -1.2854 0.8524 -2.057 0.8526H55.911c-0.3822 0.0002 -0.7607 -0.075 -1.1139 -0.2212 -0.3532 -0.1462 -0.6741 -0.3605 -0.9444 -0.6307 -0.2704 -0.2703 -0.4848 -0.5911 -0.6311 -0.9442 -0.1463 -0.3531 -0.2216 -0.7316 -0.2216 -1.1139v-5.821h45.109Z" stroke-width="1"></path><path fill="#daedf7" stroke="#45413c" stroke-linecap="round" stroke-linejoin="round" d="M82.834 82.2214H68.281l0.727 -5.821h13.099l0.727 5.821Z" stroke-width="1"></path><path stroke="#45413c" stroke-linecap="round" stroke-linejoin="round" d="M63.916 82.2217h23.283" stroke-width="1"></path><path stroke="#45413c" stroke-linecap="round" stroke-linejoin="round" d="m98.114 67.6687 -0.005 -23.285c0 -0.7717 -0.3064 -1.5119 -0.8519 -2.0577 -0.5455 -0.5459 -1.2854 -0.8528 -2.0571 -0.8533H55.911c-0.3823 0 -0.7608 0.0753 -1.114 0.2215 -0.3532 0.1463 -0.6741 0.3608 -0.9444 0.6311s-0.4847 0.5912 -0.631 0.9444c-0.1463 0.3531 -0.2216 0.7317 -0.2216 1.114l0.005 23.285h45.109Z" stroke-width="1"></path><path fill="#6dd627" d="m35.4977 25.104 -3.3578 13.5842c-0.1495 0.6047 0.2196 1.2162 0.8244 1.3657l24.0987 5.9567c0.6048 0.1495 1.2163 -0.2196 1.3658 -0.8244l3.3577 -13.5842c0.1495 -0.6048 -0.2196 -1.2162 -0.8244 -1.3657l-24.0987 -5.9567c-0.6048 -0.1495 -1.2163 0.2196 -1.3657 0.8244Z" stroke-width="1"></path><path fill="#9ceb60" d="m60.757 35.766 -26.29 -6.5L35.5 25.1c0.0721 -0.2903 0.2565 -0.5401 0.5126 -0.6946 0.2561 -0.1545 0.563 -0.201 0.8534 -0.1294l24.1 5.957c0.1438 0.0356 0.2792 0.0991 0.3985 0.1871 0.1192 0.0879 0.2199 0.1984 0.2965 0.3252 0.0765 0.1269 0.1273 0.2676 0.1494 0.414 0.0222 0.1465 0.0152 0.2959 -0.0204 0.4397l-1.033 4.167Z" stroke-width="1"></path><path fill="#c8ffa1" d="m56.828 40.3735 1.3 -5.258c-0.6971 -0.1726 -1.2972 -0.6149 -1.6683 -1.2298s-0.4828 -1.3519 -0.3107 -2.0492l-15.773 -3.9c-0.1721 0.6968 -0.6139 1.2968 -1.2282 1.668 -0.6142 0.3713 -1.3508 0.4835 -2.0478 0.312l-1.3 5.258c0.3454 0.0853 0.6706 0.2377 0.957 0.4486s0.5285 0.4762 0.7123 0.7807c0.1839 0.3045 0.306 0.6423 0.3593 0.994 0.0533 0.3517 0.0368 0.7104 -0.0486 1.0557l15.7731 3.9c0.1719 -0.6967 0.6135 -1.2966 1.2276 -1.6679 0.6141 -0.3713 1.3505 -0.4836 2.0473 -0.3121Z" stroke-width="1"></path><path fill="#e4ffd1" d="m56.1481 31.8365 -15.773 -3.9c-0.1722 0.6966 -0.6138 1.2964 -1.2278 1.6676 -0.6141 0.3713 -1.3504 0.4836 -2.0472 0.3124l21.03 5.2c-0.3456 -0.0851 -0.671 -0.2375 -0.9576 -0.4484 -0.2867 -0.211 -0.529 -0.4763 -0.713 -0.7809 -0.1841 -0.3046 -0.3063 -0.6425 -0.3597 -0.9944 -0.0535 -0.3518 -0.037 -0.7108 0.0483 -1.0563Z" stroke-width="1"></path><path fill="#9ceb60" d="M49.591 35.8003c-0.1283 0.52 -0.408 0.9903 -0.8036 1.3513s-0.8894 0.5967 -1.419 0.6771c-0.5295 0.0804 -1.071 0.002 -1.5559 -0.2254 -0.485 -0.2273 -0.8916 -0.5934 -1.1686 -1.0518 -0.2769 -0.4585 -0.4116 -0.9888 -0.3872 -1.5238 0.0245 -0.535 0.2071 -1.0508 0.5247 -1.4821 0.3175 -0.4313 0.7559 -0.7587 1.2596 -0.9408 0.5036 -0.1822 1.05 -0.2109 1.57 -0.0825 0.6971 0.1724 1.2972 0.6145 1.6685 1.2292 0.3713 0.6146 0.4833 1.3516 0.3115 2.0488Z" stroke-width="1"></path><path stroke="#45413c" stroke-linecap="round" stroke-linejoin="round" d="M49.591 35.8003c-0.1283 0.52 -0.408 0.9903 -0.8036 1.3513s-0.8894 0.5967 -1.419 0.6771c-0.5295 0.0804 -1.071 0.002 -1.5559 -0.2254 -0.485 -0.2273 -0.8916 -0.5934 -1.1686 -1.0518 -0.2769 -0.4585 -0.4116 -0.9888 -0.3872 -1.5238 0.0245 -0.535 0.2071 -1.0508 0.5247 -1.4821 0.3175 -0.4313 0.7559 -0.7587 1.2596 -0.9408 0.5036 -0.1822 1.05 -0.2109 1.57 -0.0825 0.6971 0.1724 1.2972 0.6145 1.6685 1.2292 0.3713 0.6146 0.4833 1.3516 0.3115 2.0488v0Z" stroke-width="1"></path><path stroke="#45413c" stroke-linecap="round" stroke-linejoin="round" d="m56.828 40.3735 1.3 -5.258c-0.6971 -0.1726 -1.2972 -0.6149 -1.6683 -1.2298s-0.4828 -1.3519 -0.3107 -2.0492l-15.773 -3.9c-0.1721 0.6968 -0.6139 1.2968 -1.2282 1.668 -0.6142 0.3713 -1.3508 0.4835 -2.0478 0.312l-1.3 5.258c0.3454 0.0853 0.6706 0.2377 0.957 0.4486s0.5285 0.4762 0.7123 0.7807c0.1839 0.3045 0.306 0.6423 0.3593 0.994 0.0533 0.3517 0.0368 0.7104 -0.0486 1.0557l15.7731 3.9c0.1719 -0.6967 0.6135 -1.2966 1.2276 -1.6679 0.6141 -0.3713 1.3505 -0.4836 2.0473 -0.3121v0Z" stroke-width="1"></path><path stroke="#45413c" stroke-linecap="round" stroke-linejoin="round" d="m35.4977 25.104 -3.3578 13.5842c-0.1495 0.6047 0.2196 1.2162 0.8244 1.3657l24.0987 5.9567c0.6048 0.1495 1.2163 -0.2196 1.3658 -0.8244l3.3577 -13.5842c0.1495 -0.6048 -0.2196 -1.2162 -0.8244 -1.3657l-24.0987 -5.9567c-0.6048 -0.1495 -1.2163 0.2196 -1.3657 0.8244Z" stroke-width="1"></path><path fill="#ffcebf" stroke="#45413c" stroke-linecap="round" stroke-linejoin="round" d="M55.3101 44.9556c0.0001 0.3728 0.1017 0.7385 0.294 1.058l0.957 1.6c0.9696 1.6055 2.3363 2.9343 3.9685 3.8583 1.6322 0.9241 3.4748 1.4123 5.3505 1.4177h0.885c0.5452 0 1.0682 -0.2167 1.4538 -0.6022 0.3855 -0.3856 0.6022 -0.9086 0.6022 -1.4538 0 -0.5453 -0.2167 -1.0683 -0.6022 -1.4539 -0.3856 -0.3855 -0.9086 -0.6021 -1.4538 -0.6021h-0.885c-1.1658 -0.0035 -2.311 -0.3068 -3.3255 -0.8809 -1.0146 -0.5741 -1.8643 -1.3996 -2.4675 -2.3971l-0.958 -1.6c-0.2314 -0.3857 -0.5829 -0.6848 -1.0006 -0.8516 -0.4176 -0.1668 -0.8785 -0.192 -1.3118 -0.0719 -0.4334 0.1202 -0.8154 0.3792 -1.0876 0.7372 -0.2721 0.3581 -0.4193 0.7955 -0.419 1.2453v-0.003Z" stroke-width="1"></path><path fill="#ffcebf" stroke="#45413c" stroke-linecap="round" stroke-linejoin="round" d="M87.8841 59.665h-4.112v8.004h4.112v-8.004Z" stroke-width="1"></path><path fill="#daedf7" d="M76.1351 48.2715c3.116 0 6.1044 1.2378 8.3078 3.4412 2.2034 2.2034 3.4412 5.1918 3.4412 8.3078v1.179h-4.112v6.473h-15.272v-14.122h-4.114v-5.279h11.749Z" stroke-width="1"></path><path fill="#ffffff" d="M76.1351 48.2715c3.1159 0 6.1041 1.2377 8.3075 3.4408 2.2033 2.2032 3.4412 5.1913 3.4415 8.3072v1.18h-0.069c-0.3082 -2.8829 -1.6715 -5.5501 -3.8277 -7.4884 -2.1562 -1.9384 -4.9529 -3.011 -7.8523 -3.0116h-11.749v-2.428h11.749Z" stroke-width="1"></path><path stroke="#45413c" stroke-linecap="round" stroke-linejoin="round" d="M76.1351 48.2715c3.116 0 6.1044 1.2378 8.3078 3.4412 2.2034 2.2034 3.4412 5.1918 3.4412 8.3078v1.179h-4.112v6.473h-15.272v-14.122h-4.114v-5.279h11.749Z" stroke-width="1"></path><path fill="#ffcebf" stroke="#45413c" stroke-linecap="round" stroke-linejoin="round" d="M79.245 48.6876c-0.1684 -0.0465 -0.3169 -0.1469 -0.4229 -0.2857 -0.106 -0.1389 -0.1636 -0.3086 -0.1641 -0.4833v-3.276h-5.006v2.764c-0.0001 0.1137 -0.0226 0.2263 -0.0663 0.3313 -0.0436 0.105 -0.1075 0.2004 -0.188 0.2807 -0.0805 0.0804 -0.1761 0.144 -0.2812 0.1874 -0.1051 0.0434 -0.2177 0.0657 -0.3315 0.0656l3.351 3.528 3.109 -3.112Z" stroke-width="1"></path><path stroke="#45413c" stroke-linecap="round" stroke-linejoin="round" d="M83.7721 58.2578v2.938" stroke-width="1"></path><path stroke="#45413c" stroke-linecap="round" stroke-linejoin="round" d="M76.135 51.7959v15.873" stroke-width="1"></path><path fill="#6dd627" stroke="#45413c" stroke-linecap="round" stroke-linejoin="round" d="M79.072 48.6416c0.8129 0.2096 1.6008 0.5063 2.35 0.885v18.13h-2.35v-19.015Z" stroke-width="1"></path><path fill="#6dd627" stroke="#45413c" stroke-linecap="round" stroke-linejoin="round" d="M73.2001 48.6416c-0.8129 0.2096 -1.6008 0.5063 -2.35 0.885v18.13h2.35v-19.015Z" stroke-width="1"></path><path fill="#ffffff" stroke="#45413c" stroke-linecap="round" stroke-linejoin="round" d="m78.47 53.3524 -2.335 -1.553 3.108 -3.108c0.7984 0.2173 1.5715 0.519 2.306 0.9l-1.342 3.234c-0.0666 0.1603 -0.1678 0.3038 -0.2964 0.4203 -0.1287 0.1165 -0.2815 0.2031 -0.4476 0.2535 -0.1661 0.0504 -0.3413 0.0633 -0.513 0.038 -0.1717 -0.0254 -0.3356 -0.0885 -0.48 -0.1848Z" stroke-width="1"></path><path fill="#ffffff" stroke="#45413c" stroke-linecap="round" stroke-linejoin="round" d="m73.8001 53.3524 2.335 -1.553 -3.354 -3.524h-2.539l1.821 4.554c0.0669 0.1599 0.1685 0.3031 0.2973 0.4192 0.1288 0.116 0.2817 0.2022 0.4478 0.2522 0.166 0.0499 0.341 0.0626 0.5125 0.0369 0.1715 -0.0256 0.3352 -0.0889 0.4794 -0.1853Z" stroke-width="1"></path><path fill="#ffe500" stroke="#45413c" stroke-linecap="round" stroke-linejoin="round" d="m85.0411 37.4668 -0.709 -1.418h-1.393c0.1471 0.5741 0.2214 1.1644 0.221 1.757v0.937c0.371 0.0763 0.6992 0.2908 0.918 0.6l0.565 -0.378c0.2377 -0.1581 0.4093 -0.3977 0.4826 -0.6736 0.0733 -0.2759 0.0432 -0.5691 -0.0846 -0.8244Z" stroke-width="1"></path><path fill="#ffe500" stroke="#45413c" stroke-linecap="round" stroke-linejoin="round" d="M69.1071 38.7428v-0.937c-0.0005 -0.5927 0.0741 -1.183 0.222 -1.757h-1.392l-0.708 1.418c-0.1282 0.2557 -0.1583 0.5495 -0.0846 0.8259s0.2461 0.5162 0.4846 0.6741l0.564 0.376c0.2179 -0.3083 0.5445 -0.5226 0.914 -0.6v0Z" stroke-width="1"></path><path fill="#ffcebf" stroke="#45413c" stroke-linecap="round" stroke-linejoin="round" d="M84.3311 40.1472c-0.0028 -0.3335 -0.121 -0.6556 -0.3345 -0.9118 -0.2135 -0.2561 -0.5091 -0.4304 -0.8365 -0.4932v-0.937c0.0111 -0.9298 -0.1625 -1.8526 -0.5106 -2.7148 -0.3482 -0.8622 -0.864 -1.6468 -1.5175 -2.3082 -0.6536 -0.6614 -1.432 -1.1865 -2.29 -1.5449 -0.858 -0.3584 -1.7786 -0.543 -2.7084 -0.543 -0.9299 0 -1.8505 0.1846 -2.7085 0.543 -0.858 0.3584 -1.6364 0.8835 -2.2899 1.5449 -0.6536 0.6614 -1.1694 1.446 -1.5175 2.3082 -0.3482 0.8622 -0.5217 1.785 -0.5106 2.7148v0.937c-0.3416 0.0637 -0.6484 0.2494 -0.8634 0.5224 -0.215 0.273 -0.3236 0.6148 -0.3055 0.9619 0.0181 0.347 0.1616 0.6756 0.4038 0.9248 0.2422 0.2492 0.5667 0.4019 0.9131 0.4299 0.3291 1.5808 1.1927 3 2.4455 4.0189 1.2527 1.0188 2.8182 1.575 4.433 1.575 1.6147 0 3.1802 -0.5562 4.4329 -1.575 1.2528 -1.0189 2.1164 -2.4381 2.4456 -4.0189 0.3587 -0.0323 0.6926 -0.1971 0.9365 -0.4623 0.2438 -0.2651 0.3802 -0.6115 0.3825 -0.9717v0Z" stroke-width="1"></path><path fill="#45413c" d="M73.4991 39.5607c0.4849 0 0.878 -0.3931 0.878 -0.878s-0.3931 -0.878 -0.878 -0.878 -0.878 0.3931 -0.878 0.878 0.3931 0.878 0.878 0.878Z" stroke-width="1"></path><path fill="#45413c" d="M78.768 39.5607c0.4849 0 0.878 -0.3931 0.878 -0.878s-0.3931 -0.878 -0.878 -0.878 -0.878 0.3931 -0.878 0.878 0.3931 0.878 0.878 0.878Z" stroke-width="1"></path><path fill="#ffb59e" d="M72.3281 41.9035c0.4849 0 0.878 -0.3931 0.878 -0.878s-0.3931 -0.878 -0.878 -0.878 -0.878 0.3931 -0.878 0.878 0.3931 0.878 0.878 0.878Z" stroke-width="1"></path><path fill="#ffb59e" d="M79.94 41.9035c0.4849 0 0.878 -0.3931 0.878 -0.878s-0.3931 -0.878 -0.878 -0.878 -0.878 0.3931 -0.878 0.878 0.3931 0.878 0.878 0.878Z" stroke-width="1"></path><path stroke="#45413c" stroke-linecap="round" stroke-linejoin="round" d="M74.3781 43.6602c0.5201 0.3467 1.1313 0.5317 1.7565 0.5317 0.6251 0 1.2363 -0.185 1.7565 -0.5317" stroke-width="1"></path><path fill="#6dd627" d="M79.2711 27.8516h-6.271c-1.3423 0 -2.6297 0.5331 -3.579 1.4822 -0.9493 0.9491 -1.4827 2.2364 -1.483 3.5788v3.136h16.394v-3.136c0 -1.3423 -0.5332 -2.6296 -1.4823 -3.5787 -0.9491 -0.9491 -2.2364 -1.4823 -3.5787 -1.4823Z" stroke-width="1"></path><path fill="#9ceb60" d="M79.2711 27.8516h-6.271c-1.3423 0 -2.6297 0.5331 -3.579 1.4822 -0.9493 0.9491 -1.4827 2.2364 -1.483 3.5788v2.162c0 -1.3426 0.5333 -2.6301 1.4826 -3.5794 0.9493 -0.9493 2.2369 -1.4826 3.5794 -1.4826h6.272c0.6647 0 1.3229 0.1309 1.937 0.3853 0.6141 0.2544 1.1721 0.6273 1.642 1.0973 0.47 0.4701 0.8428 1.0282 1.0971 1.6423 0.2542 0.6141 0.385 1.2724 0.3849 1.9371v-2.162c0 -0.6647 -0.1309 -1.3229 -0.3853 -1.937 -0.2544 -0.6141 -0.6273 -1.1721 -1.0974 -1.6421 -0.47 -0.4699 -1.0281 -0.8427 -1.6422 -1.097 -0.6142 -0.2543 -1.2724 -0.3851 -1.9371 -0.3849Z" stroke-width="1"></path><path stroke="#45413c" stroke-linecap="round" stroke-linejoin="round" d="M79.2711 27.8516h-6.271c-1.3423 0 -2.6297 0.5331 -3.579 1.4822 -0.9493 0.9491 -1.4827 2.2364 -1.483 3.5788v3.136h16.394v-3.136c0 -1.3423 -0.5332 -2.6296 -1.4823 -3.5787 -0.9491 -0.9491 -2.2364 -1.4823 -3.5787 -1.4823v0Z" stroke-width="1"></path><path fill="#ffe500" stroke="#45413c" stroke-linecap="round" stroke-linejoin="round" d="M76.1341 46c-0.1539 -0.0001 -0.3064 0.0301 -0.4486 0.0888 -0.1423 0.0588 -0.2715 0.145 -0.3805 0.2538 -0.1089 0.1087 -0.1953 0.2378 -0.2543 0.38 -0.0591 0.1421 -0.0895 0.2945 -0.0896 0.4484v1.171l1.173 -0.585 1.172 0.585v-1.168c0.0002 -0.1541 -0.0299 -0.3067 -0.0887 -0.4491 -0.0588 -0.1424 -0.145 -0.2719 -0.2539 -0.3809 -0.1089 -0.1091 -0.2381 -0.1956 -0.3805 -0.2546 -0.1423 -0.059 -0.2949 -0.0894 -0.4489 -0.0894v0Z" stroke-width="1"></path><path fill="#ffe500" stroke="#45413c" stroke-linecap="round" stroke-linejoin="round" d="M76.1351 31.3643c-0.2649 -0.0023 -0.5277 0.0475 -0.7733 0.1468 -0.2456 0.0992 -0.4693 0.2459 -0.6582 0.4317 -0.1889 0.1857 -0.3393 0.4069 -0.4427 0.6508 -0.1034 0.2439 -0.1577 0.5058 -0.1598 0.7707 -0.0039 0.0427 0.0012 0.0856 0.0148 0.1262 0.0136 0.0406 0.0354 0.0779 0.0642 0.1096 0.0288 0.0316 0.0638 0.057 0.1029 0.0744 0.0391 0.0175 0.0813 0.0266 0.1241 0.0268h3.777c0.0368 -0.2914 0.0113 -0.5873 -0.0747 -0.8681 -0.086 -0.2809 -0.2306 -0.5403 -0.4242 -0.7612 -0.1936 -0.2208 -0.4319 -0.3981 -0.6991 -0.5201 -0.2672 -0.122 -0.5572 -0.1859 -0.851 -0.1876Z" stroke-width="1"></path><path stroke="#45413c" stroke-linecap="round" stroke-linejoin="round" d="M78.1841 33.707h0.878c0.1538 0 0.306 0.0303 0.4481 0.0892 0.1421 0.0588 0.2712 0.1451 0.3799 0.2538 0.1087 0.1087 0.195 0.2378 0.2538 0.3799 0.0589 0.1421 0.0892 0.2944 0.0892 0.4481 0 0.1538 -0.0303 0.3061 -0.0892 0.4482 -0.0588 0.142 -0.1451 0.2711 -0.2538 0.3799 -0.1087 0.1087 -0.2378 0.1949 -0.3799 0.2538 -0.1421 0.0588 -0.2943 0.0891 -0.4481 0.0891" stroke-width="1"></path><path fill="#ffffff" d="M23.084 50.2461h-3.656v17.423h3.656v-17.423Z" stroke-width="1"></path><path fill="#bf8df2" d="M34.373 66.1492c-0.6926 -0.0031 -1.3778 -0.1428 -2.0164 -0.4109 -0.6387 -0.2681 -1.2182 -0.6594 -1.7055 -1.1517 -0.4873 -0.4922 -0.8728 -1.0756 -1.1345 -1.7169 -0.2616 -0.6413 -0.3944 -1.3279 -0.3906 -2.0205v6.815h-3.62c-0.6429 -0.0032 -1.2583 -0.2616 -1.7108 -0.7184 -0.4525 -0.4568 -0.7051 -1.0746 -0.7022 -1.7176v-13.685c0 -0.2069 0.0519 -0.4104 0.151 -0.592l2.134 -3.876c2.3435 0.8624 4.3652 2.4244 5.7911 4.4743 1.426 2.0499 2.1874 4.4886 2.1809 6.9857v0.642c-0.0011 0.277 0.0522 0.5514 0.1571 0.8078 0.1049 0.2563 0.2593 0.4894 0.4543 0.6861 0.195 0.1967 0.4268 0.353 0.6822 0.4601 0.2555 0.1071 0.5295 0.1628 0.8064 0.164 1.771 0 2.022 -1.578 2.022 -3.118h4.408v2.123c-0.0538 1.4538 -0.6269 2.8401 -1.6155 3.9074 -0.9886 1.0673 -2.327 1.7448 -3.7725 1.9096 -0.414 -0.005 -1.754 0.032 -2.119 0.032Z" stroke-width="1"></path><path fill="#dabff5" d="M33.37 59.4612c-1.2 -4.993 -4.854 -7.758 -9.6 -9.461l1.61 -2.925c2.3435 0.8624 4.3651 2.4244 5.7911 4.4743 1.426 2.0499 2.1874 4.4886 2.1809 6.9857v0.642c-0.0011 0.095 0.0049 0.1899 0.018 0.284Z" stroke-width="1"></path><path stroke="#45413c" stroke-linecap="round" stroke-linejoin="round" d="M34.373 66.1492c-0.6926 -0.0031 -1.3778 -0.1428 -2.0164 -0.4109 -0.6387 -0.2681 -1.2182 -0.6594 -1.7055 -1.1517 -0.4873 -0.4922 -0.8728 -1.0756 -1.1345 -1.7169 -0.2616 -0.6413 -0.3944 -1.3279 -0.3906 -2.0205v6.815h-3.62c-0.6429 -0.0032 -1.2583 -0.2616 -1.7108 -0.7184 -0.4525 -0.4568 -0.7051 -1.0746 -0.7022 -1.7176v-13.685c0 -0.2069 0.0519 -0.4104 0.151 -0.592l2.134 -3.876c2.3435 0.8624 4.3652 2.4244 5.7911 4.4743 1.426 2.0499 2.1874 4.4886 2.1809 6.9857v0.642c-0.0011 0.277 0.0522 0.5514 0.1571 0.8078 0.1049 0.2563 0.2593 0.4894 0.4543 0.6861 0.195 0.1967 0.4268 0.353 0.6822 0.4601 0.2555 0.1071 0.5295 0.1628 0.8064 0.164 1.771 0 2.022 -1.578 2.022 -3.118h4.408v2.123c-0.0538 1.4538 -0.6269 2.8401 -1.6155 3.9074 -0.9886 1.0673 -2.327 1.7448 -3.7725 1.9096 -0.414 -0.005 -1.754 0.032 -2.119 0.032Z" stroke-width="1"></path><path fill="#ffdb94" stroke="#45413c" stroke-linecap="round" stroke-linejoin="round" d="M41.879 56.655c0.0061 -0.2811 -0.044 -0.5607 -0.1473 -0.8222 -0.1034 -0.2615 -0.2579 -0.4998 -0.4546 -0.7008 -0.1967 -0.201 -0.4315 -0.3607 -0.6908 -0.4697 -0.2592 -0.1091 -0.5376 -0.1652 -0.8188 -0.1652s-0.5596 0.0561 -0.8188 0.1652c-0.2592 0.109 -0.4941 0.2687 -0.6907 0.4697 -0.1967 0.201 -0.3513 0.4393 -0.4546 0.7008 -0.1034 0.2615 -0.1535 0.5411 -0.1474 0.8222v1.522h4.223v-1.522Z" stroke-width="1"></path><path fill="#ffdb94" stroke="#45413c" stroke-linecap="round" stroke-linejoin="round" d="M24.4301 46.7756c-0.1876 -0.0486 -0.3536 -0.1582 -0.472 -0.3115 -0.1184 -0.1534 -0.1825 -0.3418 -0.182 -0.5355v-4.662h-5.01v4.656c-0.0003 0.1936 -0.0649 0.3817 -0.1837 0.5346 -0.1187 0.1529 -0.2848 0.2621 -0.4723 0.3104 -0.337 0.087 -0.653 0.19 -0.977 0.307 1.481 2.666 1.77 3.543 4.122 3.543s2.641 -0.876 4.122 -3.543c-0.314 -0.113 -0.62 -0.214 -0.947 -0.299Z" stroke-width="1"></path><path fill="#bf8df2" d="M19.44 62.8152v-11.272c-0.0002 -0.2071 -0.0528 -0.4108 -0.153 -0.592l-2.153 -3.876c-2.3568 0.851 -4.3939 2.408 -5.8337 4.4587 -1.43981 2.0508 -2.21233 4.4956 -2.21229 7.0013v2.78c0 1.6852 0.66944 3.3013 1.86109 4.4929 1.1916 1.1917 2.8077 1.8611 4.4929 1.8611h5.065v-4.854H19.44Z" stroke-width="1"></path><path stroke="#45413c" stroke-linecap="round" stroke-linejoin="round" d="M19.4401 62.8146h-2.912c-0.8426 0 -1.6507 -0.3347 -2.2465 -0.9305 -0.5958 -0.5958 -0.9305 -1.4039 -0.9305 -2.2465v-3.538" stroke-width="1"></path><path fill="#dabff5" d="M9.20502 62.5201c0.31724 -2.7792 1.33318 -5.4327 2.95318 -7.7131 1.6199 -2.2804 3.791 -4.1134 6.3108 -5.3279l-1.335 -2.4c-2.3568 0.851 -4.3939 2.408 -5.8337 4.4587 -1.4398 2.0508 -2.21232 4.4956 -2.21228 7.0013v2.78c-0.00062 0.4033 0.03688 0.8058 0.112 1.202" stroke-width="1"></path><path stroke="#45413c" stroke-linecap="round" stroke-linejoin="round" d="M19.44 62.8152v-11.272c-0.0002 -0.2071 -0.0528 -0.4108 -0.153 -0.592l-2.153 -3.876c-2.3568 0.851 -4.3939 2.408 -5.8337 4.4587 -1.43981 2.0508 -2.21233 4.4956 -2.21229 7.0013v2.78c0 1.6852 0.66944 3.3013 1.86109 4.4929 1.1916 1.1917 2.8077 1.8611 4.4929 1.8611h5.065v-4.854H19.44Z" stroke-width="1"></path><path fill="#bf8df2" stroke="#45413c" stroke-linecap="round" stroke-linejoin="round" d="M16.0361 51.1283c0.0452 0.1655 0.1249 0.3196 0.2338 0.4522 0.109 0.1326 0.2447 0.2407 0.3983 0.3171 0.1536 0.0765 0.3216 0.1197 0.4931 0.1267 0.1714 0.007 0.3424 -0.0223 0.5018 -0.086l1.739 -0.7c-0.0254 -0.1016 -0.0641 -0.1995 -0.115 -0.291l-2.153 -3.876c-0.6774 0.2443 -1.3317 0.5485 -1.955 0.909l0.857 3.148Z" stroke-width="1"></path><path fill="#ffdb94" stroke="#45413c" stroke-linecap="round" stroke-linejoin="round" d="M22.0291 67.5149c0.5652 0 1.1072 -0.2245 1.5068 -0.6241 0.3997 -0.3997 0.6242 -0.9417 0.6242 -1.5069 0 -0.5651 -0.2245 -1.1072 -0.6242 -1.5068 -0.3996 -0.3997 -0.9416 -0.6242 -1.5068 -0.6242h-1.522v4.262h1.522Z" stroke-width="1"></path><path stroke="#45413c" stroke-linecap="round" stroke-linejoin="round" d="M29.1261 67.6689h-13.947" stroke-width="1"></path><path fill="#bf8df2" d="M23.1 51.4473c0.0133 -0.1753 0.0638 -0.3457 0.148 -0.5l2.134 -3.876c0.6838 0.2496 1.3435 0.5608 1.971 0.93l-0.853 3.127c-0.0452 0.1655 -0.1249 0.3196 -0.2339 0.4522 -0.1089 0.1326 -0.2446 0.2407 -0.3982 0.3171 -0.1536 0.0765 -0.3217 0.1197 -0.4931 0.1267 -0.1715 0.007 -0.3425 -0.0223 -0.5018 -0.086l-1.739 -0.7" stroke-width="1"></path><path stroke="#45413c" stroke-linecap="round" stroke-linejoin="round" d="M23.1 51.4473c0.0133 -0.1753 0.0638 -0.3457 0.148 -0.5l2.134 -3.876c0.6838 0.2496 1.3435 0.5608 1.971 0.93l-0.853 3.127c-0.0452 0.1655 -0.1249 0.3196 -0.2339 0.4522 -0.1089 0.1326 -0.2446 0.2407 -0.3982 0.3171 -0.1536 0.0765 -0.3217 0.1197 -0.4931 0.1267 -0.1715 0.007 -0.3425 -0.0223 -0.5018 -0.086l-1.739 -0.7" stroke-width="1"></path><path fill="#ffdb94" stroke="#45413c" stroke-linecap="round" stroke-linejoin="round" d="M29.892 38.0005c-0.0028 -0.3489 -0.1264 -0.686 -0.3497 -0.954 -0.2234 -0.2681 -0.5327 -0.4504 -0.8753 -0.516v-0.98c-0.0226 -1.9352 -0.8072 -3.7834 -2.1836 -5.1439 -1.3764 -1.3604 -3.2336 -2.1234 -5.1689 -2.1234 -1.9353 0 -3.7926 0.763 -5.169 2.1234 -1.3764 1.3605 -2.161 3.2087 -2.1835 5.1439v0.981c-0.3584 0.0656 -0.6807 0.2595 -0.9066 0.5454s-0.34 0.6443 -0.3211 1.0081c0.019 0.3639 0.1698 0.7085 0.4243 0.9693 0.2544 0.2608 0.5951 0.4201 0.9584 0.4482 0.3422 1.6566 1.2452 3.1446 2.5568 4.213 1.3116 1.0683 2.9515 1.6517 4.6432 1.6517 1.6916 0 3.3315 -0.5834 4.6431 -1.6517 1.3116 -1.0684 2.2147 -2.5564 2.5569 -4.213 0.3746 -0.0353 0.7228 -0.2085 0.9769 -0.4861 0.2541 -0.2775 0.396 -0.6396 0.3981 -1.0159v0Z" stroke-width="1"></path><path fill="#ffbe3d" d="M17.332 39.839c0.5075 0 0.919 -0.4115 0.919 -0.919 0 -0.5076 -0.4115 -0.919 -0.919 -0.919 -0.5076 0 -0.919 0.4114 -0.919 0.919 0 0.5075 0.4114 0.919 0.919 0.919Z" stroke-width="1"></path><path fill="#ffbe3d" d="M25.2969 39.839c0.5076 0 0.919 -0.4115 0.919 -0.919 0 -0.5076 -0.4114 -0.919 -0.919 -0.919 -0.5075 0 -0.919 0.4114 -0.919 0.919 0 0.5075 0.4115 0.919 0.919 0.919Z" stroke-width="1"></path><path fill="#614b44" stroke="#45413c" stroke-linecap="round" stroke-linejoin="round" d="M21.3139 40.4512c1.839 0 2.279 1.337 3.127 1.839 0.3605 0.2121 0.7729 0.3198 1.191 0.311 0.0558 -0.0009 0.1107 0.0134 0.1589 0.0414 0.0481 0.0281 0.0877 0.0687 0.1145 0.1176 0.0268 0.0489 0.0397 0.1042 0.0373 0.1598 -0.0024 0.0557 -0.0199 0.1097 -0.0507 0.1562 -1.667 2.531 -3.427 -0.174 -4.578 -0.174 -1.151 0 -2.9 2.7 -4.573 0.176 -0.0315 -0.0464 -0.0497 -0.1006 -0.0525 -0.1567 -0.0028 -0.0561 0.0098 -0.1118 0.0365 -0.1612 0.0268 -0.0493 0.0666 -0.0904 0.1151 -0.1186 0.0485 -0.0283 0.1038 -0.0426 0.1599 -0.0415 0.4171 0.0067 0.8281 -0.1013 1.188 -0.312 0.848 -0.5 1.288 -1.837 3.126 -1.837Z" stroke-width="1"></path><path fill="#614b44" stroke="#45413c" stroke-linecap="round" stroke-linejoin="round" d="M14.349 38.7478c-0.1818 0.5264 -0.5409 0.9733 -1.016 1.264 -0.1842 0.1098 -0.3364 0.2661 -0.4413 0.4532 -0.105 0.1871 -0.159 0.3985 -0.1566 0.613 0.0023 0.2145 0.0608 0.4246 0.1698 0.6094 0.1089 0.1848 0.2645 0.3377 0.451 0.4436 0.1866 0.1059 0.3977 0.1609 0.6122 0.1597 0.2145 -0.0013 0.4249 -0.0588 0.6103 -0.1668 0.1853 -0.108 0.339 -0.2628 0.4458 -0.4488 0.1068 -0.186 0.163 -0.3968 0.1628 -0.6113v-4.679l-0.838 2.363Z" stroke-width="1"></path><path fill="#614b44" stroke="#45413c" stroke-linecap="round" stroke-linejoin="round" d="M28.2799 38.7478c0.1828 0.527 0.5435 0.974 1.02 1.264 0.1843 0.1098 0.3364 0.2661 0.4414 0.4532 0.1049 0.1871 0.1589 0.3985 0.1566 0.613 -0.0024 0.2145 -0.0609 0.4246 -0.1699 0.6094 -0.1089 0.1848 -0.2645 0.3377 -0.451 0.4436 -0.1866 0.1059 -0.3977 0.1609 -0.6122 0.1597 -0.2145 -0.0013 -0.4249 -0.0588 -0.6102 -0.1668 -0.1854 -0.108 -0.3391 -0.2628 -0.4459 -0.4488s-0.1629 -0.3968 -0.1628 -0.6113v-4.679l0.834 2.363Z" stroke-width="1"></path><path fill="#614b44" d="M29.5149 36.2881c0.2425 -0.8375 0.3693 -1.7042 0.377 -2.576 0 -4.737 -3.84 -7.965 -8.578 -7.965 -4.738 0 -8.577 3.228 -8.577 7.965 0.0078 0.8718 0.1346 1.7385 0.377 2.576 -0.085 0.108 -0.164 0.207 -0.224 0.287 -0.0134 0.0171 -0.0214 0.0378 -0.023 0.0595 -0.0017 0.0217 0.0032 0.0434 0.0139 0.0624 0.0107 0.0189 0.0268 0.0343 0.0462 0.0441 0.0194 0.0098 0.0413 0.0136 0.0629 0.011 3.522 -0.368 7.443 -1.456 8.322 -4.878 0.88 3.422 4.8 4.51 8.323 4.878 0.0216 0.0026 0.0435 -0.0012 0.063 -0.011 0.0194 -0.0098 0.0355 -0.0252 0.0462 -0.0441 0.0107 -0.019 0.0156 -0.0407 0.0139 -0.0624 -0.0016 -0.0217 -0.0096 -0.0424 -0.0231 -0.0595 -0.056 -0.08 -0.135 -0.175 -0.22 -0.287Z" stroke-width="1"></path><path fill="#947063" d="M21.314 29.4461c4.1 0 7.524 2.415 8.375 6.133 0.1308 -0.6138 0.1979 -1.2395 0.2 -1.867 0 -4.737 -3.84 -7.965 -8.578 -7.965 -4.738 0 -8.577 3.228 -8.577 7.965 0.0022 0.6275 0.0692 1.2532 0.2 1.867 0.857 -3.718 4.283 -6.133 8.38 -6.133Z" stroke-width="1"></path><path stroke="#45413c" stroke-linecap="round" stroke-linejoin="round" d="M29.5149 36.2881c0.2425 -0.8375 0.3693 -1.7042 0.377 -2.576 0 -4.737 -3.84 -7.965 -8.578 -7.965 -4.738 0 -8.577 3.228 -8.577 7.965 0.0078 0.8718 0.1346 1.7385 0.377 2.576 -0.085 0.108 -0.164 0.207 -0.224 0.287 -0.0134 0.0171 -0.0214 0.0378 -0.023 0.0595 -0.0017 0.0217 0.0032 0.0434 0.0139 0.0624 0.0107 0.0189 0.0268 0.0343 0.0462 0.0441 0.0194 0.0098 0.0413 0.0136 0.0629 0.011 3.522 -0.368 7.443 -1.456 8.322 -4.878 0.88 3.422 4.8 4.51 8.323 4.878 0.0216 0.0026 0.0435 -0.0012 0.063 -0.011 0.0194 -0.0098 0.0355 -0.0252 0.0462 -0.0441 0.0107 -0.019 0.0156 -0.0407 0.0139 -0.0624 -0.0016 -0.0217 -0.0096 -0.0424 -0.0231 -0.0595 -0.056 -0.08 -0.135 -0.175 -0.22 -0.287Z" stroke-width="1"></path><path stroke="#45413c" stroke-linecap="round" stroke-linejoin="round" d="M24.378 28.8105c0.4023 0 0.8007 0.0793 1.1723 0.2333 0.3717 0.154 0.7094 0.3797 0.9939 0.6642 0.2844 0.2846 0.51 0.6223 0.6639 0.9941 0.1539 0.3717 0.233 0.7701 0.2329 1.1724 0 2.077 1.761 3.982 2.3 4.7 0.0134 0.0172 0.0214 0.0379 0.023 0.0596 0.0017 0.0217 -0.0032 0.0434 -0.0139 0.0624 -0.0107 0.0189 -0.0268 0.0343 -0.0462 0.0441 -0.0194 0.0098 -0.0413 0.0136 -0.0629 0.0109 -3.522 -0.368 -7.443 -1.456 -8.323 -4.878 -0.879 3.422 -4.8 4.51 -8.322 4.878 -0.0217 0.0027 -0.0436 -0.0011 -0.063 -0.0109s-0.0355 -0.0252 -0.0462 -0.0441c-0.0107 -0.019 -0.0156 -0.0407 -0.0139 -0.0624 0.0016 -0.0217 0.0096 -0.0424 0.0231 -0.0596 0.537 -0.719 2.3 -2.624 2.3 -4.7 -0.0002 -0.4023 0.079 -0.8007 0.2328 -1.1724 0.1539 -0.3718 0.3795 -0.7095 0.6639 -0.9941 0.2845 -0.2845 0.6222 -0.5102 0.9939 -0.6642 0.3716 -0.154 0.77 -0.2333 1.1724 -0.2333" stroke-width="1"></path><path stroke="#45413c" stroke-linecap="round" stroke-linejoin="round" d="M24.627 37.3881c-0.1958 -0.1954 -0.461 -0.3051 -0.7375 -0.3051 -0.2766 0 -0.5418 0.1097 -0.7375 0.3051" stroke-width="1"></path><path stroke="#45413c" stroke-linecap="round" stroke-linejoin="round" d="M19.476 37.3884c-0.0968 -0.0968 -0.2117 -0.1736 -0.3382 -0.226 -0.1264 -0.0524 -0.262 -0.0794 -0.3988 -0.0794 -0.1369 0 -0.2725 0.027 -0.3989 0.0794 -0.1265 0.0524 -0.2414 0.1292 -0.3381 0.226" stroke-width="1"></path><path fill="#fff48c" stroke="#b58b00" stroke-linecap="round" stroke-linejoin="round" d="M34.0081 15.7155c0.0938 -0.4066 0.3001 -0.7787 0.5952 -1.0738 0.295 -0.2951 0.6671 -0.5013 1.0737 -0.5952l3.3481 -0.772c0.0611 -0.0144 0.1155 -0.0491 0.1545 -0.0984 0.039 -0.0493 0.0602 -0.1103 0.0602 -0.1731 0 -0.0628 -0.0212 -0.1238 -0.0602 -0.1731 -0.039 -0.0492 -0.0934 -0.0839 -0.1545 -0.0984l-3.349 -0.772c-0.4066 -0.0938 -0.7786 -0.3 -1.0735 -0.5952 -0.295 -0.2951 -0.501 -0.6672 -0.5945 -1.0738l-0.773 -3.34598c-0.0141 -0.06137 -0.0485 -0.11616 -0.0978 -0.1554 -0.0492 -0.03924 -0.1103 -0.0606 -0.1732 -0.0606 -0.063 0 -0.1241 0.02136 -0.1733 0.0606 -0.0493 0.03924 -0.0837 0.09403 -0.0977 0.1554l-0.772 3.34598c-0.0938 0.4067 -0.3 0.7788 -0.5951 1.0739 -0.2951 0.2952 -0.6673 0.5014 -1.0739 0.5951l-3.347 0.772c-0.0612 0.0145 -0.1156 0.0492 -0.1546 0.0984 -0.039 0.0493 -0.0602 0.1103 -0.0602 0.1731 0 0.0628 0.0212 0.1238 0.0602 0.1731 0.039 0.0493 0.0934 0.084 0.1546 0.0984l3.347 0.772c0.4063 0.0942 0.7781 0.3005 1.073 0.5956 0.2949 0.295 0.501 0.667 0.595 1.0734l0.773 3.349c0.014 0.0614 0.0484 0.1162 0.0977 0.1554 0.0492 0.0393 0.1103 0.0606 0.1733 0.0606 0.0629 0 0.124 -0.0213 0.1732 -0.0606 0.0493 -0.0392 0.0837 -0.094 0.0978 -0.1554l0.773 -3.349Z" stroke-width="1"></path><path fill="#fff48c" stroke="#b58b00" stroke-linecap="round" stroke-linejoin="round" d="M65.841 21.6695c0.1339 -0.5804 0.4282 -1.1114 0.8494 -1.5326s0.9522 -0.7155 1.5326 -0.8494L73 18.1835c0.0856 -0.0224 0.1613 -0.0725 0.2154 -0.1426 0.0541 -0.07 0.0834 -0.156 0.0834 -0.2444 0 -0.0885 -0.0293 -0.1745 -0.0834 -0.2445s-0.1298 -0.1202 -0.2154 -0.1425l-4.781 -1.1c-0.5805 -0.134 -1.1116 -0.4284 -1.5329 -0.8495 -0.4213 -0.4211 -0.7159 -0.9521 -0.8501 -1.5325l-1.1 -4.77904c-0.0224 -0.0856 -0.0725 -0.16137 -0.1425 -0.21544 -0.0701 -0.05408 -0.1561 -0.08341 -0.2445 -0.08341 -0.0885 0 -0.1745 0.02933 -0.2445 0.08341 -0.07 0.05407 -0.1202 0.12984 -0.1425 0.21544l-1.1 4.77904c-0.134 0.5803 -0.4283 1.1114 -0.8495 1.5325 -0.4211 0.4212 -0.9522 0.7155 -1.5325 0.8495l-4.78 1.1c-0.0856 0.0223 -0.1614 0.0725 -0.2155 0.1425 -0.054 0.07 -0.0834 0.156 -0.0834 0.2445 0 0.0884 0.0294 0.1744 0.0834 0.2444 0.0541 0.0701 0.1299 0.1202 0.2155 0.1426l4.779 1.1c0.5806 0.1346 1.1116 0.4297 1.5326 0.8515 0.421 0.4219 0.715 0.9536 0.8484 1.5345l1.1 4.781c0.0223 0.0856 0.0725 0.1613 0.1425 0.2154 0.07 0.0541 0.156 0.0834 0.2445 0.0834 0.0884 0 0.1744 -0.0293 0.2444 -0.0834 0.0701 -0.0541 0.1202 -0.1298 0.1426 -0.2154l1.107 -4.781Z" stroke-width="1"></path></svg>