<svg version="1.2" xmlns="http://www.w3.org/2000/svg" viewBox="0 0 970 250" width="970" height="250">
	<title>logo</title>
	<defs>
		<filter x="-50%" y="-50%" width="200%" height="200%" id="f1" ><feDropShadow dx="0" dy="0" stdDeviation="1.25" flood-color="#00355d" flood-opacity="2"/></filter>
	</defs>
	<style>
		tspan { white-space:pre } 
		.t0 { font-size: 98px;fill: #64b5f6;font-weight: 400;font-family: "Audiowide-Regular", "Audiowide" } 
		.s1 { filter: url(#f1);fill: #64b5f6;stroke: #64b5f6;stroke-width: .4 } 
	</style>
	<text id="INFINITY" style="transform: matrix(1,0,0,1,245,161)" >
		<tspan x="0" y="0" class="t0">I</tspan><tspan  y="0" class="t0">N</tspan><tspan  y="0" class="t0">F</tspan><tspan  y="0" class="t0">I</tspan><tspan  y="0" class="t0">N</tspan><tspan  y="0" class="t0">I</tspan><tspan  y="0" class="t0">T</tspan><tspan  y="0" class="t0">Y
</tspan>
	</text>
	<g id="SVGRepo_bgCarrier">
	</g>
	<g id="SVGRepo_tracerCarrier">
	</g>
	<g id="SVGRepo_iconCarrier">
		<path id="Layer" class="s1" d="m221.2 97.1c-2.5-4-5.5-7.7-8.9-10.9-3.5-3.2-7.3-6-11.5-8.2-4.1-2.2-8.5-3.8-13.1-4.9-4.6-1-9.3-1.4-14-1.2q-5.3 0.3-10.5 1.8-5.2 1.4-9.9 3.9-4.7 2.5-8.8 5.9-4.1 3.5-7.4 7.7c0.8 1.3 1.6 2.5 2.3 3.8l9.6 18.1 1.5-2.8c1.1-2.3 2.5-4.4 4.2-6.4 1.7-1.9 3.6-3.6 5.7-5.1 2.1-1.4 4.4-2.6 6.8-3.5 2.4-0.8 4.9-1.4 7.5-1.6 8.4-0.3 16.6 2.8 22.7 8.7 6.1 5.9 9.6 13.9 9.6 22.4 0 8.5-3.5 16.6-9.6 22.4-6.1 5.9-14.3 9-22.7 8.7-2.6-0.2-5.1-0.7-7.5-1.6-2.4-0.9-4.7-2-6.8-3.5-2.1-1.4-4-3.2-5.7-5.1-1.7-1.9-3.1-4.1-4.2-6.4l-7.7-14.5-13-24.7c-2-4-4.6-7.7-7.5-11-3-3.4-6.4-6.3-10.1-8.8-3.7-2.5-7.7-4.4-11.9-5.9-4.3-1.4-8.7-2.3-13.1-2.6-14.4-0.6-28.5 4.8-38.9 14.8-10.4 10-16.3 23.8-16.3 38.2 0 14.5 5.9 28.3 16.3 38.3 10.4 10 24.5 15.3 38.9 14.7q5.3-0.3 10.5-1.8 5.1-1.4 9.9-3.9 4.7-2.5 8.8-6 4.1-3.4 7.4-7.6c-0.8-1.3-1.6-2.5-2.3-3.8l-9.7-18.2-1.4 2.8c-1.1 2.3-2.6 4.5-4.2 6.4-1.7 2-3.6 3.7-5.7 5.1-2.1 1.5-4.4 2.6-6.8 3.5-2.4 0.9-4.9 1.4-7.5 1.6-2.8 0.2-5.5-0.1-8.2-0.7-2.8-0.6-5.4-1.6-7.8-2.9-2.5-1.3-4.7-3-6.8-4.9-2-1.9-3.7-4.1-5.2-6.4-1.5-2.5-2.6-5.1-3.4-7.8-0.7-2.7-1.1-5.5-1.1-8.4 0-2.8 0.4-5.6 1.1-8.3 0.8-2.8 1.9-5.4 3.4-7.8 1.4-2.3 3.1-4.4 5-6.2 1.9-1.9 4.1-3.5 6.4-4.8 2.3-1.3 4.8-2.3 7.4-3 2.6-0.7 5.3-1 7.9-1h1.4c2.5 0.2 5 0.7 7.4 1.6 2.4 0.9 4.7 2 6.8 3.5 2.1 1.4 4 3.2 5.7 5.1 1.7 1.9 3.1 4.1 4.2 6.4l7.7 14.5 13 24.8c2 3.9 4.5 7.6 7.5 11 3 3.3 6.3 6.3 10.1 8.7 3.7 2.5 7.7 4.5 11.9 5.9 4.2 1.4 8.6 2.3 13.1 2.6h2.3c9.4 0 18.7-2.5 26.8-7.3 8.1-4.8 14.8-11.6 19.4-19.8 4.6-8.3 6.9-17.6 6.8-27-0.2-9.4-2.9-18.6-7.8-26.6z"/>
	</g>
</svg>