<svg version="1.2" xmlns="http://www.w3.org/2000/svg" viewBox="0 0 256 256" width="256" height="256"><style>.a{fill:#64b5f6}</style><path class="a" d="m74.1 251.9c-40.1 0-72.7-32.6-72.7-72.7 0-40.1 32.6-72.7 72.7-72.7 4.5 0 8.9 0.4 13.2 1.1 2.2 0.5 3.7 2.6 3.3 4.9-0.4 2.3-2.5 3.8-4.8 3.4-3.8-0.7-7.7-1.1-11.7-1.1-35.5 0-64.3 28.9-64.3 64.4 0 35.5 28.8 64.4 64.3 64.4 35.6 0 64.4-28.9 64.4-64.4 0-11.4-3-22.7-8.7-32.5-1.2-2-0.5-4.5 1.5-5.7 1.9-1.2 4.5-0.5 5.7 1.5 6.5 11.1 9.9 23.8 9.9 36.7 0 40.1-32.6 72.7-72.8 72.7z"/><path class="a" d="m98.6 192c-2.4 0-4.2 1.8-4.2 4.2 0 4-2.6 7.3-5.7 7.3h-29.1c-3.1 0-5.7-3.3-5.7-7.3v-34c0-4 2.6-7.3 5.7-7.3h29.1c3.1 0 5.7 3.3 5.7 7.3 0 2.3 1.8 4.2 4.2 4.2 2.3 0 4.1-1.9 4.1-4.2 0-8.6-6.3-15.7-14-15.7h-10.4v-7.5c0-2.4-1.8-4.2-4.2-4.2-2.3 0-4.1 1.8-4.1 4.2v7.5h-10.4c-7.7 0-14 7.1-14 15.7v34c0 8.6 6.3 15.7 14 15.7h10.4v7.5c0 2.4 1.8 4.2 4.1 4.2 2.4 0 4.2-1.8 4.2-4.2v-7.5h10.4c7.7 0 14-7.1 14-15.7 0-2.3-1.8-4.2-4.1-4.2z"/><path fill-rule="evenodd" class="a" d="m226 233.9c1.5 6.7-2.7 13.3-9.4 14.9l-12.5 2.8q-1.4 0.3-2.8 0.3c-2.3 0-4.6-0.6-6.6-1.9-2.8-1.7-4.7-4.5-5.5-7.7l-23.9-104.9c-3.9-0.5-7.4-3.4-8.3-7.5l-1.2-5.5-49.2 11.2 0.6-5.8c2-19 16.7-37.5 38.7-48.8l-0.1-0.3c-0.9-4 1-8.1 4.3-10.2l-1.3-5.9c-1.5-6.6 2.7-13.3 9.3-14.8l12.6-2.9c6.7-1.5 13.3 2.7 14.9 9.4l1.3 5.9c3.9 0.4 7.4 3.2 8.3 7.3l0.1 0.3c24.7 0.7 45.9 11 55.9 27.3l3.1 4.9-49.2 11.2 1.3 5.5c0.9 4.1-0.9 8.1-4.3 10.3zm-69.1-171.1l1.3 5.3 20.4-4.6-1.2-5.4c-0.4-1.9-2.1-3.2-3.9-3.2q-0.5 0-0.9 0.1l-12.6 2.9c-2.2 0.5-3.6 2.7-3.1 4.9zm5.2 51.6l3.1 13.6c0.1 0.8 0.8 1.2 1.6 1.1l27.7-6.3 2.7-0.7c0.8-0.1 1.2-0.9 1.1-1.6l-3.1-13.6 45.4-10.3c-10-11.6-27.8-18.6-48-18.6q-0.3 0-0.6 0l-3.4 0.1-1.5-6.8c-0.2-0.6-0.8-1-1.4-0.9l-30.8 7c-0.7 0.2-1.1 0.8-0.9 1.5l1.5 6.7-3 1.4c-18.6 8.8-31.8 22.9-35.9 37.8zm55.8 121.3l-23.7-104.4-20.5 4.7 23.8 104.3c0.2 1.1 0.8 2 1.7 2.6 1 0.6 2 0.7 3.1 0.5l12.6-2.9c2.2-0.5 3.5-2.6 3-4.8z"/><path class="a" d="m47.9 99c-1.4 0-2.7-0.7-3.5-1.9-6.4-9.8-9.8-21.2-9.8-32.9 0-33.3 27.1-60.4 60.4-60.4 23.6 0 45.1 13.8 54.9 35.2 1 2.1 0.1 4.6-2 5.6-2.1 0.9-4.6 0-5.5-2.1-8.5-18.5-27.1-30.4-47.4-30.4-28.7 0-52 23.4-52 52.1 0 10.1 2.9 19.9 8.4 28.3 1.2 2 0.7 4.6-1.3 5.8-0.7 0.5-1.5 0.7-2.2 0.7z"/><path class="a" d="m115 73.9c-2.3 0-4.2 1.9-4.2 4.2 0 2.9-1.8 5.3-3.9 5.3h-23.8c-2.1 0-3.9-2.5-3.9-5.3v-27.8c0-2.9 1.8-5.3 3.9-5.3h23.8c2.1 0 3.9 2.4 3.9 5.3 0 2.3 1.9 4.1 4.2 4.1 2.3 0 4.2-1.8 4.2-4.1 0-7.6-5.5-13.7-12.3-13.7h-7.7v-5.4c0-2.3-1.9-4.2-4.2-4.2-2.3 0-4.2 1.9-4.2 4.2v5.4h-7.7c-6.8 0-12.3 6.1-12.3 13.7v27.8c0 7.5 5.5 13.6 12.3 13.6h7.7v5.5c0 2.3 1.9 4.1 4.2 4.1 2.3 0 4.2-1.8 4.2-4.1v-5.5h7.7c6.8 0 12.3-6.1 12.3-13.6 0-2.3-1.9-4.2-4.2-4.2z"/></svg>