<svg xmlns="http://www.w3.org/2000/svg" viewBox="0 0 100 100" id="Avatar-Network--Streamline-Ux"><desc>Avatar Network Streamline Illustration: https://streamlinehq.com</desc><path stroke="#daedf7" stroke-miterlimit="10" fill="#daedf7" d="M4.3543 50.7184C4.3543 86.9212 43.5451 109.548 74.8977 91.4466C89.4485 83.0457 98.4121 67.5202 98.4121 50.7184C98.4121 14.5155 59.2214 -8.1113 27.8688 9.9901C13.318 18.391 4.3543 33.9166 4.3543 50.7184" stroke-width="1"></path><path stroke="#45413c" stroke-linecap="round" stroke-linejoin="round" fill="none" d="M50.0594 90.7212L70.4041 83.0261M4.9246 36.7402L22.1524 81.2848M49.254 5.5894L27.188 17.7711M4.9246 36.7402L27.188 17.7711M67.727 12.7613L49.254 5.5894M77.7429 23.6321L67.727 12.7613M91.6705 28.4137L77.7429 23.6321M85.6344 47.7085L70.4041 83.026M92.3101 73.1535L70.4041 83.026M27.188 17.7711L67.727 12.7613M26.9541 62.7425L22.1524 81.2848M4.9246 36.7402L26.9541 62.7425M50.0594 90.7212L26.9541 62.7425M27.4302 38.6437L50.0594 34.203M67.727 12.7614L54.5342 56.9426M85.6344 47.7085L77.7429 23.6321" stroke-width="1"></path><path fill="#ffe500" stroke="#45413c" stroke-linecap="round" stroke-linejoin="round" d="M92.3101 73.1535L54.5342 56.9426" stroke-width="1"></path><path stroke="#45413c" stroke-linecap="round" stroke-linejoin="round" fill="none" d="M54.5342 56.9426L50.0594 34.203L67.727 12.7613" stroke-width="1"></path><path fill="#ffe500" stroke="#45413c" stroke-linecap="round" stroke-linejoin="round" d="M50.0594 34.203L85.6344 47.7085M92.3101 73.1535L85.6344 47.7085" stroke-width="1"></path><path stroke="#45413c" stroke-linecap="round" stroke-linejoin="round" fill="none" d="M70.4041 83.026L54.5342 56.9426M54.5048 56.7522L50.0594 90.7212L22.1524 81.2848" stroke-width="1"></path><path fill="#ffe500" stroke="#45413c" stroke-linecap="round" stroke-linejoin="round" d="M54.5048 56.7522L26.9541 62.7425M91.6705 28.4137L85.6344 47.7085" stroke-width="1"></path><path fill="#ff6242" stroke="#45413c" stroke-linecap="round" stroke-linejoin="round" d="M46.7227 34.203C46.7227 36.7716 49.5033 38.377 51.7277 37.0927C52.7601 36.4966 53.3961 35.3951 53.3961 34.203C53.3961 31.6344 50.6155 30.029 48.391 31.3133C47.3586 31.9094 46.7227 33.0109 46.7227 34.203" stroke-width="1"></path><path fill="#ffffff" stroke="#45413c" stroke-linecap="round" stroke-linejoin="round" d="M54.5342 56.9426L77.7429 23.6321" stroke-width="1"></path><path fill="#ffe500" stroke="#45413c" stroke-linecap="round" stroke-linejoin="round" d="M27.4302 38.6437L54.5342 56.9426M27.4302 38.6437L27.188 17.7711M27.4302 38.6437L49.254 5.5894M27.4302 38.6437L4.9246 36.7402M27.4302 38.6437L26.9541 62.7425" stroke-width="1"></path><path fill="#ffe500" stroke="#45413c" stroke-linecap="round" stroke-linejoin="round" d="M74.4062 23.6321C74.4062 26.2007 77.1868 27.806 79.4113 26.5217C80.4437 25.9257 81.0796 24.8242 81.0796 23.6321C81.0796 21.0635 78.299 19.4581 76.0746 20.7424C75.0422 21.3385 74.4062 22.44 74.4062 23.6321" stroke-width="1"></path><path fill="#ff6242" stroke="#45413c" stroke-linecap="round" stroke-linejoin="round" d="M88.3338 28.4137C88.3338 30.9823 91.1144 32.5877 93.3389 31.3034C94.3713 30.7074 95.0072 29.6058 95.0072 28.4137C95.0072 25.8451 92.2267 24.2398 90.0022 25.5241C88.9698 26.1201 88.3338 27.2216 88.3338 28.4137" stroke-width="1"></path><path fill="#4acfff" stroke="#45413c" stroke-linecap="round" stroke-linejoin="round" d="M88.9734 73.1535C88.9734 75.7221 91.754 77.3275 93.9785 76.0432C95.0109 75.4471 95.6468 74.3456 95.6468 73.1535C95.6468 70.5849 92.8663 68.9795 90.6418 70.2638C89.6094 70.8599 88.9734 71.9614 88.9734 73.1535" stroke-width="1"></path><path fill="#4acfff" stroke="#45413c" stroke-linecap="round" stroke-linejoin="round" d="M64.3903 12.7613C64.3903 15.3299 67.1708 16.9353 69.3953 15.651C70.4277 15.055 71.0637 13.9534 71.0637 12.7613C71.0637 10.1928 68.2831 8.5874 66.0586 9.8717C65.0262 10.4677 64.3903 11.5693 64.3903 12.7613" stroke-width="1"></path><path fill="#4acfff" stroke="#45413c" stroke-linecap="round" stroke-linejoin="round" d="M23.8384 17.7711C23.8384 20.3397 26.619 21.9451 28.8435 20.6608C29.8758 20.0647 30.5118 18.9632 30.5118 17.7711C30.5118 15.2025 27.7312 13.5971 25.5068 14.8814C24.4744 15.4775 23.8384 16.579 23.8384 17.7711" stroke-width="1"></path><path fill="#ffe500" stroke="#45413c" stroke-linecap="round" stroke-linejoin="round" d="M1.5879 36.8789C1.5879 39.4475 4.3684 41.0529 6.5929 39.7686C7.6253 39.1726 8.2613 38.071 8.2613 36.8789C8.2613 34.3103 5.4807 32.705 3.2562 33.9893C2.2238 34.5853 1.5879 35.6868 1.5879 36.8789" stroke-width="1"></path><path fill="#ffe500" stroke="#45413c" stroke-linecap="round" stroke-linejoin="round" d="M45.9173 5.5894C45.9173 8.158 48.6979 9.7634 50.9224 8.4791C51.9547 7.8831 52.5907 6.7815 52.5907 5.5894C52.5907 3.0208 49.8101 1.4155 47.5857 2.6998C46.5533 3.2958 45.9173 4.3973 45.9173 5.5894" stroke-width="1"></path><path fill="#ffe500" stroke="#45413c" stroke-linecap="round" stroke-linejoin="round" d="M46.7227 90.573C46.7227 93.1416 49.5033 94.747 51.7277 93.4627C52.7601 92.8666 53.3961 91.7651 53.3961 90.573C53.3961 88.0044 50.6155 86.3991 48.391 87.6833C47.3586 88.2794 46.7227 89.3809 46.7227 90.573" stroke-width="1"></path><path fill="#ff6242" stroke="#45413c" stroke-linecap="round" stroke-linejoin="round" d="M18.8157 81.2848C18.8157 83.8534 21.5963 85.4588 23.8208 84.1745C24.8531 83.5784 25.4891 82.4769 25.4891 81.2848C25.4891 78.7162 22.7085 77.1108 20.4841 78.3951C19.4517 78.9912 18.8157 80.0927 18.8157 81.2848" stroke-width="1"></path><path fill="#4acfff" stroke="#45413c" stroke-linecap="round" stroke-linejoin="round" d="M23.6174 62.7425C23.6174 65.3111 26.398 66.9164 28.6224 65.6322C29.6548 65.0361 30.2908 63.9346 30.2908 62.7425C30.2908 60.1739 27.5102 58.5685 25.2857 59.8528C24.2533 60.4489 23.6174 61.5504 23.6174 62.7425" stroke-width="1"></path><path d="M24.7108 36.2276C24.6674 38.3215 26.9069 39.6772 28.742 38.6678C29.6291 38.1799 30.1719 37.2398 30.1509 36.2276V34.8673C30.1943 32.7734 27.9547 31.4177 26.1197 32.427C25.2326 32.9149 24.6898 33.8551 24.7108 34.8673Z" fill="#daedf7" stroke-width="1"></path><g stroke="#45413c" stroke-linecap="round" stroke-linejoin="round"><path fill="#ffffff" d="M18.9756 36.4239C18.9756 42.9323 26.0211 47 31.6576 43.7458C34.2734 42.2356 35.8849 39.4445 35.8849 36.4239C35.8849 29.9156 28.8393 25.8478 23.2029 29.102C20.5871 30.6123 18.9756 33.4034 18.9756 36.4239" stroke-width="1"></path><path d="M24.7108 36.2276C24.6674 38.3215 26.9069 39.6772 28.742 38.6678C29.6291 38.1799 30.1719 37.2398 30.1509 36.2276V34.8673C30.1943 32.7734 27.9547 31.4177 26.1197 32.427C25.2326 32.9149 24.6898 33.8551 24.7108 34.8673Z" fill="#ffcebf" stroke-width="1"></path><path d="M33.0831 42.7105C29.8694 45.5967 24.997 45.5967 21.7832 42.7105C23.6075 38.3662 29.4505 37.6257 32.3007 41.3777C32.6122 41.7878 32.8708 42.2356 33.0702 42.7105" fill="#9ceb60" stroke-width="1"></path><path d="M24.7331 34.5157C25.0024 32.4397 27.4181 31.4336 29.0813 32.7048C29.3184 32.886 29.524 33.105 29.69 33.3529C28.3786 34.625 26.4734 35.072 24.7331 34.5157Z" fill="#a86c4d" stroke-width="1"></path></g><g stroke="#45413c" stroke-linecap="round" stroke-linejoin="round"><path fill="#ffffff" d="M42.1115 56.9426C42.1115 66.5065 52.4647 72.484 60.7473 67.702C64.5912 65.4827 66.9592 61.3813 66.9592 56.9426C66.9592 47.3788 56.606 41.4013 48.3234 46.1833C44.4795 48.4026 42.1115 52.504 42.1115 56.9426" stroke-width="1"></path><path d="M50.5379 56.6546C50.5428 59.7318 53.877 61.6498 56.5395 60.107C57.7713 59.3932 58.5305 58.0782 58.5328 56.6546V54.6559C58.5279 51.5786 55.1937 49.6606 52.5311 51.2034C51.2994 51.9172 50.5401 53.2322 50.5379 54.6559Z" fill="#ffcebf" stroke-width="1"></path><path d="M62.8395 66.1826C58.1171 70.4252 50.9559 70.4252 46.2336 66.1826C48.8965 59.7924 57.4784 58.6811 61.6811 64.1824C62.1473 64.7927 62.5335 65.4601 62.8301 66.1685" fill="#ff6242" stroke-width="1"></path><path d="M50.5708 54.1397C50.9642 51.0877 54.5139 49.606 56.9603 51.4727C57.3112 51.7404 57.6153 52.0643 57.8603 52.4314C55.9318 54.3022 53.1297 54.9588 50.5708 54.1397Z" fill="#a86c4d" stroke-width="1"></path></g><g stroke="#45413c" stroke-linecap="round" stroke-linejoin="round"><path fill="#ffffff" d="M77.1798 47.0995C77.1798 53.6079 84.2253 57.6756 89.8617 54.4214C92.4776 52.9111 94.089 50.12 94.089 47.0995C94.089 40.5911 87.0435 36.5234 81.4071 39.7776C78.7912 41.2878 77.1798 44.0789 77.1798 47.0995" stroke-width="1"></path><path d="M82.9138 46.9031C82.9138 48.9975 85.1809 50.3064 86.9947 49.2593C87.8365 48.7733 88.355 47.8751 88.355 46.9031V45.5428C88.355 43.4485 86.0878 42.1395 84.2741 43.1867C83.4323 43.6727 82.9138 44.5708 82.9138 45.5428Z" fill="#ffcebf" stroke-width="1"></path><path d="M91.2861 53.3873C88.0724 56.2747 83.1988 56.2747 79.985 53.3873C81.7981 49.0382 87.6392 48.2827 90.499 52.0274C90.816 52.4424 91.0785 52.8962 91.2802 53.3778" fill="#ffaa54" stroke-width="1"></path><path d="M82.9361 45.1913C83.2067 43.1145 85.624 42.1095 87.2873 43.3822C87.5235 43.563 87.7285 43.7814 87.8941 44.0285C86.582 45.3001 84.6768 45.7469 82.9361 45.1913Z" fill="#a86c4d" stroke-width="1"></path></g><g stroke="#45413c" stroke-linecap="round" stroke-linejoin="round"><path fill="#ffffff" d="M61.9495 82.9967C61.9495 89.505 68.995 93.5728 74.6314 90.3186C77.2472 88.8083 78.8587 86.0172 78.8587 82.9967C78.8587 76.4883 71.8132 72.4206 66.1768 75.6747C63.5609 77.185 61.9495 79.9761 61.9495 82.9967" stroke-width="1"></path><path d="M67.6835 82.8027C67.6835 84.897 69.9506 86.206 71.7644 85.1588C72.6061 84.6728 73.1247 83.7746 73.1247 82.8027V81.4412C73.1247 79.3468 70.8575 78.0379 69.0438 79.085C68.202 79.571 67.6835 80.4692 67.6835 81.4412Z" fill="#ffcebf" stroke-width="1"></path><path d="M76.0558 89.2856C72.8414 92.1714 67.9691 92.1714 64.7547 89.2856C66.5673 84.9364 72.4083 84.1803 75.2686 87.9246C75.5855 88.3396 75.8481 88.7934 76.0499 89.275" fill="#00b8f0" stroke-width="1"></path><path d="M67.7058 81.0896C67.9764 79.0129 70.3937 78.0078 72.057 79.2806C72.2932 79.4614 72.4982 79.6797 72.6638 79.9268C71.3517 81.1984 69.4465 81.6452 67.7058 81.0896Z" fill="#a86c4d" stroke-width="1"></path></g></svg>