<svg viewBox="-2 -2 400 400" xmlns="http://www.w3.org/2000/svg" id="App-Working-1--Streamline-Ux.svg" height="400" width="400"><desc>App Working 1 Streamline Illustration: https://streamlinehq.com</desc><path d="M11.0682 208.28412a158.4 158.4 0 1 0 316.8 0 158.4 158.4 0 1 0 -316.8 0Z" fill="#daedf7" stroke="#daedf7" stroke-width="4"></path><path d="M101.8908 336.96432a46.442879999999995 8.0784 0 1 0 92.88575999999999 0 46.442879999999995 8.0784 0 1 0 -92.88575999999999 0Z" fill="#45413c" opacity=".15" stroke-width="4"></path><path d="m27.09432 118.36836 244.48248 0 0 174.63204 -244.48248 0Z" fill="#00b8f0" stroke-width="4"></path><path d="M27.09432 266.22684V136.59228000000002a18.215999999999998 18.215999999999998 0 0 1 18.215999999999998 -18.215999999999998H174.9528Z" fill="#4acfff" stroke-width="4"></path><path d="M271.58076 226.64267999999998a14.01444 14.01444 0 0 1 -13.97088 13.97088h-174.636a14.01048 14.01048 0 0 1 -13.97088 -13.97088V118.36836h184.35384000000002a18.215999999999998 18.215999999999998 0 0 1 18.215999999999998 18.215999999999998Z" fill="#00b8f0" stroke-width="4"></path><path d="m210.99276 292.43808 0 0.5623199999999999h42.372a18.215999999999998 18.215999999999998 0 0 0 18.215999999999998 -18.215999999999998V205.24284a93.18672 93.18672 0 0 0 -60.588 87.19524Z" fill="#009fd9" stroke-width="4"></path><path d="M271.58076 265.28832v9.504a18.215999999999998 18.215999999999998 0 0 1 -18.215999999999998 18.215999999999998H45.31824a18.215999999999998 18.215999999999998 0 0 1 -18.215999999999998 -18.215999999999998v-9.504Z" fill="#ffffff" stroke-width="4"></path><path d="m210.99276 292.43808 0 0.5623199999999999h42.372a18.215999999999998 18.215999999999998 0 0 0 18.215999999999998 -18.215999999999998v-9.504H215.028a92.73528 92.73528 0 0 0 -4.03524 27.15768Z" fill="#f8f8f8" stroke-width="4"></path><path d="M271.58076 265.28832v9.504a18.215999999999998 18.215999999999998 0 0 1 -18.215999999999998 18.215999999999998H45.31824a18.215999999999998 18.215999999999998 0 0 1 -18.215999999999998 -18.215999999999998v-9.504Z" fill="none" stroke="#45413c" stroke-linecap="round" stroke-linejoin="round" stroke-width="4"></path><path d="m27.09432 118.36836 244.48248 0 0 174.63204 -244.48248 0Z" fill="none" stroke="#45413c" stroke-linecap="round" stroke-linejoin="round" stroke-width="4"></path><path d="m170.29188 320.94216 -41.90868 0 3.49272 -27.94176 34.92324 0 3.49272 27.94176z" fill="#e0e0e0" stroke-width="4"></path><path d="m168.10992 303.47855999999996 -37.54476 0 1.3107600000000001 -10.478159999999999 34.92324 0 1.3107600000000001 10.478159999999999z" fill="#87898c" stroke-width="4"></path><path d="M193.53707999999997 329.23044a4.03524 4.03524 0 0 1 -3.6907200000000002 5.6826H108.82871999999999a4.03524 4.03524 0 0 1 -3.6907200000000002 -5.6826 13.97088 13.97088 0 0 1 12.767040000000001 -8.28828h62.865a13.97088 13.97088 0 0 1 12.767040000000001 8.28828Z" fill="#ffffff" stroke="#45413c" stroke-linecap="round" stroke-linejoin="round" stroke-width="4"></path><path d="m170.29188 320.94216 -41.90868 0 3.49272 -27.94176 34.92324 0 3.49272 27.94176z" fill="none" stroke="#45413c" stroke-linecap="round" stroke-linejoin="round" stroke-width="4"></path><path d="M290.59272000000004 227.80296H93.57876a13.80852 13.80852 0 0 1 -13.673879999999999 -13.170960000000001V69.21683999999999l224.136 -0.24948v145.4112a13.464 13.464 0 0 1 -13.44816 13.4244Z" fill="#b8ecff" stroke-width="4"></path><path d="M237.17628 227.80296h53.41644a13.464 13.464 0 0 0 13.42836 -13.4244v-14.972760000000001a92.75112 92.75112 0 0 0 -66.84479999999999 28.39716Z" fill="#4acfff" stroke-width="4"></path><path d="M290.59272000000004 227.80296H93.57876a13.80852 13.80852 0 0 1 -13.673879999999999 -13.170960000000001V69.21683999999999l224.136 -0.24948v145.4112a13.464 13.464 0 0 1 -13.44816 13.4244Z" fill="none" stroke="#45413c" stroke-linecap="round" stroke-linejoin="round" stroke-width="4"></path><path d="m304.02108 68.96736 -224.1162 0.24948 0.24948 -33.141239999999996a13.464 13.464 0 0 1 13.4244 -13.4244h197.01396a13.464 13.464 0 0 1 13.42836 13.4244Z" fill="#ffffff" stroke="#45413c" stroke-linecap="round" stroke-linejoin="round" stroke-width="4"></path><path d="M95.59440000000001 45.80928a7.71804 7.71804 0 1 0 15.43608 0 7.71804 7.71804 0 1 0 -15.43608 0Z" fill="#ff6242" stroke="#ff6242" stroke-linecap="round" stroke-linejoin="round" stroke-width="4"></path><path d="M141.91056 45.80928a8.1576 8.1576 0 0 1 -7.97148 7.97148 7.84872 7.84872 0 1 1 7.97148 -7.97148Z" fill="#ffe500" stroke="#ffe500" stroke-linecap="round" stroke-linejoin="round" stroke-width="4"></path><path d="M157.3506 45.80928a7.71804 7.71804 0 1 0 15.43608 0 7.71804 7.71804 0 1 0 -15.43608 0Z" fill="#6dd627" stroke="#6dd627" stroke-linecap="round" stroke-linejoin="round" stroke-width="4"></path><path d="m108.8802 171.43236 121.15224 0" fill="none" stroke="#45413c" stroke-linecap="round" stroke-linejoin="round" stroke-width="4"></path><path d="m108.8802 191.6244 121.15224 0" fill="none" stroke="#45413c" stroke-linecap="round" stroke-linejoin="round" stroke-width="4"></path><path d="m242.14608 191.6244 16.152839999999998 0" fill="none" stroke="#45413c" stroke-linecap="round" stroke-linejoin="round" stroke-width="4"></path><path d="M127.95156 94.02228a26.77356 26.77356 0 1 0 26.7696 26.77356 26.77356 26.77356 0 0 0 -26.7696 -26.77356Zm14.49756 30.068279999999998a14.8698 14.8698 0 1 1 -11.20284 -17.796239999999997 14.8698 14.8698 0 0 1 11.20284 17.796239999999997Z" fill="#ffffff" stroke="#45413c" stroke-linecap="round" stroke-linejoin="round" stroke-width="4"></path><path d="M101.178 120.79584a26.77356 26.77356 0 1 0 53.54712 0 26.77356 26.77356 0 1 0 -53.54712 0Z" fill="none" stroke="#45413c" stroke-linecap="round" stroke-linejoin="round" stroke-width="4"></path><path d="M119.38607999999999 108.63864000000001a14.8698 14.8698 0 0 1 17.56656 23.99364l7.2665999999999995 9.428759999999999a26.77356 26.77356 0 1 0 -32.622479999999996 -42.46704Z" fill="#9ceb60" stroke="#45413c" stroke-linecap="round" stroke-linejoin="round" stroke-width="4"></path><path d="M216.70703999999998 106.63488a26.77356 26.77356 0 1 0 -8.56152 36.88344 26.77356 26.77356 0 0 0 8.56152 -36.88344Zm-17.84772 28.211039999999997a14.8698 14.8698 0 1 1 9.175320000000001 -18.92484 14.873759999999999 14.873759999999999 0 0 1 -9.175320000000001 18.92484Z" fill="#ffffff" stroke="#45413c" stroke-linecap="round" stroke-linejoin="round" stroke-width="4"></path><path d="M167.211 120.79584a26.77356 26.77356 0 1 0 53.54712 0 26.77356 26.77356 0 1 0 -53.54712 0Z" fill="none" stroke="#45413c" stroke-linecap="round" stroke-linejoin="round" stroke-width="4"></path><path d="M199.77012000000002 107.0982a14.8698 14.8698 0 0 1 -11.06424 27.6012L184.536 145.85076a26.77356 26.77356 0 1 0 18.78228 -50.14548Z" fill="#9ceb60" stroke="#45413c" stroke-linecap="round" stroke-linejoin="round" stroke-width="4"></path><path d="M241.26299999999998 136.11708A26.77356 26.77356 0 1 0 247.89600000000002 98.8416a26.77356 26.77356 0 0 0 -6.633 37.27548Zm16.35876 -29.09808a14.8698 14.8698 0 1 1 -8.18136 19.372320000000002 14.873759999999999 14.873759999999999 0 0 1 8.18136 -19.372320000000002Z" fill="#ffffff" stroke="#45413c" stroke-linecap="round" stroke-linejoin="round" stroke-width="4"></path><path d="M236.44368 120.79584a26.77356 26.77356 0 1 0 53.54712 0 26.77356 26.77356 0 1 0 -53.54712 0Z" fill="none" stroke="#45413c" stroke-linecap="round" stroke-linejoin="round" stroke-width="4"></path><path d="M258.1524 134.77464a14.8698 14.8698 0 0 1 9.618839999999999 -28.116l3.564 -11.35332a26.77356 26.77356 0 1 0 -16.1568 51.052319999999995Z" fill="#9ceb60" stroke="#45413c" stroke-linecap="round" stroke-linejoin="round" stroke-width="4"></path><path d="M223.1064 292.43808a80.91468 80.91468 0 1 0 161.82936 0 80.91468 80.91468 0 1 0 -161.82936 0Z" fill="#ffffff" stroke-width="4"></path><path d="M224.5518 277.13268a80.87112 80.87112 0 0 0 158.9346 0 80.91468 80.91468 0 1 1 -158.9346 0Z" fill="#daedf7" stroke-width="4"></path><path d="M223.1064 292.43808a80.91468 80.91468 0 1 0 161.82936 0 80.91468 80.91468 0 1 0 -161.82936 0Z" fill="none" stroke="#45413c" stroke-linecap="round" stroke-linejoin="round" stroke-width="4"></path><path d="M306.29807999999997 296.07732h-5.833080000000001a19.8 19.8 0 0 1 -19.8 -19.8v-16.54488h45.433080000000004v16.54488a19.8 19.8 0 0 1 -19.8 19.8Z" fill="#daedf7" stroke-width="4"></path><path d="M306.29807999999997 296.07732h-5.833080000000001a19.8 19.8 0 0 1 -19.8 -19.8v-16.54488h45.433080000000004v16.54488a19.8 19.8 0 0 1 -19.8 19.8Z" fill="none" stroke="#45413c" stroke-linecap="round" stroke-linejoin="round" stroke-width="4"></path><path d="M306.29807999999997 296.07732h-5.833080000000001a19.8 19.8 0 0 0 -19.8 19.8v16.54488h45.433080000000004v-16.54488a19.8 19.8 0 0 0 -19.8 -19.8Z" fill="#daedf7" stroke-width="4"></path><path d="M306.29807999999997 296.07732h-5.833080000000001a19.8 19.8 0 0 0 -19.8 19.8v16.54488h45.433080000000004v-16.54488a19.8 19.8 0 0 0 -19.8 -19.8Z" fill="none" stroke="#45413c" stroke-linecap="round" stroke-linejoin="round" stroke-width="4"></path><path d="m326.09808 323.60328 -3.5877600000000003 -1.12068a63.894600000000004 63.894600000000004 0 0 0 -41.671079999999996 1.25136l-0.17423999999999998 0.06336v8.62488h45.433080000000004Z" fill="#ffe500" stroke="#45413c" stroke-linecap="round" stroke-linejoin="round" stroke-width="4"></path><path d="m271.58076 246.10211999999999 63.605520000000006 0 0 13.630320000000001 -63.605520000000006 0Z" fill="#bf8256" stroke-width="4"></path><path d="M334.41012 256.63968a6.7914 6.7914 0 0 0 -6.04296 -3.7224H278.388a6.7914 6.7914 0 0 0 -6.039 3.7224 6.0192 6.0192 0 0 1 -0.7722 -2.96604v-1.51272a6.0548399999999996 6.0548399999999996 0 0 1 6.0548399999999996 -6.0588h51.48a6.0588 6.0588 0 0 1 6.0548399999999996 6.0588v1.51272a6.0588 6.0588 0 0 1 -0.75636 2.96604Z" fill="#e09f7e" stroke-width="4"></path><path d="m271.58076 246.10211999999999 63.605520000000006 0 0 13.630320000000001 -63.605520000000006 0Z" fill="none" stroke="#45413c" stroke-linecap="round" stroke-linejoin="round" stroke-width="4"></path><path d="m271.58076 332.4222 63.605520000000006 0 0 13.630320000000001 -63.605520000000006 0Z" fill="#bf8256" stroke-width="4"></path><path d="M272.35296 335.51892000000004a6.79536 6.79536 0 0 0 6.039 3.7184399999999997h49.975199999999994a6.79536 6.79536 0 0 0 6.04296 -3.7184399999999997 6.03504 6.03504 0 0 1 0.7722 2.96208v1.51272a6.0588 6.0588 0 0 1 -6.0548399999999996 6.0588h-51.48a6.0548399999999996 6.0548399999999996 0 0 1 -6.0548399999999996 -6.0588v-1.51272a5.991479999999999 5.991479999999999 0 0 1 0.76032 -2.96208Z" fill="#e09f7e" stroke-width="4"></path><path d="m271.58076 332.4222 63.605520000000006 0 0 13.630320000000001 -63.605520000000006 0Z" fill="none" stroke="#45413c" stroke-linecap="round" stroke-linejoin="round" stroke-width="4"></path><path d="m280.665 275.29524000000004 1.82952 -0.4554a22.12848 22.12848 0 0 1 17.028 2.6888400000000003 22.14828 22.14828 0 0 0 19.6218 1.8730799999999999l6.93792 -2.66112a20.195999999999998 20.195999999999998 0 0 1 -20.172240000000002 19.33668h-5.05296a20.195999999999998 20.195999999999998 0 0 1 -20.195999999999998 -20.195999999999998" fill="#ffe500" stroke="#45413c" stroke-linecap="round" stroke-linejoin="round" stroke-width="4"></path><path d="M153.37476 279.14436a4.0392 4.0392 0 1 1 -4.0392 -4.0392 4.0392 4.0392 0 0 1 4.0392 4.0392Z" fill="#45413c" stroke-width="4"></path></svg>