<svg viewBox="0 0 100 100" xmlns="http://www.w3.org/2000/svg" id="Pyramid-Chart--Streamline-Ux"><desc>Pyramid Chart Streamline Illustration: https://streamlinehq.com</desc><path d="M5.7428 50C5.7428 85.6718 44.3586 107.9666 75.2513 90.1307C89.5886 81.8531 98.4208 66.5553 98.4208 50C98.4208 14.3282 59.8049 -7.9666 28.9123 9.8693C14.575 18.1469 5.7428 33.4447 5.7428 50Z" fill="#daedf7" stroke="#daedf7" stroke-width="1"></path><path d="M19.2715 79.0719C19.2571 82.1433 48.3885 84.0646 71.7081 82.5304C82.5423 81.8176 89.2153 80.4989 89.2086 79.0719C89.223 76.0006 60.0915 74.0792 36.7719 75.6135C25.9377 76.3263 19.2648 77.645 19.2715 79.0719Z" fill="#45413c" opacity=".15" stroke-width="1"></path><path d="M26.2883 66.0206L19.3966 77.8984H88.6873L81.7966 66.0206H26.2883Z" fill="#ff6242" stroke="#45413c" stroke-linecap="round" stroke-linejoin="round" stroke-width="1"></path><path d="M26.2883 66.0206H81.7967L74.9049 54.1416H33.1801L26.2883 66.0206Z" fill="#ffe500" stroke="#45413c" stroke-linecap="round" stroke-linejoin="round" stroke-width="1"></path><path d="M33.1801 54.1416H74.9049L68.012 42.2637H40.0719L33.1801 54.1416Z" fill="#6dd627" stroke="#45413c" stroke-linecap="round" stroke-linejoin="round" stroke-width="1"></path><path d="M68.012 42.2637L61.6936 31.3741C61.3395 30.7635 60.6872 30.3875 59.9814 30.387H48.1036C47.3978 30.3875 46.7455 30.7635 46.3914 31.3741L40.0719 42.2637Z" fill="#00dfeb" stroke="#45413c" stroke-linecap="round" stroke-linejoin="round" stroke-width="1"></path><path d="M58.9921 35.3349H73.8391L79.7786 28.406" fill="none" stroke="#45413c" stroke-linecap="round" stroke-linejoin="round" stroke-width="1"></path><path d="M67.9008 60.0811H85.7181L91.6576 53.1522" fill="none" stroke="#45413c" stroke-linecap="round" stroke-linejoin="round" stroke-width="1"></path><path d="M45.1333 48.2032H25.3361L21.3764 41.2744" fill="none" stroke="#45413c" stroke-linecap="round" stroke-linejoin="round" stroke-width="1"></path><path d="M30.2851 71.96H9.4986L5.5389 65.03" fill="none" stroke="#45413c" stroke-linecap="round" stroke-linejoin="round" stroke-width="1"></path><path d="M87.6979 53.1522C87.6931 56.2004 90.9898 58.1107 93.632 56.5908C94.8621 55.8832 95.6195 54.5714 95.6173 53.1522C95.6221 50.1041 92.3254 48.1937 89.6832 49.7136C88.4531 50.4212 87.6957 51.7331 87.6979 53.1522Z" fill="#ffe500" stroke="#45413c" stroke-linecap="round" stroke-linejoin="round" stroke-width="1"></path><path d="M75.8189 28.406C75.8141 31.4542 79.1108 33.3645 81.753 31.8446C82.9831 31.137 83.7405 29.8252 83.7383 28.406C83.7431 25.3579 80.4464 23.4475 77.8042 24.9674C76.5741 25.675 75.8167 26.9869 75.8189 28.406Z" fill="#00dfeb" stroke="#45413c" stroke-linecap="round" stroke-linejoin="round" stroke-width="1"></path><path d="M17.4167 41.2744C17.4119 44.3225 20.7086 46.2329 23.3508 44.713C24.5809 44.0054 25.3383 42.6935 25.3361 41.2744C25.3409 38.2262 22.0442 36.3159 19.402 37.8358C18.1719 38.5434 17.4145 39.8552 17.4167 41.2744Z" fill="#6dd627" stroke="#45413c" stroke-linecap="round" stroke-linejoin="round" stroke-width="1"></path><path d="M1.5792 65.0301C1.5744 68.0782 4.8711 69.9885 7.5133 68.4687C8.7434 67.761 9.5008 66.4492 9.4986 65.0301C9.5034 61.9819 6.2067 60.0716 3.5645 61.5914C2.3344 62.2991 1.577 63.6109 1.5792 65.0301Z" fill="#ff6242" stroke="#45413c" stroke-linecap="round" stroke-linejoin="round" stroke-width="1"></path><path d="M40.5967 19.1869C40.5879 29.0929 51.3061 35.2937 59.8893 30.3482C63.8799 28.049 66.3374 23.7924 66.3333 19.1869C66.3421 9.2808 55.6239 3.0801 47.0407 8.0256C43.0501 10.3248 40.5926 14.5814 40.5967 19.1869Z" fill="#f8f8f8" stroke-width="1"></path><path d="M53.465 12.2581C59.4254 12.259 64.604 16.3558 65.9765 22.1561C68.2931 12.5247 59.3147 3.9973 49.8154 6.8068C43.2472 8.7494 39.3517 15.4966 40.9535 22.1561C42.326 16.3558 47.5046 12.259 53.465 12.2581Z" fill="#ffffff" stroke-width="1"></path><path d="M40.5967 19.1869C40.5879 29.0929 51.3061 35.2937 59.8893 30.3482C63.8799 28.049 66.3374 23.7924 66.3333 19.1869C66.3421 9.2808 55.6239 3.0801 47.0407 8.0256C43.0501 10.3248 40.5926 14.5814 40.5967 19.1869Z" fill="none" stroke="#45413c" stroke-linejoin="round" stroke-width="1"></path><path d="M53.9388 25.0766C53.18 25.0777 52.452 24.7763 51.9161 24.239L46.1933 18.5161C44.6479 16.9465 45.3812 14.2925 47.5133 13.739C48.4874 13.4862 49.5227 13.7636 50.2398 14.4696L53.9388 18.1698L63.3607 8.7479C64.9468 7.2194 67.5927 7.9811 68.1234 10.119C68.3605 11.0742 68.09 12.0843 67.4072 12.7933L55.9615 24.239C55.4256 24.7763 54.6976 25.0777 53.9388 25.0766Z" fill="#6dd627" stroke="#45413c" stroke-width="1"></path></svg>