<svg viewBox="0 0 100 100" xmlns="http://www.w3.org/2000/svg" id="Nfc-Payment-2--Streamline-Ux"><desc>NFC Payment 2 Streamline Illustration: https://streamlinehq.com</desc><path d="M10.026 55.257a40 40 0 1 0 80 0 40 40 0 1 0 -80 0Z" fill="#daedf7" stroke="#daedf7" stroke-width="1"></path><path d="M48.651 64.589a1.445 1.445 0 0 1 -1.024 -0.424 16.813 16.813 0 0 1 0 -23.772 1.446 1.446 0 1 1 2.047 2.044 13.92 13.92 0 0 0 0 19.682 1.447 1.447 0 0 1 -1.023 2.47Z" fill="#ffffff" stroke="#009fd9" stroke-linecap="round" stroke-linejoin="round" stroke-width="1"></path><path d="M54.446 58.8a1.445 1.445 0 0 1 -1.023 -0.423 8.618 8.618 0 0 1 0 -12.187 1.448 1.448 0 0 1 2.046 2.049 5.719 5.719 0 0 0 0 8.09 1.447 1.447 0 0 1 -1.023 2.471Z" fill="#ffffff" stroke="#009fd9" stroke-linecap="round" stroke-linejoin="round" stroke-width="1"></path><path d="M61.583 65.052a2.349 2.349 0 0 0 0.539 4.66l1.909 -0.231a2.349 2.349 0 0 0 0.541 4.66l1.658 -0.192a2.349 2.349 0 0 0 0.541 4.66l2.764 -0.32a2.349 2.349 0 0 0 0.541 4.661l7.193 -0.833c5.7 -0.659 6.43 -3.105 9.689 -3.482l7.746 -0.9 -1.55 -13.4 -3.839 0.445c-4.525 0.523 -4.583 -4.586 -6.657 -5.739C81.41 58.351 76 55.969 76 55.969a2.168 2.168 0 0 0 -2.927 1.2 2.416 2.416 0 0 0 1.175 3.091l4.079 1.884 0.109 0.95Z" fill="#ffcebf" stroke-width="1"></path><path d="m93.154 64.339 -3.839 0.445c-4.525 0.523 -4.583 -4.586 -6.657 -5.739C81.41 58.351 76 55.969 76 55.969a2.168 2.168 0 0 0 -2.927 1.2 2.416 2.416 0 0 0 1.175 3.091l4.079 1.884 0.109 0.95 -16.848 1.96a2.349 2.349 0 0 0 0.539 4.66l1.909 -0.231a2.349 2.349 0 0 0 0.541 4.66l1.658 -0.192a2.349 2.349 0 0 0 0.541 4.66l2.764 -0.32a2.349 2.349 0 0 0 0.541 4.661l7.193 -0.833c5.7 -0.659 6.43 -3.105 9.689 -3.482l7.746 -0.9" fill="none" stroke="#45413c" stroke-linecap="round" stroke-linejoin="round" stroke-width="1"></path><path d="M85.583 72.2a3.054 3.054 0 0 1 -1.448 3.974l-11.362 5.205a2.846 2.846 0 0 1 -3.8 -1.569L57.625 53.02a3.055 3.055 0 0 1 1.448 -3.973l11.363 -5.211a2.848 2.848 0 0 1 3.8 1.569Z" fill="#daedf7" stroke-width="1"></path><path d="m59.677 50.758 11.6 -5.349a2.786 2.786 0 0 1 3.275 0.756l-0.322 -0.76a2.848 2.848 0 0 0 -3.8 -1.569l-11.357 5.211a3.055 3.055 0 0 0 -1.448 3.973l0.4 0.945a3.009 3.009 0 0 1 1.652 -3.207Z" fill="#ffffff" stroke-width="1"></path><path d="M84.409 69.425 67.802 77.04l-9.003 -21.248 16.607 -7.615 9.003 21.248z" fill="#00b8f0" stroke-width="1"></path><path d="m63.309 66.435 5.542 -15.252 -10.052 4.609 4.51 10.643z" fill="#4acfff" stroke-width="1"></path><path d="M85.583 72.2a3.054 3.054 0 0 1 -1.448 3.974l-11.362 5.205a2.846 2.846 0 0 1 -3.8 -1.569L57.625 53.02a3.055 3.055 0 0 1 1.448 -3.973l11.363 -5.211a2.848 2.848 0 0 1 3.8 1.569Z" fill="none" stroke="#45413c" stroke-linecap="round" stroke-linejoin="round" stroke-width="1"></path><path d="m75.406 48.177 -16.607 7.615 9.003 21.248 16.607 -7.615 -9.003 -21.248z" fill="none" stroke="#45413c" stroke-linecap="round" stroke-linejoin="round" stroke-width="1"></path><path d="m65.055 49.614 4.37 -2.004" fill="none" stroke="#45413c" stroke-linecap="round" stroke-linejoin="round" stroke-width="1"></path><path d="M62.29 50.616a0.579 0.579 0 1 0 1.158 0 0.579 0.579 0 1 0 -1.158 0Z" fill="#45413c" stroke-width="1"></path><path d="M76.122 76.003a1.158 1.158 0 1 0 2.316 0 1.158 1.158 0 1 0 -2.316 0Z" fill="#ffffff" stroke="#45413c" stroke-linecap="round" stroke-linejoin="round" stroke-width="1"></path><path d="M69.835 71.171a2.289 2.289 0 0 1 -1.944 2.586l-3.319 0.384a2.349 2.349 0 0 1 -0.54 -4.66l3.32 -0.384a2.289 2.289 0 0 1 2.483 2.074Z" fill="#ffcebf" stroke="#45413c" stroke-linecap="round" stroke-linejoin="round" stroke-width="1"></path><path d="M72.034 75.639a2.289 2.289 0 0 1 -1.944 2.586l-3.319 0.385a2.349 2.349 0 0 1 -0.54 -4.661l3.32 -0.384a2.289 2.289 0 0 1 2.483 2.074Z" fill="#ffcebf" stroke="#45413c" stroke-linecap="round" stroke-linejoin="round" stroke-width="1"></path><path d="M73.679 80.171a2.29 2.29 0 0 1 -1.943 2.587l-1.66 0.192a2.349 2.349 0 0 1 -0.539 -4.661L71.2 78.1a2.289 2.289 0 0 1 2.479 2.071Z" fill="#ffcebf" stroke="#45413c" stroke-linecap="round" stroke-linejoin="round" stroke-width="1"></path><path d="M66.251 66.873a2.288 2.288 0 0 1 -1.944 2.586l-2.185 0.253a2.349 2.349 0 0 1 -0.539 -4.66l2.185 -0.253a2.288 2.288 0 0 1 2.483 2.074Z" fill="#ffcebf" stroke="#45413c" stroke-linecap="round" stroke-linejoin="round" stroke-width="1"></path><path d="M85.541 70.366a8.122 8.122 0 0 1 -7.11 -7.274l-0.109 -0.95 -4.079 -1.884a2.416 2.416 0 0 1 -1.175 -3.091A2.168 2.168 0 0 1 76 55.969s5.415 2.382 6.663 3.076c2.074 1.153 2.132 6.262 6.657 5.739l3.839 -0.445" fill="#ffcebf" stroke-width="1"></path><path d="M85.418 70.342a1.746 1.746 0 0 0 0.3 -1.4 1.714 1.714 0 0 0 -0.84 -1.154c-2.751 -1.509 -3.8 -3.828 -4.223 -6.657a1.183 1.183 0 0 0 -0.655 -0.909l-3.5 -1.616a2.4 2.4 0 0 1 -1.252 -2.832 2.192 2.192 0 0 0 -2.176 1.393 2.416 2.416 0 0 0 1.175 3.091l4.079 1.884 0.109 0.95a8.131 8.131 0 0 0 6.985 7.261" fill="#ffdcd1" stroke-width="1"></path><path d="M85.541 70.366a8.122 8.122 0 0 1 -7.11 -7.274l-0.109 -0.95 -4.079 -1.884a2.416 2.416 0 0 1 -1.175 -3.091A2.168 2.168 0 0 1 76 55.969s5.415 2.382 6.663 3.076c2.074 1.153 2.132 6.262 6.657 5.739l3.839 -0.445" fill="none" stroke="#45413c" stroke-linecap="round" stroke-linejoin="round" stroke-width="1"></path><path d="m29.924 82.959 -7.193 -0.833c-5.7 -0.66 -6.43 -3.105 -9.689 -3.483l-7.746 -0.9 1.55 -13.4 3.839 0.444c4.525 0.524 4.583 -4.585 6.657 -5.738 1.248 -0.694 6.663 -3.076 6.663 -3.076a2.168 2.168 0 0 1 2.927 1.2 2.416 2.416 0 0 1 -1.175 3.091l-4.079 1.884 -0.109 0.95 12.317 1.432Z" fill="#bf8256" stroke-width="1"></path><path d="m6.846 64.348 3.839 0.444c4.525 0.524 4.583 -4.585 6.657 -5.738 1.248 -0.694 6.663 -3.076 6.663 -3.076a2.168 2.168 0 0 1 2.927 1.2 2.416 2.416 0 0 1 -1.175 3.091l-4.079 1.884 -0.109 0.95 12.367 1.438 -4.012 18.42 -7.193 -0.833c-5.7 -0.66 -6.43 -3.105 -9.689 -3.483l-7.746 -0.9" fill="none" stroke="#45413c" stroke-linecap="round" stroke-linejoin="round" stroke-width="1"></path><path d="M40.02 30.893a1.852 1.852 0 0 0 -2.087 1.583 1.852 1.852 0 1 0 -3.67 -0.5 1.852 1.852 0 1 0 -3.67 -0.5l-1.954 14.213 8.261 1.134a1.389 1.389 0 1 0 2.753 0.378l1.947 -14.22a1.854 1.854 0 0 0 -1.58 -2.088Z" fill="#ffffff" stroke-width="1"></path><path d="m38.461 45.636 0.694 -5.046a1.389 1.389 0 0 0 -1.187 -1.565L29.71 37.89l-1.071 7.8 8.261 1.133a1.389 1.389 0 1 0 2.753 0.378 1.389 1.389 0 0 1 -1.192 -1.565Z" fill="#daedf7" stroke-width="1"></path><path d="M40.02 30.893a1.852 1.852 0 0 0 -2.087 1.583 1.852 1.852 0 1 0 -3.67 -0.5 1.852 1.852 0 1 0 -3.67 -0.5l-1.954 14.213 8.261 1.134a1.389 1.389 0 1 0 2.753 0.378l1.947 -14.22a1.854 1.854 0 0 0 -1.58 -2.088Z" fill="none" stroke="#45413c" stroke-linecap="round" stroke-linejoin="round" stroke-width="1"></path><path d="m13.3156076288 82.377648515 4.664649906 -33.9470145558 20.1843365016 2.773524111 -4.664649906 33.9470145557Z" fill="#87898c" stroke="#45413c" stroke-linecap="round" stroke-linejoin="round" stroke-width="1"></path><path d="m35.411 50.826 -14.679 -2.017a2.779 2.779 0 0 0 -3.132 2.374l-1.513 11.01 20.185 2.773 1.513 -11.01a2.779 2.779 0 0 0 -2.374 -3.13Z" fill="#45413c" stroke-width="1"></path><path d="M20.732 48.809a2.779 2.779 0 0 0 -3.132 2.374l-1.513 11.01 1.271 0.174L33.012 50.5Z" fill="#87898c" stroke-width="1"></path><path d="m35.411 50.826 -14.679 -2.017a2.779 2.779 0 0 0 -3.132 2.374l-1.513 11.01 20.185 2.773 1.513 -11.01a2.779 2.779 0 0 0 -2.374 -3.13Z" fill="none" stroke="#45413c" stroke-linecap="round" stroke-linejoin="round" stroke-width="1"></path><path d="m19.218944345 59.8188820114 0.8825344463 -6.4226491381 14.6800578325 2.0171826973 -0.8825344464 6.4226491381Z" fill="#00b8f0" stroke-width="1"></path><path d="M21.019 53.522a0.927 0.927 0 0 0 -1.044 0.792l-0.63 4.587a0.927 0.927 0 0 0 0.791 1.044l0.641 0.088 7.305 -5.54Z" fill="#4acfff" stroke-width="1"></path><path d="m19.218944345 59.8188820114 0.8825344463 -6.4226491381 14.6800578325 2.0171826973 -0.8825344464 6.4226491381Z" fill="none" stroke="#45413c" stroke-linecap="round" stroke-linejoin="round" stroke-width="1"></path><path d="M18.193 67.411a1.852 1.852 0 1 0 3.704 0 1.852 1.852 0 1 0 -3.704 0Z" fill="#ffffff" stroke="#87898c" stroke-linecap="round" stroke-linejoin="round" stroke-width="1"></path><path d="M17.437 72.915a1.852 1.852 0 1 0 3.704 0 1.852 1.852 0 1 0 -3.704 0Z" fill="#ffffff" stroke="#87898c" stroke-linecap="round" stroke-linejoin="round" stroke-width="1"></path><path d="M16.681 78.42a1.852 1.852 0 1 0 3.704 0 1.852 1.852 0 1 0 -3.704 0Z" fill="#ff6242" stroke="#87898c" stroke-linecap="round" stroke-linejoin="round" stroke-width="1"></path><path d="M23.698 68.167a1.852 1.852 0 1 0 3.704 0 1.852 1.852 0 1 0 -3.704 0Z" fill="#ffffff" stroke="#87898c" stroke-linecap="round" stroke-linejoin="round" stroke-width="1"></path><path d="M22.942 73.672a1.852 1.852 0 1 0 3.704 0 1.852 1.852 0 1 0 -3.704 0Z" fill="#ffffff" stroke="#87898c" stroke-linecap="round" stroke-linejoin="round" stroke-width="1"></path><path d="M22.185 79.177a1.852 1.852 0 1 0 3.704 0 1.852 1.852 0 1 0 -3.704 0Z" fill="#ffe500" stroke="#87898c" stroke-linecap="round" stroke-linejoin="round" stroke-width="1"></path><path d="M29.203 68.923a1.852 1.852 0 1 0 3.704 0 1.852 1.852 0 1 0 -3.704 0Z" fill="#ffffff" stroke="#87898c" stroke-linecap="round" stroke-linejoin="round" stroke-width="1"></path><path d="M28.447 74.428a1.852 1.852 0 1 0 3.704 0 1.852 1.852 0 1 0 -3.704 0Z" fill="#ffffff" stroke="#87898c" stroke-linecap="round" stroke-linejoin="round" stroke-width="1"></path><path d="M27.69 79.933a1.852 1.852 0 1 0 3.704 0 1.852 1.852 0 1 0 -3.704 0Z" fill="#6dd627" stroke="#87898c" stroke-linecap="round" stroke-linejoin="round" stroke-width="1"></path><path d="m36.9 46.823 0.693 -5.046a1.389 1.389 0 0 0 -2.752 -0.378l-8.261 -1.135 -0.694 5.046a1.39 1.39 0 0 0 1.187 1.566l11.01 1.513a1.39 1.39 0 0 1 -1.183 -1.566Z" fill="#daedf7" stroke="#45413c" stroke-linecap="round" stroke-linejoin="round" stroke-width="1"></path><path d="M25.393 38.7a1.39 1.39 0 0 0 -1.566 1.187l-1.639 11.926L33.2 53.326 34.837 41.4a1.389 1.389 0 0 1 1.563 -1.188Z" fill="#ffffff" stroke="#45413c" stroke-linecap="round" stroke-linejoin="round" stroke-width="1"></path><path d="M33.155 71.18a2.289 2.289 0 0 0 1.945 2.586l3.32 0.384a2.349 2.349 0 0 0 0.539 -4.66l-3.319 -0.384a2.288 2.288 0 0 0 -2.485 2.074Z" fill="#bf8256" stroke="#45413c" stroke-linecap="round" stroke-linejoin="round" stroke-width="1"></path><path d="M31.57 75.648a2.288 2.288 0 0 0 1.943 2.586l3.32 0.384a2.349 2.349 0 0 0 0.539 -4.66l-3.319 -0.384a2.288 2.288 0 0 0 -2.483 2.074Z" fill="#bf8256" stroke="#45413c" stroke-linecap="round" stroke-linejoin="round" stroke-width="1"></path><path d="M30.679 80.18a2.29 2.29 0 0 0 1.944 2.586l1.66 0.193a2.349 2.349 0 0 0 0.539 -4.661l-1.66 -0.192a2.29 2.29 0 0 0 -2.483 2.074Z" fill="#bf8256" stroke="#45413c" stroke-linecap="round" stroke-linejoin="round" stroke-width="1"></path><path d="M35 66.882a2.289 2.289 0 0 0 1.943 2.586l2.186 0.253a2.349 2.349 0 0 0 0.539 -4.661l-2.186 -0.252A2.288 2.288 0 0 0 35 66.882Z" fill="#bf8256" stroke="#45413c" stroke-linecap="round" stroke-linejoin="round" stroke-width="1"></path><path d="M14.459 70.375a8.122 8.122 0 0 0 7.11 -7.274l0.109 -0.95 4.079 -1.884a2.416 2.416 0 0 0 1.175 -3.091 2.168 2.168 0 0 0 -2.927 -1.2s-5.415 2.382 -6.663 3.076c-2.074 1.153 -2.132 6.262 -6.657 5.738l-3.839 -0.444" fill="#bf8256" stroke-width="1"></path><path d="M14.582 70.351a1.748 1.748 0 0 1 -0.3 -1.405 1.715 1.715 0 0 1 0.84 -1.153c2.751 -1.509 3.8 -3.828 4.223 -6.658a1.181 1.181 0 0 1 0.663 -0.9l3.5 -1.616a2.4 2.4 0 0 0 1.252 -2.832 2.192 2.192 0 0 1 2.176 1.393 2.416 2.416 0 0 1 -1.175 3.091l-4.079 1.884 -0.109 0.95a8.13 8.13 0 0 1 -6.985 7.26" fill="#e09f7e" stroke-width="1"></path><path d="M14.459 70.375a8.122 8.122 0 0 0 7.11 -7.274l0.109 -0.95 4.079 -1.884a2.416 2.416 0 0 0 1.175 -3.091 2.168 2.168 0 0 0 -2.927 -1.2s-5.415 2.382 -6.663 3.076c-2.074 1.153 -2.132 6.262 -6.657 5.738l-3.839 -0.444" fill="none" stroke="#45413c" stroke-linecap="round" stroke-linejoin="round" stroke-width="1"></path><path d="M54.933 34.648a2.371 2.371 0 0 1 -2.39 -2.348l-0.005 -0.539a7.421 7.421 0 0 1 -5.147 -6.961 2.369 2.369 0 0 1 4.738 -0.044 2.693 2.693 0 0 0 2.738 2.641l0.373 0a2.324 2.324 0 0 0 2.322 -2.318 2.285 2.285 0 0 0 -1.307 -2.041l-4.978 -2.407a7 7 0 0 1 -3.977 -6.268 7.1 7.1 0 0 1 5.022 -6.791l0 -0.438a2.369 2.369 0 0 1 4.738 -0.043l0.005 0.54a7.416 7.416 0 0 1 5.148 6.962 2.369 2.369 0 1 1 -4.738 0.043A2.693 2.693 0 0 0 54.727 12l-0.37 0a2.325 2.325 0 0 0 -2.323 2.32 2.284 2.284 0 0 0 1.307 2.039l4.979 2.407a7 7 0 0 1 3.98 6.262 7.093 7.093 0 0 1 -5.023 6.791l0 0.438a2.372 2.372 0 0 1 -2.344 2.391Z" fill="#8cffe4" stroke="#00c798" stroke-linecap="round" stroke-linejoin="round" stroke-width="1"></path></svg>