<svg viewBox="0 0 100 100" xmlns="http://www.w3.org/2000/svg" id="Hand-Coin-1--Streamline-Ux"><desc>Hand Coin 1 Streamline Illustration: https://streamlinehq.com</desc><path d="M1.6049 50C1.6049 87.2545 41.9342 110.5386 74.1975 91.9114C89.171 83.2664 98.3951 67.2899 98.3951 50C98.3951 12.7455 58.0658 -10.5386 25.8025 8.0887C10.829 16.7336 1.6049 32.7101 1.6049 50Z" fill="#daedf7" stroke="#daedf7" stroke-width="1"></path><path d="M79.2718 24.197C79.6052 22.7575 80.7289 21.6334 82.1682 21.2993L87.9829 19.9576C88.3452 19.8708 88.4777 19.4244 88.2214 19.154C88.1569 19.086 88.074 19.0381 87.9829 19.0163L82.1682 17.6745C80.7287 17.3411 79.6046 16.2174 79.2705 14.7781L77.9288 8.9707C77.842 8.6084 77.3956 8.4759 77.1252 8.7322C77.0572 8.7967 77.0093 8.8795 76.9875 8.9707L75.647 14.7781C75.3127 16.2189 74.1869 17.3433 72.7457 17.6757L66.9383 19.0163C66.576 19.103 66.4435 19.5495 66.6998 19.8199C66.7643 19.8879 66.8471 19.9357 66.9383 19.9576L72.7457 21.2993C74.1878 21.6309 75.3148 22.7555 75.6494 24.197L76.9911 30.0116C77.0779 30.3739 77.5243 30.5064 77.7947 30.2501C77.8627 30.1856 77.9106 30.1028 77.9324 30.0116Z" fill="#fff48c" stroke="#ebcb00" stroke-linecap="round" stroke-linejoin="round" stroke-width="1"></path><path d="M30.8186 21.0428L35.3678 19.5256C35.6798 19.422 35.7626 19.0194 35.5168 18.8011C35.4735 18.7626 35.4228 18.7333 35.3678 18.715L31.628 17.4688C31.1182 17.2983 30.7181 16.8982 30.5476 16.3884L29.3014 12.6499C29.1978 12.3379 28.7952 12.2551 28.5769 12.5009C28.5384 12.5442 28.5091 12.5949 28.4908 12.6499L27.2446 16.3884C27.0737 16.8984 26.6732 17.2984 26.163 17.4688L22.4221 18.715C22.1101 18.8187 22.0273 19.2212 22.273 19.4396C22.3164 19.4781 22.3671 19.5074 22.4221 19.5256L26.1654 20.773C26.6759 20.9424 27.0765 21.3429 27.2459 21.8534L28.4932 25.5956C28.5969 25.9076 28.9994 25.9904 29.2178 25.7446C29.2563 25.7013 29.2856 25.6506 29.3039 25.5956Z" fill="#fff48c" stroke="#ebcb00" stroke-linecap="round" stroke-linejoin="round" stroke-width="1"></path><path d="M70.084 72.3537C69.738 72.3539 69.3955 72.4226 69.0761 72.5557L57.1939 77.3589C56.7217 77.5495 56.2174 77.6476 55.7082 77.6481H54.4983C56.5287 77.6482 57.7976 75.4503 56.7825 73.6919C56.3114 72.8758 55.4407 72.373 54.4983 72.373H49.4084C45.1605 72.373 46.1538 67.7586 38.6828 67.7586H31.4308V82.288C33.4874 82.1269 35.5555 82.3736 37.5165 83.0139L40.4383 84.0435C44.4605 85.4645 48.8019 85.7228 52.9642 84.7888C53.7095 84.7331 70.3743 77.7255 71.0978 77.4267C72.9736 76.6496 73.3047 74.1333 71.6938 72.8974C71.233 72.5439 70.6684 72.3523 70.0876 72.3525Z" fill="#ffcebf" stroke-width="1"></path><path d="M37.5697 70.5606C45.0419 70.5606 44.0486 75.1751 48.2953 75.1751H53.3877C54.6122 75.1749 55.6757 76.0178 55.955 77.2101C57.6501 76.0925 57.4997 73.559 55.6842 72.6498C55.3176 72.4662 54.9132 72.3706 54.5032 72.3706H49.4084C45.1605 72.3706 46.1538 67.7561 38.6828 67.7561H31.4308V70.5582Z" fill="#ffdcd1" stroke-width="1"></path><path d="M72.7263 74.99C72.7253 73.111 70.8158 71.8357 69.0798 72.5545L57.1976 77.3577C56.7254 77.5483 56.221 77.6464 55.7118 77.6469H43.0505C43.0504 78.997 44.1209 80.1039 45.4702 80.1489C56.9846 80.524 57.69 80.0207 67.9957 75.4098C69.4623 74.7978 71.1318 75.6209 71.5394 77.1569H71.5951C72.3035 76.6628 72.7259 75.8537 72.7263 74.99Z" fill="#ffdcd1" stroke-width="1"></path><path d="M54.5056 77.6481H43.2973" fill="#ffcebf" stroke="#45413c" stroke-linecap="round" stroke-linejoin="round" stroke-width="1"></path><path d="M70.084 72.3537C69.738 72.3539 69.3955 72.4226 69.0761 72.5557L57.1939 77.3589C56.7217 77.5495 56.2174 77.6476 55.7082 77.6481H54.4983C56.5287 77.6482 57.7976 75.4503 56.7825 73.6919C56.3114 72.8758 55.4407 72.373 54.4983 72.373H49.4084C45.1605 72.373 46.1538 67.7586 38.6828 67.7586H31.4308V82.288C33.4874 82.1269 35.5555 82.3736 37.5165 83.0139L40.4383 84.0435C44.4605 85.4645 48.8019 85.7228 52.9642 84.7888C53.7095 84.7331 70.3743 77.7255 71.0978 77.4267C72.9736 76.6496 73.3047 74.1333 71.6938 72.8974C71.233 72.5439 70.6684 72.3523 70.0876 72.3525Z" fill="none" stroke="#45413c" stroke-linecap="round" stroke-linejoin="round" stroke-width="1"></path><path d="M18.2444 64.4883H27.4745V84.9255H18.2444Z" fill="#009fd9" stroke="#45413c" stroke-linecap="round" stroke-linejoin="round" stroke-width="1"></path><path d="M27.4745 65.807C27.4745 65.0787 26.8841 64.4883 26.1558 64.4883H19.5631C18.8348 64.4883 18.2444 65.0787 18.2444 65.807V67.7852H27.4745Z" fill="#00b8f0" stroke-width="1"></path><path d="M18.2444 64.4883H27.4745V84.9255H18.2444Z" fill="none" stroke="#45413c" stroke-linecap="round" stroke-linejoin="round" stroke-width="1"></path><path d="M27.4745 83.6067H30.2209C30.8891 83.6067 31.4308 83.065 31.4308 82.3969V67.0169C31.4308 66.3487 30.8891 65.8071 30.2209 65.807H27.4745Z" fill="#ffffff" stroke="#45413c" stroke-linecap="round" stroke-linejoin="round" stroke-width="1"></path><path d="M30.4024 43.4171C30.4024 60.3297 48.7109 70.9001 63.3576 62.4438C70.1552 58.5192 74.3427 51.2662 74.3427 43.4171C74.3427 26.5044 56.0343 15.934 41.3875 24.3904C34.5899 28.3149 30.4024 35.5679 30.4024 43.4171Z" fill="#ffe500" stroke-width="1"></path><path d="M52.3726 21.4469C35.4599 21.4456 24.8883 39.7532 33.3435 54.4007C34.3038 56.0643 35.4782 57.5948 36.8366 58.9531L67.9062 27.8822C63.7909 23.7556 58.2005 21.4396 52.3726 21.4469Z" fill="#fff48c" stroke-width="1"></path><path d="M30.4024 43.4171C30.4024 60.3297 48.7109 70.9001 63.3576 62.4438C70.1552 58.5192 74.3427 51.2662 74.3427 43.4171C74.3427 26.5044 56.0343 15.934 41.3875 24.3904C34.5899 28.3149 30.4024 35.5679 30.4024 43.4171Z" fill="none" stroke="#45413c" stroke-linejoin="round" stroke-width="1"></path><path d="M34.1833 43.4171C34.1833 57.4192 49.341 66.1705 61.4672 59.1694C67.095 55.9202 70.5619 49.9155 70.5619 43.4171C70.5619 29.4149 55.4041 20.6636 43.2779 27.6647C37.6501 30.9139 34.1833 36.9187 34.1833 43.4171Z" fill="none" stroke="#ebcb00" stroke-linejoin="round" stroke-width="1"></path><path d="M56.2563 42.304L50.9328 39.6422C49.3253 38.8421 49.1868 36.6018 50.6835 35.6097C51.0662 35.356 51.5153 35.2209 51.9745 35.2214H52.3714C53.878 35.2227 55.0994 36.443 55.102 37.9496C55.0578 40.0522 57.3062 41.4142 59.1492 40.4012C60.0406 39.9113 60.586 38.9666 60.5646 37.9496C60.5536 34.4895 58.3659 31.4108 55.102 30.2621V29.7588C55.102 27.6567 52.8265 26.3429 51.006 27.3939C50.1611 27.8817 49.6407 28.7832 49.6407 29.7588V30.158C43.9314 31.9316 42.2831 39.2206 46.6737 43.2782C47.2159 43.7792 47.8266 44.2003 48.4877 44.5289L53.8111 47.1907C55.4168 47.9945 55.5501 50.2352 54.0511 51.2238C53.6703 51.4749 53.2243 51.6089 52.7682 51.6091H52.3689C50.8609 51.6085 49.6384 50.3865 49.637 48.8784C49.6813 46.7759 47.4329 45.4139 45.5899 46.4268C44.6984 46.9168 44.153 47.8614 44.1745 48.8784C44.1854 52.3389 46.373 55.418 49.637 56.5672V57.0717C49.637 59.1738 51.9126 60.4876 53.7331 59.4366C54.578 58.9488 55.0984 58.0473 55.0984 57.0717V56.6749C60.8077 54.9013 62.456 47.6123 58.0654 43.5547C57.5232 43.0537 56.9124 42.6326 56.2514 42.304Z" fill="#fffef2" stroke="#b58b00" stroke-linecap="round" stroke-linejoin="round" stroke-width="1"></path></svg>