<svg viewBox="0 0 100 100" xmlns="http://www.w3.org/2000/svg" id="Note-Time--Streamline-Ux"><desc>Note Time Streamline Illustration: https://streamlinehq.com</desc><path d="M1.6049 50C1.6049 87.2545 41.9342 110.5386 74.1975 91.9114C89.171 83.2664 98.3951 67.2899 98.3951 50C98.3951 12.7455 58.0658 -10.5386 25.8025 8.0887C10.829 16.7336 1.6049 32.7101 1.6049 50Z" fill="#daedf7" stroke="#daedf7" stroke-width="1"></path><path d="M21.3247 25.6597H66.6769V68.3441H21.3247Z" fill="#ffffff" stroke-width="1"></path><path d="M51.3309 67.144C51.3309 67.5481 51.343 67.9473 51.366 68.3442H64.0092C65.4802 68.3408 66.6709 67.1474 66.6709 65.6764V46.8942C57.605 49.455 51.3414 57.7234 51.3309 67.144Z" fill="#daedf7" stroke-width="1"></path><path d="M21.3247 25.6597H66.6769V68.3441H21.3247Z" fill="none" stroke="#45413c" stroke-linecap="round" stroke-linejoin="round" stroke-width="1"></path><path d="M32.6625 30.3286C32.659 31.8691 30.9893 32.8282 29.6569 32.0549C29.0413 31.6977 28.6618 31.0404 28.6602 30.3286V20.3241C28.6636 18.7837 30.3334 17.8246 31.6658 18.5978C32.2814 18.9551 32.6609 19.6124 32.6625 20.3241Z" fill="#adc4d9" stroke-width="1"></path><path d="M30.6613 18.3242C29.5566 18.3242 28.6609 19.2194 28.6602 20.3242V23.6598C28.6636 22.1193 30.3334 21.1602 31.6658 21.9335C32.2814 22.2907 32.6609 22.948 32.6625 23.6598V20.3242C32.6625 19.2191 31.7663 18.3236 30.6613 18.3242Z" fill="#adc4d9" stroke-width="1"></path><path d="M32.6625 30.3286C32.659 31.8691 30.9893 32.8282 29.6569 32.0549C29.0413 31.6977 28.6618 31.0404 28.6602 30.3286V20.3241C28.6636 18.7837 30.3334 17.8246 31.6658 18.5978C32.2814 18.9551 32.6609 19.6124 32.6625 20.3241Z" fill="none" stroke="#45413c" stroke-linecap="round" stroke-linejoin="round" stroke-width="1"></path><path d="M46.0074 30.3286C46.004 31.8691 44.3342 32.8282 43.0018 32.0549C42.3862 31.6977 42.0067 31.0404 42.0051 30.3286V20.3241C42.0086 18.7837 43.6783 17.8246 45.0107 18.5978C45.6263 18.9551 46.0058 19.6124 46.0074 20.3241Z" fill="#adc4d9" stroke-width="1"></path><path d="M44.0002 18.3242C42.8955 18.3242 41.9998 19.2194 41.9991 20.3242V23.6598C42.0025 22.1193 43.6723 21.1602 45.0047 21.9335C45.6202 22.2907 45.9998 22.948 46.0014 23.6598V20.3242C46.0014 19.2191 45.1052 18.3236 44.0002 18.3242Z" fill="#adc4d9" stroke-width="1"></path><path d="M46.0074 30.3286C46.004 31.8691 44.3342 32.8282 43.0018 32.0549C42.3862 31.6977 42.0067 31.0404 42.0051 30.3286V20.3241C42.0086 18.7837 43.6783 17.8246 45.0107 18.5978C45.6263 18.9551 46.0058 19.6124 46.0074 20.3241Z" fill="none" stroke="#45413c" stroke-linecap="round" stroke-linejoin="round" stroke-width="1"></path><path d="M59.3402 30.3286C59.3437 31.8691 57.6782 32.8356 56.3424 32.0684C55.7197 31.7107 55.3364 31.0467 55.338 30.3286V20.3241C55.3414 18.7837 57.0112 17.8246 58.3435 18.5978C58.9591 18.9551 59.3387 19.6124 59.3402 20.3241Z" fill="#adc4d9" stroke-width="1"></path><path d="M57.3391 18.3242C56.2344 18.3242 55.3386 19.2194 55.338 20.3242V23.6598C55.3345 22.1193 57 21.1528 58.3358 21.92C58.9585 22.2777 59.3418 22.9416 59.3402 23.6598V20.3242C59.3402 19.2191 58.4441 18.3236 57.3391 18.3242Z" fill="#adc4d9" stroke-width="1"></path><path d="M59.3402 30.3286C59.3437 31.8691 57.6782 32.8356 56.3424 32.0684C55.7197 31.7107 55.3364 31.0467 55.338 30.3286V20.3241C55.3414 18.7837 57.0112 17.8246 58.3435 18.5978C58.9591 18.9551 59.3387 19.6124 59.3402 20.3241Z" fill="none" stroke="#45413c" stroke-linecap="round" stroke-linejoin="round" stroke-width="1"></path><path d="M22.2309 79.0637C22.2309 81.1173 40.5716 82.4008 55.2442 81.374C62.0538 80.8975 66.2486 80.0168 66.2486 79.0637C66.2486 77.01 47.9079 75.7265 33.2353 76.7533C26.4258 77.2298 22.2309 78.1105 22.2309 79.0637Z" fill="#45413c" opacity=".15" stroke-width="1"></path><path d="M69.4138 85.2674C83.3638 87.5426 94.5456 73.8633 89.541 60.6446C87.2146 54.4998 81.7821 50.0665 75.2957 49.0193C61.3457 46.7441 50.1639 60.4234 55.1685 73.6421C57.4949 79.7869 62.9274 84.2202 69.4138 85.2674Z" fill="#ff6242" stroke-width="1"></path><path d="M72.3561 53.6151C81.5631 53.6155 89.3468 60.4334 90.5599 69.5601C92.4131 55.5468 78.4016 44.7823 65.3391 50.184C57.6516 53.363 53.0616 61.313 54.1523 69.5601C55.3654 60.4334 63.1491 53.6155 72.3561 53.6151Z" fill="#ff6242" stroke-width="1"></path><path d="M69.4138 85.2674C83.3638 87.5426 94.5456 73.8633 89.541 60.6446C87.2146 54.4998 81.7821 50.0665 75.2957 49.0193C61.3457 46.7441 50.1639 60.4234 55.1685 73.6421C57.4949 79.7869 62.9274 84.2202 69.4138 85.2674Z" fill="none" stroke="#45413c" stroke-linecap="round" stroke-linejoin="round" stroke-width="1"></path><path d="M70.1876 80.4987C80.4682 82.1692 88.7019 72.0841 85.0082 62.3456C83.2933 57.8241 79.2955 54.5616 74.5219 53.788C64.2413 52.1175 56.0076 62.2026 59.7013 71.9411C61.4162 76.4626 65.414 79.7251 70.1876 80.4987Z" fill="#ffffff" stroke-width="1"></path><path d="M85.5704 70.061C87.8075 59.8886 78.1938 51.1092 68.2657 54.2579C61.5953 56.3735 57.6388 63.2265 59.1418 70.061C61.3572 59.8886 73.7536 55.929 81.4555 62.9337C83.5342 64.8243 84.9725 67.3154 85.5704 70.061Z" fill="#f8f8f8" stroke-width="1"></path><path d="M72.3561 61.3462L72.3912 67.1089H75.0953" fill="none" stroke="#45413c" stroke-linecap="round" stroke-linejoin="round" stroke-width="1"></path><path d="M72.3561 77.4944V75.7692" fill="none" stroke="#45413c" stroke-linecap="round" stroke-linejoin="round" stroke-width="1"></path><path d="M72.3561 56.7935V58.5187" fill="none" stroke="#45413c" stroke-linecap="round" stroke-linejoin="round" stroke-width="1"></path><path d="M79.6746 59.8254L78.4551 61.045" fill="none" stroke="#45413c" stroke-linecap="round" stroke-linejoin="round" stroke-width="1"></path><path d="M82.7066 67.144H80.9813" fill="none" stroke="#45413c" stroke-linecap="round" stroke-linejoin="round" stroke-width="1"></path><path d="M79.6746 74.4625L78.4551 73.2429" fill="none" stroke="#45413c" stroke-linecap="round" stroke-linejoin="round" stroke-width="1"></path><path d="M65.0376 74.4625L66.2571 73.2429" fill="none" stroke="#45413c" stroke-linecap="round" stroke-linejoin="round" stroke-width="1"></path><path d="M62.0056 67.144H63.7309" fill="none" stroke="#45413c" stroke-linecap="round" stroke-linejoin="round" stroke-width="1"></path><path d="M65.0376 59.8254L66.2571 61.045" fill="none" stroke="#45413c" stroke-linecap="round" stroke-linejoin="round" stroke-width="1"></path><path d="M70.1876 80.4987C80.4682 82.1692 88.7019 72.0841 85.0082 62.3456C83.2933 57.8241 79.2955 54.5616 74.5219 53.788C64.2413 52.1175 56.0076 62.2026 59.7013 71.9411C61.4162 76.4626 65.414 79.7251 70.1876 80.4987Z" fill="none" stroke="#45413c" stroke-linecap="round" stroke-linejoin="round" stroke-width="1"></path></svg>