<svg viewBox="0 0 100 100" xmlns="http://www.w3.org/2000/svg" id="Cloud-Uploading--Streamline-Ux"><desc>Cloud Uploading Streamline Illustration: https://streamlinehq.com</desc><path d="M1 50C1 87.7202 41.8333 111.2954 74.5 92.4352C89.6607 83.6822 99 67.506 99 50C99 12.2798 58.1667 -11.2954 25.5 7.5648C10.3393 16.3178 1 32.494 1 50Z" fill="#daedf7" stroke-width="1"></path><path d="M76.7626 28.6299C78.4723 21.6496 71.9844 15.4361 65.0844 17.4456C63.9698 17.7702 62.9254 18.2999 62.005 19.0075C52.6667 7.9894 34.9028 11.2121 30.03 24.8084C29.3003 26.8446 28.9281 28.9916 28.93 31.1546V31.2771C28.5398 31.2108 28.1458 31.1699 27.7503 31.1546C20.5245 31.0719 15.9189 38.8423 19.4601 45.1414C21.1413 48.1318 24.3199 49.967 27.7503 49.9277H70.0006C79.0195 49.9408 84.6704 40.1857 80.1723 32.3686C79.3214 30.8898 78.1577 29.6146 76.7626 28.6323Z" fill="#ffffff" stroke-width="1"></path><path d="M70.0006 43.8468H27.7613C23.7513 43.847 20.1845 41.2986 18.885 37.505C16.7844 43.5964 21.3155 49.9415 27.7589 49.9314H70.0006C77.7277 49.9541 83.3538 42.612 81.322 35.1567C79.9479 40.2805 75.3055 43.8439 70.0006 43.8468Z" fill="#daedf7" stroke-width="1"></path><path d="M76.7626 28.6299C78.4723 21.6496 71.9844 15.4361 65.0844 17.4456C63.9698 17.7702 62.9254 18.2999 62.005 19.0075C52.6667 7.9894 34.9028 11.2121 30.03 24.8084C29.3003 26.8446 28.9281 28.9916 28.93 31.1546V31.2771C28.5398 31.2108 28.1458 31.1699 27.7503 31.1546C20.5245 31.0719 15.9189 38.8423 19.4601 45.1414C21.1413 48.1318 24.3199 49.967 27.7503 49.9277H70.0006C79.0195 49.9408 84.6704 40.1857 80.1723 32.3686C79.3214 30.8898 78.1577 29.6146 76.7626 28.6323Z" fill="none" stroke="#45413c" stroke-linecap="round" stroke-linejoin="round" stroke-width="1"></path><path d="M50 77.5478C47.7983 77.5451 46.0141 75.7609 46.0114 73.5592V58.5995L42.8889 61.7208C41.0854 63.5243 38.0058 62.6991 37.3457 60.2355C37.0394 59.0921 37.3662 57.8722 38.2032 57.0352L47.6566 47.5819C48.9492 46.2848 51.0496 46.2848 52.3422 47.5819L61.7968 57.0352C63.6003 58.841 62.7726 61.922 60.3069 62.581C59.1626 62.8868 57.942 62.5589 57.105 61.7208L53.9837 58.5995V73.5592C53.981 75.759 52.1998 77.5424 50 77.5478Z" fill="#ffcc99" stroke-width="1"></path><path d="M50 47.2229C50.7167 47.2227 51.4039 47.5079 51.9098 48.0155L61.3594 57.4725C62.8296 58.9427 62.1569 61.453 60.1487 61.9911C59.2166 62.2408 58.2222 61.9744 57.5399 61.2921L53.3749 57.1271V73.5592C53.3749 76.1581 50.5615 77.7825 48.3107 76.483C47.2662 75.8799 46.6227 74.7654 46.6227 73.5592V57.1209L42.4577 61.2859C40.9899 62.7589 38.478 62.0906 37.9362 60.083C37.6848 59.1512 37.9496 58.1561 38.6308 57.4725L48.0853 48.0192C48.5918 47.509 49.2811 47.2224 50 47.2229M50 45.9979C48.9576 45.995 47.9574 46.4097 47.2229 47.1494L37.7647 56.6028C35.6279 58.7401 36.6061 62.3891 39.5255 63.171C40.8804 63.5339 42.3259 63.1464 43.3176 62.1545L45.4001 60.072V73.5592C45.4001 77.1011 49.2344 79.3149 52.3018 77.5439C53.7254 76.722 54.6024 75.203 54.6023 73.5592V60.0781L56.6848 62.1606C58.8241 64.2932 62.4697 63.3103 63.247 60.3914C63.6077 59.0367 63.2183 57.5925 62.2255 56.6028L52.771 47.1494C52.0383 46.4108 51.0404 45.9961 50 45.9979Z" fill="#ff8a14" stroke-width="1"></path><path d="M40.5405 87.0648C40.5405 88.6246 48.4193 89.5994 54.7224 88.8195C57.6476 88.4576 59.4497 87.7887 59.4497 87.0648C59.4497 85.5051 51.5709 84.5303 45.2678 85.3101C42.3426 85.6721 40.5405 86.341 40.5406 87.0648Z" fill="#45413c" opacity=".15" stroke-width="1"></path><path d="M65.5269 35.0685C65.5235 36.5555 64.3189 37.7601 62.8319 37.7635H37.1644C35.0851 37.7635 33.7855 35.5125 34.8252 33.7118C35.3077 32.8761 36.1995 32.3613 37.1644 32.3612H62.8257C64.32 32.3612 65.5303 33.5743 65.5269 35.0685Z" fill="#45413c" stroke-width="1"></path><path d="M55.3974 32.3673H37.1644C35.0851 32.3673 33.7855 34.6183 34.8252 36.419C35.3077 37.2547 36.1995 37.7696 37.1644 37.7696H55.3974Z" fill="#ff8a14" stroke-width="1"></path><path d="M55.3974 32.3673H37.1644C35.676 32.3673 34.4694 33.5739 34.4694 35.0623H55.3974Z" fill="#ffaa54" stroke-width="1"></path><path d="M65.5269 35.0685C65.5235 36.5555 64.3189 37.7601 62.8319 37.7635H37.1644C35.0851 37.7635 33.7855 35.5125 34.8252 33.7118C35.3077 32.8761 36.1995 32.3613 37.1644 32.3612H62.8257C64.32 32.3612 65.5303 33.5743 65.5269 35.0685Z" fill="none" stroke="#45413c" stroke-linejoin="round" stroke-width="1"></path></svg>