<svg viewBox="0 0 100 100" xmlns="http://www.w3.org/2000/svg" id="Online-Payment-1--Streamline-Ux"><desc>Online Payment 1 Streamline Illustration: https://streamlinehq.com</desc><path d="M10.847 50a40 40 0 1 0 80 0 40 40 0 1 0 -80 0Z" fill="#daedf7" stroke="#daedf7" stroke-width="1"></path><path d="M53.052 40.206a2.089 2.089 0 1 0 2.2 3.549l8.541 -5.3A2.089 2.089 0 0 0 66 42l0.887 -0.551a2.09 2.09 0 0 0 2.2 3.55l0.887 -0.551A2.089 2.089 0 1 0 72.186 48l5.324 -3.307c4.572 -2.839 4.271 -5.112 6.884 -6.735l3.524 -2.189L81.58 25.56a3.125 3.125 0 0 1 -2.773 0.26l-1.644 -0.591Z" fill="#ffdb94" stroke="#45413c" stroke-linecap="round" stroke-linejoin="round" stroke-width="1"></path><path d="M53.052 40.206a2.089 2.089 0 1 0 2.2 3.549l8.541 -5.3A2.089 2.089 0 0 0 66 42l0.887 -0.551a2.09 2.09 0 0 0 2.2 3.55l0.887 -0.551A2.089 2.089 0 1 0 72.186 48l5.324 -3.307c4.572 -2.839 4.271 -5.112 6.884 -6.735l3.524 -2.189L81.58 25.56a3.125 3.125 0 0 1 -2.773 0.26l-1.644 -0.591Z" fill="none" stroke="#45413c" stroke-linecap="round" stroke-linejoin="round" stroke-width="1"></path><path d="M71.666 36.022a2.09 2.09 0 0 1 -0.673 2.877l-5.768 3.583a2.089 2.089 0 0 1 -2.2 -3.55l5.768 -3.582a2.089 2.089 0 0 1 2.873 0.672Z" fill="#ffdb94" stroke="#45413c" stroke-linecap="round" stroke-linejoin="round" stroke-width="1"></path><path d="M74.758 39.02a2.09 2.09 0 0 1 -0.673 2.877l-5.768 3.583a2.089 2.089 0 1 1 -2.2 -3.549l5.768 -3.583a2.089 2.089 0 0 1 2.873 0.672Z" fill="#ffdb94" stroke="#45413c" stroke-linecap="round" stroke-linejoin="round" stroke-width="1"></path><path d="M75.631 43.4a2.089 2.089 0 0 1 -0.672 2.877l-3.55 2.2a2.089 2.089 0 1 1 -2.2 -3.549l3.549 -2.205a2.088 2.088 0 0 1 2.873 0.677Z" fill="#ffdb94" stroke="#45413c" stroke-linecap="round" stroke-linejoin="round" stroke-width="1"></path><path d="M56.756 41.012a1.864 1.864 0 0 1 0 3.728h-8.971a1.864 1.864 0 1 1 0 3.728h-0.932a1.864 1.864 0 0 1 0 3.728h-0.932a1.864 1.864 0 0 1 0 3.728h-5.592c-4.8 0 -5.643 -1.864 -8.388 -1.864h-3.7V43.342a2.789 2.789 0 0 0 2.224 -1.108l0.968 -1.222Z" fill="#ffcebf" stroke="#45413c" stroke-linecap="round" stroke-linejoin="round" stroke-width="1"></path><path d="M56.756 41.012a1.864 1.864 0 0 1 0 3.728h-8.971a1.864 1.864 0 1 1 0 3.728h-0.932a1.864 1.864 0 0 1 0 3.728h-0.932a1.864 1.864 0 0 1 0 3.728h-5.592c-4.8 0 -5.643 -1.864 -8.388 -1.864h-3.7V43.342a2.789 2.789 0 0 0 2.224 -1.108l0.968 -1.222Z" fill="none" stroke="#45413c" stroke-linecap="round" stroke-linejoin="round" stroke-width="1"></path><path d="M40.679 46.6a1.864 1.864 0 0 0 1.864 1.864H48.6a1.864 1.864 0 1 0 0 -3.728h-6.057a1.863 1.863 0 0 0 -1.864 1.864Z" fill="#ffcebf" stroke="#45413c" stroke-linecap="round" stroke-linejoin="round" stroke-width="1"></path><path d="M39.747 50.332a1.864 1.864 0 0 0 1.864 1.868h6.058a1.864 1.864 0 1 0 0 -3.728h-6.058a1.864 1.864 0 0 0 -1.864 1.86Z" fill="#ffcebf" stroke="#45413c" stroke-linecap="round" stroke-linejoin="round" stroke-width="1"></path><path d="M41.145 54.06a1.863 1.863 0 0 0 1.864 1.864h3.728a1.864 1.864 0 0 0 0 -3.728h-3.728a1.864 1.864 0 0 0 -1.864 1.864Z" fill="#ffcebf" stroke="#45413c" stroke-linecap="round" stroke-linejoin="round" stroke-width="1"></path><path d="M70.657 32.4a2.518 2.518 0 0 0 -2.51 -2.527h-25.11a2.519 2.519 0 0 0 -2.511 2.527v11.677a2.519 2.519 0 0 0 2.511 2.523h25.11a2.518 2.518 0 0 0 2.51 -2.527Z" fill="#6dd627" stroke-width="1"></path><path d="M70.658 32.4a2.518 2.518 0 0 0 -2.511 -2.527h-25.11a2.519 2.519 0 0 0 -2.511 2.527v1.9a2.519 2.519 0 0 1 2.511 -2.527h25.11a2.518 2.518 0 0 1 2.511 2.527Z" fill="#9ceb60" stroke-width="1"></path><path d="M70.657 32.4a2.518 2.518 0 0 0 -2.51 -2.527h-25.11a2.519 2.519 0 0 0 -2.511 2.527v11.677a2.519 2.519 0 0 0 2.511 2.523h25.11a2.518 2.518 0 0 0 2.51 -2.527Z" fill="none" stroke="#45413c" stroke-linecap="round" stroke-linejoin="round" stroke-width="1"></path><path d="M66.475 41.305a1.216 1.216 0 0 0 0.817 -1.149v-3.813a1.215 1.215 0 0 0 -0.817 -1.148 2.528 2.528 0 0 1 -1.558 -1.569 1.216 1.216 0 0 0 -1.151 -0.822H47.4a1.216 1.216 0 0 0 -1.15 0.822 2.526 2.526 0 0 1 -1.561 1.574 1.214 1.214 0 0 0 -0.817 1.148v3.813a1.217 1.217 0 0 0 0.817 1.149 2.523 2.523 0 0 1 1.558 1.567 1.215 1.215 0 0 0 1.15 0.823h16.37a1.216 1.216 0 0 0 1.15 -0.823 2.525 2.525 0 0 1 1.558 -1.572Z" fill="#e4ffd1" stroke="#45413c" stroke-linecap="round" stroke-linejoin="round" stroke-width="1"></path><path d="M58.1 38.391a2.511 2.511 0 1 1 -2.511 -2.527 2.519 2.519 0 0 1 2.511 2.527Z" fill="#9ceb60" stroke="#45413c" stroke-linecap="round" stroke-linejoin="round" stroke-width="1"></path><path d="M43.591 41.012a1.864 1.864 0 0 0 0 -3.728h-6.337a6.058 6.058 0 0 0 -4.8 2.364l-1.989 2.586a2.789 2.789 0 0 1 -2.224 1.108v3.728h5.1a6.058 6.058 0 0 0 6.059 -6.058h4.194" fill="#ffcebf" stroke-width="1"></path><path d="M31.941 47.07h1.4a6.058 6.058 0 0 0 6.059 -6.058h4.194" fill="none" stroke="#45413c" stroke-linecap="round" stroke-linejoin="round" stroke-width="1"></path><path d="M28.239 45.206h0.906A2.839 2.839 0 0 0 31.4 44.1l1.99 -2.586a6.054 6.054 0 0 1 4.8 -2.364h6.337a1.849 1.849 0 0 1 0.916 0.249 1.869 1.869 0 0 0 -1.848 -2.113h-6.341a6.058 6.058 0 0 0 -4.8 2.364l-1.989 2.586a2.789 2.789 0 0 1 -2.224 1.108" fill="#ffdcd1" stroke-width="1"></path><path d="M43.591 41.012a1.864 1.864 0 0 0 0 -3.728h-6.337a6.058 6.058 0 0 0 -4.8 2.364l-1.989 2.586a2.789 2.789 0 0 1 -2.224 1.108" fill="none" stroke="#45413c" stroke-linecap="round" stroke-linejoin="round" stroke-width="1"></path><path d="M25.443 54.661a1.215 1.215 0 0 1 -1.215 1.216h-5.309V41.431h5.309a1.215 1.215 0 0 1 1.215 1.215Z" fill="#009fd9" stroke="#45413c" stroke-linecap="round" stroke-linejoin="round" stroke-width="1"></path><path d="M25.443 43.761v-1.115a1.215 1.215 0 0 0 -1.215 -1.215h-5.309v2.33Z" fill="#00b8f0" stroke-width="1"></path><path d="M25.443 54.661a1.215 1.215 0 0 1 -1.215 1.216h-5.309V41.431h5.309a1.215 1.215 0 0 1 1.215 1.215Z" fill="none" stroke="#45413c" stroke-linecap="round" stroke-linejoin="round" stroke-width="1"></path><path d="M25.443 54.945h1.581a1.215 1.215 0 0 0 1.215 -1.216V43.578a1.215 1.215 0 0 0 -1.215 -1.215h-1.581Z" fill="#ffffff" stroke="#45413c" stroke-linecap="round" stroke-linejoin="round" stroke-width="1"></path><path d="M65.586 32.42a2.089 2.089 0 1 1 -2.2 -3.549l6.034 -3.748a6.789 6.789 0 0 1 5.969 -0.588l3.423 1.285a3.125 3.125 0 0 0 2.773 -0.26l2.2 3.549L80.26 31.3l-1.331 0.826a6.789 6.789 0 0 1 -9.35 -2.185l-3.993 2.48" fill="#ffdb94" stroke-width="1"></path><path d="m80.26 31.3 -1.331 0.826a6.789 6.789 0 0 1 -9.35 -2.185l-3.993 2.48" fill="none" stroke="#45413c" stroke-linecap="round" stroke-linejoin="round" stroke-width="1"></path><path d="m82.682 27.335 -0.862 0.535a3.181 3.181 0 0 1 -2.8 0.276l-3.42 -1.285a6.788 6.788 0 0 0 -5.97 0.588L63.6 31.2a2.067 2.067 0 0 0 -0.724 0.779 2 2 0 0 1 -0.163 -0.228 2.089 2.089 0 0 1 0.672 -2.877l6.034 -3.748a6.789 6.789 0 0 1 5.969 -0.588l3.423 1.285a3.125 3.125 0 0 0 2.773 -0.26" fill="#ffe9bd" stroke-width="1"></path><path d="M65.586 32.42a2.089 2.089 0 1 1 -2.2 -3.549l6.034 -3.748a6.789 6.789 0 0 1 5.969 -0.588l3.423 1.285a3.125 3.125 0 0 0 2.773 -0.26" fill="none" stroke="#45413c" stroke-linecap="round" stroke-linejoin="round" stroke-width="1"></path><path d="M90.936 34.684a1.362 1.362 0 0 0 1.876 0.438l5.054 -3.139 -8.543 -13.754 -5.054 3.139a1.362 1.362 0 0 0 -0.438 1.876Z" fill="#009fd9" stroke-width="1"></path><path d="m84.49 24.305 -0.659 -1.061a1.362 1.362 0 0 1 0.438 -1.876l5.054 -3.139 1.377 2.218Z" fill="#00b8f0" stroke-width="1"></path><path d="m89.323 18.229 -5.054 3.139a1.362 1.362 0 0 0 -0.438 1.876l7.105 11.44a1.362 1.362 0 0 0 1.876 0.438l5.054 -3.139" fill="none" stroke="#45413c" stroke-linecap="round" stroke-linejoin="round" stroke-width="1"></path><path d="m91.1 34.954 -1.5 0.934a1.362 1.362 0 0 1 -1.876 -0.438l-6 -9.665a1.362 1.362 0 0 1 0.438 -1.876l1.5 -0.935Z" fill="#ffffff" stroke="#45413c" stroke-linecap="round" stroke-linejoin="round" stroke-width="1"></path><path d="M2.134 79.794a11.279 1.774 0 1 0 22.558 0 11.279 1.774 0 1 0 -22.558 0Z" fill="#45413c" opacity=".15" stroke-width="1"></path><path d="M19.383 76.943a1.216 1.216 0 0 1 -0.565 2.293H4.837a7.733 7.733 0 0 1 0.754 -3.336l11.762 -24.663 0.953 4.763 -6.715 17.63a1.221 1.221 0 0 0 0.9 1.632l4.932 0.988a7.333 7.333 0 0 1 1.96 0.693Z" fill="#daedf7" stroke="#45413c" stroke-linecap="round" stroke-linejoin="round" stroke-width="1"></path><path d="M25.619 74.454a0.611 0.611 0 0 1 -0.5 0.706l-1.054 0.184a0.617 0.617 0 0 1 -0.389 -0.061 10.668 10.668 0 0 1 -5.546 -7.613l-5.49 -31.556a10.669 10.669 0 0 1 2.648 -9.039 0.614 0.614 0 0 1 0.345 -0.189l1.055 -0.183a0.61 0.61 0 0 1 0.706 0.5Z" fill="#ffffff" stroke="#45413c" stroke-linecap="round" stroke-linejoin="round" stroke-width="1"></path></svg>